<mxfile host="app.diagrams.net" agent="Mozilla/5.0 (Windows NT 10.0; Win64; x64) AppleWebKit/537.36 (KHTML, like Gecko) Chrome/136.0.0.0 Safari/537.36" version="27.0.6">
  <diagram name="Page-1" id="3WEG0BcmEaPWdOdoA439">
    <mxGraphModel dx="1261" dy="796" grid="1" gridSize="10" guides="1" tooltips="1" connect="1" arrows="1" fold="1" page="1" pageScale="1" pageWidth="827" pageHeight="1169" math="0" shadow="0">
      <root>
        <mxCell id="0" />
        <mxCell id="1" parent="0" />
        <mxCell id="UPl1scvbvViI10Mi023q-46" value="" style="shape=image;verticalLabelPosition=bottom;labelBackgroundColor=none;verticalAlign=top;aspect=fixed;imageAspect=0;image=data:image/png,iVBORw0KGgoAAAANSUhEUgAABGcAAAIhCAIAAABsZEB0AAAgAElEQVR4Aey9CXQT2Z23rS9nTodZ0pNJpsmcmWRmwpwzMOnOJPNNvjedTrrTaXcn6U6gkwa62Q02BoOhAQM2NgYbA17wvu/7bvC+4xUDBi9gvEm2ZVteZcmr7LJsvEj6gi/UKyRL3lS2JP/q6HRX3br1v/c+Ul3q8a26xaIoMT4gAAIgAAIgAAIgAAIgAAIgAAKqCLBU7UA6CIAACIAACIAACIAACIAACIAARYlhTRhqAwEQAAEQAAEQAAEQAAEQAAF1BGBN6uhArEEABEAABEAABEAABEAABEAA1gRrAgEQAAEQAAEQAAEQAAEQAAF1BGBN6ujAqkEABEAABEAABEAABEAABEAA1gRrAgEQAAEQAAEQAAEQAAEQAAF1BGBN6ujAqkEABEAABEAABEAABEAABEAA1gRrAgEQAAEQAAEQAAEQAAEQAAF1BGBN6ujAqkEABEAABEAABEAABEAABEAA1gRrAgEQAAEQAAEQAAEQAAEQAAF1BGBN6ujAqkEABEAABEAABEAABEAABEBgAWtqa2uvm18EAiFDgNrbO0gR/f0CJoqg4/P5jMTv6OCR+vP5/UzUn8d7Gb+vj89M/E5Sf4bid3Z2kfi9vX1M1J+O39PTy0R8ihJ3dXWTJjBUBB2/u7uHiSZ0d/eQ+jMUv6enl8Tv6upmov50/M7OLibi9/b2kfozFJ+ixH19fFIEj9fJRBPk4vOYiM/n95P6d3QwFF9A4re3dzBR//5+puMLSf3b2tqZqD9FiQWCgVdFtDFRhFD4Mj6Xy1D8QVJ/LpfLRP0HBl7Gb21tZSL+4OAQqX9LC0Pxh1/Fb2Gi/hQlHhp6WURzMyNFDA2NkCZwOM1MNGF4ePRVfA6j8dlsRuKPjIhI/dlsNhP1Hx19Gb+pqYmZ+GOk/gzFpyixSDROimhsbGSiCXT8hoYGjcSHNa1krGltrMnBwWHLli3/DxYQYIDAN7/5TRubqyvuRGirgTWpYihnNbCmBbpZPp9pq2E6Pqxpga9V/nQQCmFN6hANDsKa1PGhKDGsSf6EUl6HNSkzUUiBNS1yjhFe+jHWRKyJhQUEGCDwxhuwphd/4cJYk8K/MfQmxppoFAuu9PfDmhb55xjWtOAvh06ENdEoVK3AmlSRIemwJvV85MeyGBxrWrQSyLA2BEJDw7du3bZnz576+vpZLCCgIQJisdja2nqV1rQ2pwBKAQEQAAEQAAEQAAEtIbDAHXpaUjNUg7amxsZGGRYQ0BCBqakpWBO6FxAAARAAARAAARBYFgFY0yL3GCyLpmYzw5o0pAkI8xoBWJNmz1NEAwEQAAEQAAEQ2AgEYE2wptcuqbGh9wRgTRuhZ0cbQQAEQAAEQAAENEsA1gRr0ntNQANfIwBr0mwfimggAAIgAAIgAAIbgQCsCdb02iU1NvSeAKxpI/TsaCMIgAAIgAAIgIBmCcCaYE16rwlo4GsEYE2a7UMRDQRAAARAAARAYCMQgDXBml67pMaG3hOANW2Enh1tBAEQAAEQAAEQ0CwBWBOsSfOa8Pz5c4FAMDY2tqzQ09PTPT09Q0NDix41Nzc3MDAwOjq6aE6pVDo6Ojo0NDQzM7No5oGBAR6PR1HUojlJhqGhIS6XOzIyssT8WpIN1qTZPhTRQAAEQAAEQAAENgIBWBOsSfMX84ODgw4ODklJSbOzs5mZWadPnzY1NT0xv5iamhoaGubk5CiXOjg46OPjk5qatqjhzMzMxMfHBwUF9fX1KceRT5mZmfF9sfgtRbEKC4tiY+N6e3vlI5B1LpcbERHx8OFDmUw2MDDw7NmzqqqqrKyswMDAtLT0qqqqp0+f9vf3SyQS5WO1LQXWtBF6drQRBEAABEAABEBAswRgTbAmzV/VK1hTZGRUTU1N4/zS0NDg4+NTUHBXJpPNzs6KRGODg0Pk09nZFR4e7unpVVtbSycODQ1NTU1JpVKJRDIrt9TV1QcFBT98WDEzM0OSaWOZnZ2lKGpkfuHz+U5OTq6urp2dnSRleHh4amqKtLmrqysvLy/55XL75k2Hq1dtIyOjXqUkV1ZWkqGn2dnZkpISO7trxcUltbW1YWFhvr6+9vb2Z86cvXbN/oWX+fpWVVXRddA8U81FhDVptg9FNBAAARAAARAAgY1AANYEa9Lc9fh8pOHh4cbGRhubKz4+vt3d3cnJyWbzi/n88vXXXx89ejQ/v0Amk3E4HCcnp6NHTUxMjpGPoeHhQ4cMjY2P0ikXLlysqKjo6Ohwc3Mj6YcOGe7Y8fnu3bsPHz5ibGxM5zQzO11SUiKTyRobG62srPfu3WdicszIyPiDD379/vsfHDpkaGJy7MgRo127dicmJs7NzclksurqamdnZ1dX17Cw8NDQsIsXLc6ePevr6xcWFh4WFm5jc8XX16+np4cAmp2dLS4uzsvLa29vLywsjIqK8vHxsbW1c3Nzj4qKys7OpnNqGKimw8GaNkLPjjaCAAiAAAiAAAholgCsCdak4avylJQUY+Ojv/zlrz755Ldubm6enp5JScmDg4OkmOnp6djYuMLCQvlSBwYGs7Nznj17RhK7u7uLioqbmpqmp6fpbGS4aWRkJDo6xs7uWlVVtUQi6evra2xsHBwclMwvUqlUJpPV1zd4enrdu3dPJpNNT0/7+Pj6+fmJRCKZTDY0NHTr1q2YmNjZ2VliTTExMWw2m5SicIdeRkZmSEiIsguNjY21trY+e/YsLy8/ODgkOzv72bNnLS0ty32Oi27aGq/AmjTbhyIaCIAACIAACIDARiAAa4I1af6iXf4OvZycnJMnzY4eNTl50uzkSTMTk2PGxkfv3v2/1jQ0NBQUFOTs7Nzc3EyqMjIyEhYWdunSpYqKCjIoRFexvLzczs4uNzeX3GX37NmzK1euREVFEyki2errGzw8PEtKSsmteh4eHl5e3oODg7Ozs0Kh0Nn5NWuKioqqr6+fnZ2dmZnJyckNCwvv6Oggt/ylpaUHB7+wptraWnv768bGRy0sLAoK7tbV1RUXlxQXl8THJ7i5ucXGxhYXl5SUlDx9+nQpT0/RbVmvFVjTRujZ0UYQAAEQAAEQAAHNEoA1wZo0f/VOrCkmJkYsFguFQg6HQx5qIv9ls9lkdEgmk7W3t9+86WBvb//kyRP6cSMyBV9qaqqVlVVBwV0yLiSTyWpqauzt7ePjEwYGBp4/fz45OSkUCouKio4eNfH09KLFqb6+wdz8/K5du1/dofcBfYeeoeHh7dt3yI81XbxoceDAQROTY0ePHt2zZ+8XX+w8ePAQuetv7959bm7uPT09k5OTAwMDjx9XhoSE3r1bWFVVlZ6ekZKSQj/+lJycnJqaWlVVpRPDTbAmzfahiAYCIAACIAACILARCMCaYE2atyaRSHT9+vUDBw56enrZ2V2bH18yNjAw+O1vf3fkiJGJyTEzs1OlpaXPnz+Pi4sLDQ19+rTWz88vLS2NiFNRUfGtW7eqq6uLior8/PybmppkMllTU9Px46Y//en//Pzn7/7mNx/t3bvv8OEjn3762e7dX548aWZoaBgVFT02Nq5wh97U1JS3t4+/vz9xquHhYRcXF3lriomJ4XA4MplMKpUWFBRER8f09LycQ0/hDj0OpzkiIqKysnJqaio2NtbY+Oj8vIAnTU1PGBsbK4x3aZ6p5iLCmjZCz442ggAIgAAIgAAIaJYArAnWpLnr8flIiYlJ+/cf+PDD39jbX+dwmjkcTnV1dU9Pj5eXV0hIyPj4C7FRXvLzC/z8/DmcZqFQ6OnpFRMTq5Bzenqaz+dzudzc3Dx//4Da2tru7m4HB8fU1FSZTPbkyZPy8nJyg9z8c02eZWVlEolkcnLS29s7ICBAJBJJJJKRkRFXVzd5a4qNjWWzORKJZP4OvZzIyMiuri7ylFR6err8c020NU1OTqakpMg/mpWdnZ2UlEQPdim3TqtSYE2a7UMRDQRAAARAAARAYCMQgDXBmjR8Sd/d3d3c3Ozs7Eze13Tv3r2IiIiGhgYvLy9nZ+e7d+/m5+d3dnYqlDo6KvL3D/D29vbw8Lh16xYZ/1HIQzazsrICAgLa29s7OjquX79OrEk+p8Ideu+//3/v0Hs1h14SPYee/B16n3766ccff6J8hx4JLm9N0dExx44dP3funLm5+dmz5w4fPhIaGgpr2gg9JtoIAiAAAiAAAiCwMQnAmmBN8sahmXX52SASEhLd3Nyampq8vLxsbe1SUlKSkpJaWlqUS+LxeKdOnfryyy/Ly8sVJoGgM09NTYWHR4SGhg4MDChYU2NjI5fLlclkbDY7MDDo/v0Hc3NzExMTnp5e/v4Bo6Ojc/PL7Oxs9YulZmpqqqamJjk5uaWl5dVsEDlRUVFdXV1kNoiCgoL4+AQ+n09KJ9aUkZFRV1cXFhYeFxfHZrMbGxs5HE5YWFhsbCysaWP2oWg1CIAACIAACIDARiAAa4I10UqisRXamkZHR/39/Q8fPnz79m1HR6fg4OAF50sQi8U1NU+cnJzt7OwsLCzMzc8XFhaJxWKFCk1PT+fm5lpbXy4tLZPJZPLWJJVKU1JSc3Nz6akjyLEzMzMvXkDr6yc/u11KSkp4eIRAIFSIrzDzuMLe5uZmDw+Pw4ePuLi43rp16/DhI8ePm544cfL4cdMDBw6EhITAmjZCj4k2ggAIgAAIgAAIbEwCsCZYk4IdrHZTKpUODAyEhobdvn0nMTEpMDCopKQkMDDoiy92Xrt2rbS0tGJ+6ejomJiY6Orqys7OtrCwNDE5lpSUPDw8PDExkZ+ff+6c+YkTJ0NCQisrK4eGhiQSSU9PT1BQ8LFjx+Lj44l69fT0+Pj4BgUFPXz4sKSk5MaNm1lZWQq1l0qlqampN27czMjIeDi/5Ofn29vbK+eUyWTqram4uPjs2bPJyS8qqfBcU2ZmZkJCAqxpY/ahaDUIgAAIgAAIgMBGIABrgjUpiMZqNysrK21srlhYWCQn3w4NDS0vL5dIJNPT08+e1cXFxfn6+nl5ebu4uD5+XNnY2Ojk5GRlZZWdnUPPRU6Kn56efvr0qa+v782bDlVVVb29vYGBgY6OTrW1z+Rv3quqqvL29nZycnJ0dIqPj+/u7lauPZ/PT0pKvnnT4cbL5WZCQmJv78uJ8uTz5+fnR0ZGKb/WluR5+vRpTU3N9PT05OTk7dt37t69S2b2c3JyOn7cNDU1dXJyUj6a1q5jNoiN0LOjjSAAAiAAAiAAApolAGuCNWn+8l4qlWo+qDZFnJubk0gkpEY611hYk2b7UEQDARAAARAAARDYCARgTbAmbdIR1IV5ArCmjdCzo40gAAIgAAIgAAKaJQBrgjUxf52OErSJAKxJs30oooEACIAACIAACGwEArAmWNP6XNHPzs6y2exCLCoIFBcX83g8Jr4bWNNG6NnRRhAAARAAARAAAc0SgDXBmpi4Ml885ujoqImJCQuLCgKbNm1ycnJanOPyc8CaNNuHIhoIgAAIgAAIgMBGIABrgjUt/7pbE0cQa3rzzTd/+tOffoTldQI//OEPYU0bof9FG0EABEAABEAABHSFAKwJ1qQJB1p+DNqagoKCln+0Ph8xOTlpYWEBa9KVPhT1BAEQAAEQAAEQ2AgEFrCmtrb2uvlFIBAyhKC9vYMU0d8vYKIIOj6fz0j8jg4eqT+f389E/Xm8F/EdHBy2bNmyZ8+exsZGVZZAUdTExAQ9C7Zytunp6dnZWeX0dU+BNan6CnTCmnp6eskp0NXVzcQpQMfv7OxiIn5vbx+pP0PxKUrc18cnRfB4nUw0QS4+j4n4fH4/qX9HB0PxBSR+e3sHE/Xv72c6vpDUv62tnYn6U5RYIBh4VUQbE0UIhS/jc7kMxR8k9edyuUzUf2DgZfzW1lYm4g8ODpH6t7QwFH/4VfwWJupPUeKhoZdFNDczUsTQ0AhpAofTzEQThodHX8XnMBqfzWYk/siIiNSfzWYzUf/R0Zfxm5qamIk/RurPUHyKEotE46SIxsZGJppAx29oaNBIfFjTSsaatMSaZmZmgoKC3N3dOzs7VV2Cx8XF3bmTMj4+PjEx0dvb26G0CIXC6elpVYfLZLKxsbGBgYGpqSk1eVawC9akChqsiaLEsKZF+3dYk3pEsCb1fChKDGtSjwjWpJ7PvJXBmtRdQ8KaFv0J0VYDa1L3S6LHgjDWtOBPSv1Y0+zs7Mz80traeurUqcDAIJFIRFLIf6enpyUSyeTk5LNnz2xt7RwdHVNSUpKSkpycnM6cOWtoeNjE5JiRkbGJybFz58xjYmL7+/vv3bvn7OxcWVmpfCkfEBDg4OCg8fncYE3KqEkKrAnWtGC3oJAIa1IAorAJa1IAorwJa1JmIp8Ca5KnseA6xpoWxEInwppoFKpW9MGaVLUN6WtMIDQ0fOvWbcp36AUHBx86ZGhsfPT3v//0f//3Zzt2fH70qImJyTH6s2/f/vz8fIqiCgsLz507d/myjb9/QHl5OUVRMzMziYlJ9+8/uH37dnFxydzcHLlSLyoqunr16oMHD5Qv5QMCAm/cuNne3k7vks4v9ObKVmBNqrjphDWt8bmA4kAABEAABEAABEBgfQkscIfe+lYIpdMEVFmTTCaTSqWdnZ03bzokJ98eGxvn8/kdHR3j4+MKPtPfL4iOjsnJyR0bG5+dnR0fp4TCgejo6Pz8/IiIyIyMjKGhIfW358lkMgVrys7OPnHiZEpK6irv2YM1wZronzpWQAAEQAAEQAAEQEDLCcCa1N1JuL5fnhprkslkaWlpfn7+bW3tUqnU09PTz89/cHBQ4UL8wYMHt2/fcXFxLS4uEQgE7u7ue/fu27Vr9759+w8cOLhv334yKiWVSrOysi5fvlxR8YhE6O3tjYiIsLS8lJCQeP369Zs3HeixppSUVCMj46SkZLFYrFDcsjZhTapwYaxpfc87lA4CIAACIAACIAACygRgTTppTc3NzS4urmlp6ePjLwaR3N3dAwMDh4aG5C/EJRJJfHxCSkpqcHBIQUFBX19fRERkcXFJcnLyvE3dTk1NDQ4OLi0tlUqlRUVFly9fLi8vl8lkbDbnypWr589fCA0NdXJy2rVrl62tHW1Nc3NzExMTi45QyddkwXVY04JYZDIZrEm5n0IKCIAACIAACIAACKwvAViTTlpTdHTMwYOHDh8+YmJyzNjY+Ne//vUnn/yWbB44cDAvL08qlU5OTjo5OX/xxc4vv/xq586dsbGxkZFRhYWFiYmJJSUl4eHhCQkJISEh9+7dk7em+Xn5gq9du8bhcGQymUQi8fHxtbe/TluTqmv95abDmlQRgzWtb5+I0kEABEAABEAABEBAmQCsSSetaXJyUiwWT88vExMTt27dCgwMJHOIP3/+nJ7jYWZmZnp6Oj4+IS8vr7e3LzIyKjo6xsXFNT4+wcbmiqOjo6enp4I1DQ8Pm5ub+/j4Tk5Okst6heeaVF3rLzcd1qSKGKxJuZ9CCgiAAAiAAAiAAAisLwFYk05ak/wFN3muyd9/geeaSLa4uPjQ0LCmpqbo6Bg3N7e0tLSoqGh//wAXF1dzc3OFO/QGBgbOnTvn5+cHa5KHvJbrsKb17RNROgiAAAiAAAiAAAgoE4A16Zg1TU9PFxcXB8ot/v4Bhw4Znjxp5uvrSyc/efJEJBorKCiwsbly4MDBEydO5ObmhoaGff31mdzc3OTk2xkZmYmJiWZmp/Ly8uXv0PvLzHi2trY2Nle6urrIZH3zd+jZy9+hJ5VKV28RGGtSxRDWpNxPIQUEQAAEQAAEQAAE1pcArEnHrGlmZqa6ujpVbklPTzczM7Ozs0tLS6OTm5ubRSLRw4cVJSUlPj6+xcXFAoEgKCjYz8+Px+MlJiaVld0Ti8XR0dEKY00ymaykpGTfvv0XL1qkpqZ6enoeOHBQ/n1Nubm5p0+fTk9Pf/78uarr/qWkw5pUUYI1rW+fiNJBAARAAARAAARAQJkArEnHrEn5UlvNzOMkc1JSMpl5PDIy6uHDCjrCzMxMfHx8aWkZmXnc2tr64cOHMplsfHy8oqLi5k0Hc/Pz6enpCQkJUVHRXV3d5MCUlBRDQ8P4+PiJiQk61ApWYE2qoMGalPsppIAACIAACIAACIDA+hKANemDNfn6+gYFBSm/r4lclyclJRUXFwuFwoiIiAcPHpDEqqrqq1dtjxwxKiwsUnX5vmD6zMyMSCRa5StuZTIZrGlBvJh5fH07RJQOAiAAAiAAAiAAAgsSgDXpvDWR6+zJyUmJRLLghfj09PTs7KxUKiXT7pE8Eolkenp6ZmZGIw8pLViu+kRYkyo+GGtasKtCIgiAAAiAAAiAAAisIwEttaaamie5uXkeHp5WVtaRkVG5uXm5uXnt7bx1JLX2RYeGhm/dum3Pnj2NjY2qrrB1Nx3WpOq7gzWt/bmGEkEABEAABEAABEBAPQHtsqbY2HgrK+u3336bpWLZunXbrVsu7e0d6lulH3thTaq8Qr/TYU36cf6iFSAAAiAAAiAAAvpEQFusKTY2Xl6Wtm7d9v77Hxw9amJlZb1z56733//g/fc/2Lx5My1TFy5c0Ht3gjXptx2pah2sSZ96WLQFBEAABEAABEBAPwisvzVVVz/58MMPiQ7t2PG5lZX148eVC8Ilt+2Zmp7YvPl7LBZr69at+j3uBGtS5RX6nQ5rWvD0RyIIgAAIgAAIgAAIrCOBdbam2Ng4eohpx47PVfmSAqCamicnTpwk7rR9+45Hjx4rZNCPTViTftuRqtbBmvTj/EUrQAAEQAAEQAAE9InAeloTrUxL9yV59HFxCe+88w6LxdJXcYI1qfIK/U6HNcmf5lgHARAAARAAARAAAW0gsG7W9LoyVa2Mhbw4VVTo24gTrEm/7UhV62BNK+sNcBQIgAAIgAAIgAAIMEdgfayJfpZpfpRphcpEoNDidP68vs0PAWtS5RX6nQ5rYq6/Q2QQAAEQAAEQAAEQWBmB9bGm3bu/ZLFYq1cm0mZanIKDQ1ZGQTuP2iDWtHfvXhcsrxP45JNPNm3a5OTkxIQfTk1NWVtbv/HGN21srmrnLx+1AgEQAAEQAAEQAAFtI7AO1kTuzdu2bVtWVo6mcNja2m3e/L3t27fr0316G8Ga6KnksaJAANakqc4BcUAABEAABEAABEBg9QTWwZrIQJOFhWVHB2/1DSAR5oebfsxisfRpuEm/rWlycjIpKekcFhUELl68WFxcjLEmTXURiAMCIAACIAACIAACqyGw1tYUE/NiqnHNDjSR9sfHJ7zzzo/1abhJv62JCR9AzKUQwB16q+kxcSwIgAAIgAAIgMDGJLDW1mRjc/WttzZrdqCJfHOwpqVcMSMPCMCaNmZfj1aDAAiAAAiAAAishsBaW9OuXbtZLFZ4eMRqKq3q2L179+nTTXoYa4LhMEEA1qSqA0E6CIAACIAACIAACKgisKbWVF1d8+tff8jE7XmkeXZ21zZv/p7eTEEOa2LCGRAT1qSqN0Q6CIAACIAACIAACKgisKbWFBMT96Mf/Yg5a9Kzm/RgTTAcJgjAmlT1hkgHARAAARAAARAAAVUE1sGaNPWaJuUmwZqYuMhGTD0jAGtS7jqQAgIgAAIgAAIgAALqCSxgTW1t7XXzi0AgVH/wcveSsaYdOz7PzMwkRfT3C5YbRE1+2poyMjJIfD5fk/Hpojs6eK/i99OJGlzh8V7Ed3Bw2LJly549exobG/Xswh3NWUcCGrGmnp5ecgp0dXVr8JdPh6Ljd3Z20YkaXOnt7SP1Zyg+RYn7+vikCB6vU4M1p0PJxdfYKxzo4BQl5vP7Sf01+IqI1+MLSPz29g75dE2t9/czHV9I6t/W1q6pOivEEQgGXhXRprBLI5tC4cv4XC5D8QdJ/blcrkYqrBBkYOBl/NbWVoVdGtkcHBwi9W9pYSj+8Kv4LRqpsHKQoaGXRTQ3M1LE0NAIaUJzc7Ny6atPGR4eJfE5HM7qoylHoOOz2YzEHxkRkfqz2Wzl0lefMjr6Mn5TU9PqoylHGB0dI/VnKD5FiUWicVJEY2OjcgVWn0LHb2hoWH00ihLDmsQr4AhrWv1Fv0QiGRwc7MCiggCPxxOJRKvnrBwB1kRRYljTov0erEk9ov5+WNMi/3oKhbAmdYgGB2FN6vhQlJi2GljTgt0RrGlBLPKJsCZ15xg9G8SjR4+IvGKsSfmiWUtSRkdHTUxMWFhUENi0aZOTkxMTXxasCdYk/4+KqnVYkyoyJB3WpJ4PRYlhTeoRwZrU84E1LcoH1rQoorWwpkUrseIM9B16jx9XrTiImgNpa2Lolg81RTOxS79ngyDW9Oabb/7gBz/4NyyvE/j7v/97LbcmJn7wiAkCIAACIAACIAACWktggTv0mKsrmXmc6fc1YeZxJgYoNB6TtqagoCCNB9fpgJOTkxYWFrAm5joiRAYBEAABEAABEACB5RJYU2uiKDF5y62FhaXGnzCuqXlqYGCwdevW9PTM5VLQzvwbZKwJ1qTgeLAm7TwfUSsQAAEQAAEQAIGNTGCtrSkmJu7tt99mYvJxcnve9u3bKyoe68c3CmtS0IkNsglr0o/zF60AARAAARAAARDQJwLrY00av0mvpuaJgYEBi8XSm9vzKEoMa9ogmqTQTFiTPvWwaAsIgAAIgAAIgIB+EFhra6IocWys5oebbG3tNm/+nj7dngdrUnCJjbMJa9KPvhWtAAEQAAEQAAEQ0CcC62BNFCXevftLFoulqfv04uIS3nnnHRaLFRwcok/fDcaaNo4pybcU1qRPZzHaAgIgAAIgAAIgoB8E1seayHATi8Va/bQQNTVPPvroIxaLpU9PNJHfFqxJ3iU2zjqsST/6VrQCBEAABEAABEBAnwisjzXR9+mtUpzklGmH3kwCQf+8lmhN6ekZUVHRPT29i3pFYWFRQEAgh9O8YE6hcKCwsCghITEpKVn+k5CQkJmZ2d3dveBRK07EzOOq0MGa6FMAKyAAAiAAAiAAAicPj78AACAASURBVCCgJQTWzZooSnzlytW33tpMxKm9nbdcIvSNedu373j0SE/mzZOHsERram3lOjk5l5SUqLoKp9MLCgr8/f2bmxe2pra2Ni8v78jIqEevL7m5eYGBQU+ePKHjaGQF1qQKI6xJ/izAOgiAAAiAAAiAAAhoA4H1tCb5EaetW7dlZmYvnYjeK5Oq2SCmp6fDw8OPHz9+8qQZ+Ziamh46dOjw4SOmpidIyrFjx/Pz82dmZiYmJoKDQ0xMTE7ML7t27d6+fcfhw4fJppGRcUxMzMjICLl8b2trc3Nz9/HxyX59iY2N8/T0gjURSmvwX1jT0vsB5AQBEAABEAABEACBtSGwztYkL05kfojIyCg14041NU88PDzJ3A/zzzLp5ygT+e4XHGuSSqWdnZ1PnjyprKzMzMw8f/6Cr6/v48ePKyoqioqKHzx4+GR+EQgEUql0dHTU1tYuJCSkr69PIBCkpaUFBgbV1NQIBIL+/n4PD4+AgEChUEhMoK2tzdn5lq2tXcDri5ubm4ODQ3V1NS0MYrE4JibGw8ODy+XSictdwViTKmKwprXp+1AKCIAACIAACIAACCydwPpbE0WJq6ufmJqe2Lz5xd16LBZr69Zt77//wdGjJpGRUbm5eR4enlZW1lZW1m+//WKiPLLo61158t/cgtZEX2qPj1M+Pj7+/v58Pl8mk7W2trq4uGRkZIjFYjoPsaaYmNjp6WmZTFZQUODn58fhcGQymVQqDQwMItY0NzdXU1OTnp6ekpKStNCSkpJy507K/fv3h4eHZTJZXx/f0vLSwYOHHj16RJe13BVYkypisCb5swDrIAACIAACIAACIKANBLTCmgiImprX3OmVHyn+f8eOHVZW1nr5IJPCD0KNNU1MTISFhbu5ube1tZGLb6lU+uzZMxubKzExsX+RJZI4Ojp68eLFnTt3WlpaWllZHz585Kuv9pw+/bWVlbWl5aU9e/Z4eXkLhUKJRNLS0nr//oN798pLSkqVP2Vl98rK7tXX14+NjZHI3d09PF7n8+fPVV36L5oOa1KFCNakcCJgEwRAAARAAARAAATWnYAWWRPNgtyGZ2Vl/cUXOzdv3rx16zZj46NWVtbqb96jD9ebFVXWJBKJAgMDv/hi5/HjphYWlqdPnz5+3NTIyNjIyPhPf/rzH/7wx4SEhImJCZlMRsaaAgODuNy2lpbWpKSkoKCgBw8etrS0crltt265yN+hl5eXd+6cuanpCTOzU8bGxl999dXhw0fMzE4dP266b9/+zMwsiUSi6kJ/BemwJlXQYE16cwqjISAAAiAAAiAAAnpDQButiYYbGxv/9tvv7Nix49GjSjpx46yosqbp6emMjAwfH5/Y2FgrK6vw8PC6ujpz8/NBQUGDg0NFRcWenl61tbW0NS16hx65fM/NzXNzc4uPj8/MzIyJibWzu+bn55+ZmZmRkXHt2rW8vHxYkyrP0Ww6rGnjnONoKQiAAAiAAAiAgK4QgDWJtfarUmVN9DV6fX39zZs3y8rKpqambG3tAgODKIqi9xJrsrCw3Ldvv7399Rs3bp48aWZoeNjS8tKNGzft7a8fPHjI29uHng0iNzcvNDSstraWz+c/evTYy8s7Kyu7u7uby+V6eXnn5xfAmuTZMrcOa9LaUxIVAwEQAAEQAAEQ2LAEYE06bE1ZWdlOTs51dXUK1tTf3z8wMDA3Nzc6Onr16lUPD8+amprKysqwsDBPT6+8vLzK+aWqqqqyspLH45G5IvLzC8gdeqdPnz5yxGjPnr3GxkdPnTptZvbCtbKzc2BNzJmSfGRY04btjtFwEAABEAABEAABrSUAa9JVa+rr49+65RIfHz82NqZgTZmZmbGxsX19fbOzswKBQCQSSaVSMoeer68vm82mr9Hv3r3r7+/P4XBmZ2fb2toqKioezi/Z2TnOzrdiYmLI5sOHD5uamsbHx8mBk5OTsbFxPj6+HR0ddKjlruC5JlXEYE1a212iYiAAAiAAAiAAAhuWAKxJ96xJKpVyuVwHB8dr164RBXr+/Lmrq1toaNjw8MjMzExERERCQoJIJFK4Li8vL3d3d6+qqpqdXyiKCgsLi4iIFAqFYrG4qqo6JSXl9vwSHR1jb3/dx8f3zp07t2/fvnMn5cGDh0NDL6Ydn595vO/8+fN79+7FzOMKhDWyCWvasN0xGg4CIAACIAACIKC1BNbCmqqra3Jz81bwIS9x2rFjB3lx0woitLV1aC36RSu24HNNk5OT8fHxR4+auLt78Hid9GV6Vlb2qVOnjYyMjY2PHjt27O7duzMzM/RestLX1+fp6WlkZGxicszE5Jix8VEzM7OCggKBQBAaGnrixAmzV8uJEyeMjY2PHTv2KuHF/11cXJqbm0koHo/H5XInJycVilj6JsaaVLGCNS16aiADCIAACIAACIAACKwxgbWwJhubq2+99fINtopvX2Jye/v27RUVj9YY6LKKGxkRpaSkqZohcEFrkslk/f39fX195GEk+Stv6atFPlF5XSKRzM0vEomE3LmnnGcNUmBNqiDDmpZ1EiEzCIAACIAACIAACKwBgbWwppiYuC++2Pn++x+s4LN58wvd2rp12wqOdXa+peVjTSMjooMHD/3zP//zxYsWjY1she9blTWputrWrXRYk6rvC9akcCJgEwRAAARAAARAAATWncBaWNOKG6n372si1kTG2/77v3/i5xfQ1dVD44I1qfIK/U6HNdGnAFZAAARAAARAAARAQEsIwJrWczYIeWsi7vTRRx/l5eWPjoooSgxr0m87UtU6WJOWdI6oBgiAAAiAAAiAAAjQBGBN2mVNLBbrW9/61sGDh6qqajaINZ06dSoVy+sEvvzyy02bNjk5Oakyq9WkT01NWVtbv/HGN21srtIdAVZAAARAAARAAARAAATUENiI1vT4cZWZ2SkDA4NTp05XVlZTlLi6+snp018bGBicOHGCzM1QW/vs7NmzBgYGJibHHj6soChxfX2jubm5gYGBkZFRefkDihKz2c0XLlw0MDAwNDQsK7tHUeKWFq6l5SUDA4P9+/cXF5dSlLi9nWdtfdnAwGDPnj2FhcUUJe7s7LaxuWJgYLBr166srOyDBw8tOCPGv//7v3/44Yc/+MEP9uzZ09jYuJqrZO08ljzXtGDbkchisWBNarot7AIBEAABEAABEACBNSawEa0pP7/g5z9/l8Vi/eIXv7h7t4iixEVFJe+990sWi/Wzn/1/eXn5FCW+d+/+Bx98wGKxfvKTn2Zl5VCUuKLi8W9+8xGLxXr77bfT0zMoSlxVVfPxx5+wWKz//M+tKSlpFCV+9qzu97//lMVi/fCHP0xKuk1R4qYm9h//uJ3FYv3gBz+Ij0+gKHFzc+vnn3/OYrH+6Z/+KSwsXJU1sVisN99882/+5m/01ZomJiZ8fX13YFFBYOfOnXfu3GHCeDHWtMadLIoDARAAARAAARDQAwIb0Zq6u3tLSspSU9NLSsp6evooStzT00dSiotLu7t7KUrc19dfWnovNTW9qKiEzNDA5wvKyspTU9Pv3i3q7OymKLFAMFBe/iA1Nb2g4C6P10VRYqFw8P79h6mp6fn5BR0dnRQlHhgYevCgIjU1PTc3v72dR1HioaFhkpKTk8fhNC9oTd/+9reNjY0tLCy3bt2mr9bEhA8g5lIIwJr0oONGE0AABEAABEAABNaYwALW1NbWXje/CARChmrT3t5BiujvF6gpYsVz6NHx+Xx18dUUrX5XRweP1J/P71efU/1e5dkgWCzWxx9/kpCQWFtb6+DgsGXLFljTUkwAeZZOQCPW1NPTS06Brq4Xf0HQ+IeO39n54u8RGv/09vaR+jMUf/4vL3xSBI/34g8oGv/09dHxX/w5RuMfPr+f1L+jg6H4AhK/vZ2Rd5H39zMdX0jq39bWrnH4JKBAMPCqiDYmihAKX8bnchmKP0jqz+Vymaj/wMDL+K2trUzEHxwcIvVvaWEo/vCr+C1M1J/8lZYU0dzMSBFDQyOv4jcz0YTh4VESn8PhMBqfzWYk/siIiNSfzVZ8tYxGmjM6+jJ+U1OTRgIqBBkdHSP1Zyg+RYlFonFSRGNjo0LpGtmk4zc0NGgkIKxpJVcbDFnT//zP/xsSEtbT08fjvbAyWNPSTQA5l04A1kRRYljTov9+wJrUI+rvhzUt8q+nUAhrUodocBDWpI4PRYlhTep7IViTej7yVgZrUney6dxY07/+679evmzDZr/8aw2saekOgJzLJQBrgjUt+i8NRYlhTeopwZrU8yG3rJO/ImOsaUFWsKYFscgnwprkaSivw5qUmSikrMVYk0KR67i54jv01rHOyyp6ZER0/Ljpvn37yVR+Csfq98zjy73WR35NEdCINSn8VrEJAiAAAiAAAiAAAvpNYIE79LSnwXpvTWS6iOHh0QWZw5o05QmII08A1rTg6YZEEAABEAABEAABEFBDANak7k4/NeDWYBesSf5aH+uaIgBrWoOTF0WAAAiAAAiAAAjoGQFYE6xJU1fjiKMbBGBNetaJozkgAAIgAAIgAAJrQADWBGvSjWt91FJTBGBNa9CxoggQAAEQAAEQAAE9IwBrgjVp6moccXSDAKxJzzpxNAcEQAAEQAAEQGANCMCaYE26ca2PWmqKAKxpDTpWFAECIAACIAACIKBnBGBNsCZNXY0jjm4QgDXpWSeO5oAACIAACIAACKwBAVgTrEk3rvVRS00RgDWtQceKIkAABEAABEAABPSMgFZb09Wrtps3b96xY8ejR5V6xn0pzdHvmcfHx8dv3LjxMywqCLz33nuRkZGaMiX5OLCmpZx9yAMCIAACIAACIAAC8gS015pqap785je/Yc0vG1Oc9NuaRkdHTUxMyPeL/yoT2LRpk5OTk7ztaGod1iTfA2IdBEAABEAABEAABJZCQEutiVamrVu3bd68mcVihYaGLaU9+pRnI1jTm2++aW1t/RjL6wSMjY1hTfp0LqMtIAACIAACIAACuk5AS62J3Ju3deu2zMysuLj4t99+ZwMON20QawoKCtLUKIp+xJmcnLSwsIA16XrfivqDAAiAAAiAAAjoEwFttKbY2Pi33357XpmyCeuvvtrDYrE2mjjBmvTDgpbbCliTPvWwaAsIgAAIgAAIgIB+ENA6ayLKxGKxLl60aG/nEcpkuGmjiROsabm+oR/5YU360beiFSAAAiAAAiAAAvpEQLusiX6caceOzx8/fm3ePFqcNs4DTrAm/bCg5bYC1qRPPSzaAgIgAAIgAAIgoB8EtMuaXk01rqhMhDURp61bt2VkZOoHffWtgDUt1zf0Iz+sSf15gb0gAAIgAAIgAAIgsPYEtMia5GaAePk4kzIO8oDT9u07Hj16rLxXz1JgTfphQcttBaxJz05kNAcEQAAEQAAEQEAPCGiLNS34OJMy3/lb+D5isVgbQZyWaE05OTkZGRnDw8OLXp3fu3cvIiKitbV1wZzNzc2xsbF1dXVkb+GLpWh8fPz+/fvJycldXV0LHkUSc3NzU1NTKyoePX36dHR0VE1Oehd5X9Obb76JOfRoJmQF1qR84iMFBEAABEAABEAABNaXgFZYU3X1yxfays8AoYpLXFz8O++8w2KxLly40N7eoSqbHqQv0Zpqa2sdHR3v37+vcPGtvFlQUODn58fhcJR3yWQyNpsdEhJaXV3d3t5+7949Dw8PLy+vvLw8Pz8/V1e3jIyMurq6sbGxBY8NCwvz8vK6f/++s/Mtf3//vr6+BbPJJ8Ka5GnIr8Oa9ODkRRNAAARAAARAAAT0jIBWWNPu3V/Oz4+38ONMysTj4hKIOIWEhCrv1ZuUBa1pZmamvLw8IiIyMjLq1Sfy5s2bbm7urzajIiIi6+rqZmZmJicnc3Jy3N3dPecXc/Pzx44dv3btGtl0dXXNz88fHRXJZLK5ubn6+vqQkJCKiooHDx5GRERevmxz+bJNQECgjY3NxYsXvb29i4uLh4eHJRLJ9PT0c7llamoqJCTUz8+/u7ubx+vMzy9obm6WSqXyJqC8DmtSZkJSYE16cwqjISAAAiAAAiAAAnpDYP2t6cqVq2+9tVn+7UxLgWtra7d58/f0+z49NdYUFRUVHR0dHBxiZGR88aJFREREtNwSGRn17NkLaxodHbWxsXFwcCgtLS0qKvLx8XFwcExOvl1UVFRSUmJjc8XPz18oFIrF4uDg4K++2vOnP/159+4vExMT+/r6SktLS0pKeLxOLretqamJz+dPT09LJJLIyMgjR46YmByjP0ePmvz+95/+7ne/O3TIkCS6urqR+wClUum9e/fu3LnT29urIAmwJgUg9CasaSk9APKAAAiAAAiAAAiAwFoSWGdrio2Ne/vtt1ksVlhY+HKbvWfPXv1+wGlBa6KvrSUSSXh4hKOjU0vLi+eU6usbPD0979+/L5FI6Dx/ecTI1tYuJiZ2enpaJpMVFBT4+vqy2WyZTCaVSoOCggICAoVCIclfXl7u7HyrsrJyZGTE09Pz9Omvr12zJ5/Lly/fuHHj6dNacqD09WVubi4/Pz82Nq6rq5vsoSswMDBw7pz5H/+4vaysjE4kK7AmBSD0JqxpuV0B8oMACIAACIAACIAA0wTW05qqq598+OGHLBbLwsKSfqHt0htM36enryNOaqxJKpVmZGRcv369qqpqbm5OJpPNzMzk5eVZWFikpaVRFEWbibX15XPnzGNj4+Lj4+3tr58/f97X1zc+Pj42Nu7MmbO+vn60NcXGxv7pT3/29/dva2vz9vZ2dXXLebUkJib6+fkRa6Iv7uVX5m8ajGhpaZFPJOtPnjwtKiqmS6EzwJpoFAorsKaldwLICQIgAAIgAAIgAAJrQ2DdrIlWpvkX2latrLW0OOnlA06qrGl2djYzM9PE5Jijo1NsbNz8M0V+np6ezs7OBw8e/Oqrr4qKisiI0+joqJWVtaWlZXJycmJi0vXrNy5duhQYGJSYmJSUlHTunDltTVNTU/b29nv27LG2tk5NTXVxcfX09MzPz8+bX1JSUgIDg2prX4w1NTQ0BAcHO72+BAUFBweHkAwKDqBqE9akigysaWW9AY4CARAAARAAARAAAeYIrJs1kceZtm3blpWVs5rmEXHavn1HRYW+vcFJlTWJRCJvb5/jx01tbK4YGx+9fv1GWlq6sbGxp6fns2fPwsPDra0vP3r0SCaTLf0Ovfr6en9/fwcHB1tb2+joaHt7+wsXLri8Wm7evOnk5EzGmgYHB2traysrK52cnPz8/CoqKp48efrw4UNn51uFhUWqTEA5HdakzISkwJpW0yHgWBAAARAAARAAARBggsD6WBN5nGn1ykSIvHrAabueiZMqa6KvttlstqOjU1lZ2dTUlK2tXWBgEEVRs7Oz4+Pjz58/J9ZkbW194cLFpKTk5OTbzs7OVlZWgYFBycm3k5KSzc3Pk9kgZDJZUlKyt7dPQEBgSUnJ4OAgn8/v7Ox88OBBSEhIYWFRZ2cnn8+fnJyki5ZKpQkJCQUFd8mglkAg8Pb2yc/PpzMsugJrUoUI1sRET4eYIAACIAACIAACILAaAutgTfQMEBYWlh0dvNXUnhxL36e3fbteidOi1lRcXOzo6FRTUyNvTeQZJ/Kw0+joqKXlJVNTU9/55cKFiydPnnRwcCCb3t7e2dnZAwMDPB4vODgkNDQsKCj48ePHVVXVSfOa5eLievny5YCAgOT5paKign6DrYI1SaXS+PiEuLg48rLdRacdJ0ZnYmKCt9wquxOsafV9AiKAAAiAAAiAAAiAgGYJrLU1VVfXkBkgVvM4kzKCeXH6MYvFCg4OUd6roynqrWlsbMzPzz8yMnJwcFDBmnJycpKTbwsEgqmpqcrKqpaWFiJR8nPokYv14uLikJDQpiZ2V1dXefn9kJDQx48r6+vrs7Kys7NzLCwsP/vsMysrq+Tk5Ozs7OrqGvott8Sa0tLShoeHeTxef39/Xl6ep6dnfX19d3d3dHTM48eVpIiKikdZWdl8fr+CHmCsSQEIvQlr0tETFtUGARAAARAAARDQYwILWFNbW3vd/CIQCDXechubF29nMjAwuHPnTl1dXX+/QFNFxMcnvPPOj7du3Zqentne3kGawOdrLL58PTs6eK/i98una2qdx3sR38HBYcuWLXv27GlsbKQvqcnK8PDwX/zw/PkLRE6mpqbs7K4FB4dMTEzIZLL4+WVoaEjhqLKyMl9f3/r6BpIukUgSExNDQ8P6+vpkMhmbzQ4JCa2urpbJZGNjY/HxCdeu2efm5rq6ugUFBQ8MDJCjRCJRe3t7cXGxpaXl3r37jIyMzp49V1ZWxuPxnJycb9++U1tbGxER8eTJE5lMNjAwcPbsuc8++0NpaalCZWBNCkDoTZ2wpp6eXnIKdHV1a+pnLx+Hjt/Z2SWfrqn13t4+Un+G4lOUuK+PT4rg8To1VW35OHLxNTBiLx+ZrPP5/aT+GrkjYKH4AhK/vb1Dee/qU/r7mY4vJPVva2tffW0XjCAQDLwqom3BDKtMFApfxudyGYo/SOrP5XJXWdUFDx8YeBm/tbV1wQyrTBwcHCL1b2lhKP7wq/gtq6yqqsOHhl4W0dzMSBFDQyOkCc3NzarqsJr04eFREp/D4awmjqpj6fhsNiPxR0ZEpP5sNltVHVaTPjr6Mn5TU9Nq4qg6dnR0jNSfofgUJRaJxkkRjY2NqqqxmnQ6fkNDw2ri0MeuqTURZdq2bVtYWBjBpEFroijx3r375t/gtD0jI4PE1z9rev58Oj8//9Sp0+fOmd+//4A8vySVSuPi4gwNDx8+fMTY+OiBAwezsrJnZmboC3GywuVyr1+/Mf8uWhMTk2NHjhjt338gNTX1L0NVtDXl5uZlZmaZm5tfuXKloeGFX3V3d7u7e5w9ey45+bZQKJzfe97GxiY2NpbNZo+MjJCXQUml0sLCwtOnvzY0NPT19evq6iYvd6qsrMzPLxAIBAqVgTUpAKE3YU0UJYY10X20qhVYkyoyJB3WpJ4PRYlhTeoRwZrU86EoMaxJPSJYk3o+sCaxGkAxMXE/+tGPyNuZHj16zIQ11dQ8NTAwYLFYH330UXJycl1dnf5Zk0wmq6l5UlHxSCQS0dfZxE/GxsYEAkF/f//Y2Jj8u27ls01OTvb393d2dvJ4vK6urtHRUXLznkwm6+zsLCi429DQUFVVzeFw5KVrbm6usbGxrq6OoiiJRDI3N7fgk0tSqZTNZufk5LS2ttJh5UuXX4c1ydOQX4c1wZrUdKT0LlgTjWLBFVjTgljkE2FN8jSU12FNykwUUmBNCkAUNmFNCkCUN+mxIB0ea1Ju1epTqqtrfv3rFy+0tbTUzAwQqqpE7tNjsVjnz19g6MYPVUVrPF39c03y19m6uA5rUvWt6YQ1afzXjoAgAAIgAAIgAAIgoM0EFrhDj4nq7tq1m8Viff75nx4/XuELbZdeK1qcdH1mCFiTKq/Q73RY09JPduQEARAAARAAARAAgbUhsBbWRD/OlJ29qhfaLp2Ind21zZu/Nz8R+aOlH6VtOWFN+m1HqloHa9K2MxH1AQEQAAEQAAEQAIG1sCYy0BQREbmWuMnMEObm59vaGJmgaQ3aAmtS5RX6nQ5rWoOTC0WAAAiAAAiAAAiAwLIIrIU1VVfX5ObmMTR9rarW1tQ8xXNN2mwX5Lmmb3zjG3+FRYnAN77xjU2bNjk5OTHxDU5NTVlbW7/xxjdtbK6qOn2QDgIgAAIgAAIgAAIgIE9gLaxJvjysL53ARhhrYmFRQQDWtPQzBTlBAARAAARAAARAgGkCsCZ1s6UzTV99fP22JqlUOjs7+xyLagKLzt6+spEojDWpP++wFwRAAARAAARAAASUCcCaYE0ru/bGUbpKANak3A8iBQRAAARAAARAAATUE4A1wZp09eof9V4ZAViT+j4Re0EABEAABEAABEBAmQCsCda0smtvHKWrBGBNyv0gUkAABEAABEAABEBAPQFYE6xJV6/+Ue+VEYA1qe8TsRcEQAAEQAAEQAAElAnAmmBNK7v2xlG6SgDWpNwPIgUEQAAEQAAEQAAE1BOANcGadPXqH/VeGQFYk/o+EXtBAARAAARAAARAQJkArAnWtLJrbxylqwRgTcr9IFJAAARAAARAAARAQD0BWBOsaS2u/rlcbmlpaUhIiK2t7YEDBz5cq8XIyMj21XL//v21aKrWlwFrUt8nYi8IgAAIgAAIgAAIKBOANcGamL3M53K5ly5d+v73v8/SguXjjz+2tbXd4PoEa1LuB5ECAiAAAiAAAiAAAuoJwJpgTUxZk4IvvfHGG//5n/+5d+9eFxeXmJiYuDVZQkJCLC0tP/nkk7feeou2tg3uTrAm9X0i9oIACIAACIAACICAMgFYE6yJEWvy9fUl40vf+c53jh8/XlhYODg4yEhJSws6PT3d0tISFRX1/vvvE30yMDDYmINOsCblfhApIAACIAACIAACIKCeAKwJ1rQ07VhyLvkhpl/84hc5OTkzMzNLPprxjF1dXTY2Nv/yL//CYrE2pjjBmtT3idgLAiAAAiAAAiAAAsoEYE2wJg2LChll+va3v33q1KnW1lYNR9dQuLt37/7qV7/amOIEa1LuB5ECAiAAAiAAAiAAAuoJwJpgTRoSkfkweXl577777ne+8x1fX9/nz59rMrSmY7HZ7J07d25AcYI1qe8TsRcEQAAEQAAEQAAElAnAmmBNGtMRokwsFsvIyKitrU1jcRkLlJmZ+bOf/YzFYpmYmHR1dTFWjnYFhjUp94NIAQEQAAEQAAEQAAH1BGBNsCaNXdOfPXuWxWL98pe/LC4u1lhQJgNJJBJXV9fvfve7W7ZsiYuLY7IoLYoNa1LfJ2IvCIAACIAACIAACCgTgDXBmjRzQZ+bm/vuu+/+4z/+Y0hIyNzcnGaCMh+lpaXlyy+/3FDDTbAm5X4QKSAAAiAAAiAAAiCgnoDuWROH0+LtCC/JdAAAIABJREFU7fPgQYX6hunB3tDQ8K1bt+3Zs6exsZF5fVhtCT4+Pt///vcNDQ1bWlqWFUsikczJLVKpdGxsLDU1taKiQn2c2trakJDQJ0+eqs+26N6kpKR33nln4ww3wZr0oHNAE0AABEAABEAABNaYwHpa06NHj83NL+zff9DIyPjIEaNdu77cu3f/kSNGRkbGhoaH9+zZW1hYpIxjfHzCx8cvPDyiq6tHea8+peiWNZ05c4bFYtnY2IhEokVFRT5DVFTU/v37Dx48ePjwkZMnzYqLSyoqKmxsrjg5OcfExCYkJNIa9vz589HR0aFXS11d3Y0bN4KCgjs7O0na4ODg5OSkfPClrD948MDAwADWpE/nDtoCAiAAAiAAAiAAApolsJ7W9Phxpbe3T3FxKY/X3dLCvXnTITIyurm5taur5+nTZzdvOpaV3SOtFYnG09Iy3N09PTy8PT19zM0vnD17ztHR2cPD28PD++7dov5+oWa5aEM0HbKm3Nzcn//853/7t38bGBi4FFFRyNPS0hISEvro0SOZTDYwMODp6enh4VFcXBweHm5nZ/fgwQOSv76+/sqVq4cOGZqYHDMxOXb0qMmePXv37t139KgJ2Txw4EBMTAxFUQrx1W/yeLz9+/ezWCxHR0f1OfVjL8aatOHsRh1AAARAAARAAAR0i8A6W1NgYNDTp88oSiwSjfv6+hUXl46PT1CUuKenz83Ng7amwcFhDw9vV1f3+PjEhIQk+c+lS9YhIaGdnV26xX0ptdU5a9q2bVtqauoK1OLhw4exsbFcLlcqlSYlJfv7+1dWVlZVVbm6usbHJ7S2tnZ0dFAU1dDQEBER8fSpylvy7ty5k5ycvFxrmp6eNjc33ziPNsGalnL2IQ8IgAAIgAAIgAAIyBNYZ2tyd/dITEwqK7tXVnbv0iWr4ODQsrLy0tKy4uKS69dvyFuTj49/aek94lTyDYiPT4yPT4A1rcBVNHgIGWv6+OOP6XGhZQXPyspKTEwcGBgoLi6eH0HaY2FhcebMWTMzsytXrpiamrq4uHR1dc1bU2RaWlpJSUme0lJRUREYGJicfHu51iSTyTw8PN56660NMv84rEm+A8E6CIAACIAACIAACCyFwALW1NbWXje/CARM3fbW3t5RV1eXkpJibn7+wgULe/sbtrZ2hoaHT506bWd3zd7+xuXLV06eNKOtqamJ4+jovHRrIvHr6ur4fMFSKCw3T0cHjyDi8/uXe+xS8vN4L+I7ODhs2bJFJ2aDIFNBHDlyhMvlLsuXZDJZf7/A1dXt/PkLnp5e8fEJycm3o6NjOBxOUVFxYmJSb29fSkqKv79/V1eXVCqVSCSVlZWBgUE+Pr7u7u5mZmYXL1709vbx8fFNTEzs6OhYbukkf3Jy8o9//GMDA4Py8vKVRdChozRiTT09veQU6OrqXspPerl56PgM/UGkt7eP1J+h+BQl7uvjkyJ4vM7lNn8p+eXi85aSf7l5+Px+Uv+ODobiC0j89vaO5dZtKfn7+5mOLyT1b2trX0p9VpBHIBh4VUTbCg5f9BCh8GV8Lpeh+IOk/lwud9HKrCDDwMDL+K2trSs4fNFDBgeHSP1bWhiKP/wqfsuilVlZhqGhl0U0NzNSxNDQCGlCc3Pzymqo/qjh4VESn8PhqM+5sr10fDabkfgjIyJSfzabvbIaqj9qdPRl/KamJvU5V7Z3dHSM1J+h+ORGM1JEY2Pjyiqp/iiRaJzEb2hoUJ9ziXvX05pu377t4eFJ36Hn7e1bVFRCRpO6u3vd3Nxpa+JwWuZHHk7dvOmg8DE1PTE/H8Brd+jBmtb4Ip5Y09GjR9vb25dbdHn5/QMHDl67Zp+QkBgdHR0fH+/g4HD5so25+fnz58/b2dmZmp5wc3Oj30I7MTExMDAoFk9SFBUVFVVQULDcEpXzp6Sk/OQnP4E1LbHXmL+HFta0yEsL5KwG1rQAKz6faathOj6saYGvVb4PEQphTeoQDQ7CmtTxoSgxbTWwJvkzi16HNdEoVK3olTUlJSV5eXk/e1ZPUeKREZGnp3dKSppQOEhR4q6ubldXN9qa2Ozmc+fMHRwcU1PT0tLS5T92dtfCwyMU/mAMa1IWA0ZTVmxNQ0NDwcHBhoaHc3Nzq6qqEhOT4uPjIyMj79+/n5SUdPv27ebm5oiIyICAQNqaSkpKgoOD5/tQKjIyMjc3V/JqkUqlK2smrElVj6MqnR4LwliTKkSwJlVkSDqsST0fihJjrEk9Iow1qedDUWKMNalHRFsZxpoWBIWxJmUsC4w1KWdiKKWwsOjkyVP79x8wMjI+eNDw17/+9R/+8AdDw8NGRsb79u0/dMiQtqaGhkZPT++HDx8p16S+vrGpiTM0NKK8S9dTdGg2iBVbk0wma2houHnT4e7du8SaYmJioqOjORxOQUFBUlJyX1/fnTt3AgICiDVJpdKMjIyYmBiBQEBRVGBg4P79B8gceocOHUpISFjBzOMymQzWpOsnC+oPAiAAAiAAAiAAAowSWE9rSk6+ExkZxeG0DA2N9PX137rlkpWVLRQODg2NcLntt2650tZUXFzq7u5RXf2EURbaFlznrOnAgQMcDme5oz1k3ry7dwurqqqSk5NDQ0PNzE4dOHBw//4DX375laHh4V27djs4OBJrGh8fv3rV1tDQsLq6mqKoiIiInJycubk5iUSy4oEmmUwWHx//X//1X7hDT9tOAdQHBEAABEAABEAABLSEwHpak6end2RkdE9P36Izj/v5BXh4eLW0MPJEqZZ8E8rV0Dlr+vDDD+/du7cCa4qNjQsODklLS09MTPTy8k5KSh4eHi4sLEpKSuLz+fRsEDKZrLa21svL29TU1MfHp7W1NSoqWiPPNbm4uPzDP/wD5tBT/hEiBQRAAARAAARAAARAgKLE62ZN7e08R0fnkpIyMv2Dmvc19fbyr1+/kZWVIxKNb6jvTIesicw8/h//8R+3b99egTVFR8eYmZ26fNkmMDDQ3t7+zp2Uqamp4uLipKSk3t5e2pqGhoZ8ff2Cg0Pq6uo8PT3Nzc+fOXMmIyNDIpEst1D5/GKx+MyZM3hf04Y6udBYEAABEAABEAABEFgWgfWxpqGhYX//AHd3dzb75WyVItG4j49fUVFJcXFpWFiEh4fXmTPnSkvviUTjkZHR16/fePq0dlkN04PMOmRNXC53586d3/zmN/38/OSFZInrmZmZZJAqNzfXw8OzsbFJJpMVFhYmJCSkpqZeuXIlODiYz+ffvn3n2jX7Z8+eyWSyycnJkpISOzu7Y8eOGxkZk0ebTEyOWVlZV1ZWLbFckq21tfWrr75isViOjo7LOlBHM2tk5nE9OL/QBBAAARAAARAAARBYOoH1sSaKEpeXP2hoaBSJxkhdx8cnHj+ubGtrb2xsSk1Ni49PvHevnLxtqb6+kc3mDA+PLr1V+pFTh6xJJpOR4RpLS8uhoaEV60R3d3dfXx8ZO5JKpWKxuLGx8cGDB3w+XyqVCoUDAoFgdnZWPr5EIpmenhaLxdT88vz58+U+4FRWVvbhhx9u2bIlLi5OPrK+rsOa9KN/QCtAAARAAARAAATWksC6WdNaNlJHy9ItayLT6OnEO3kVdCguLm7btm0GBgb3799X2KWXm7AmHe0QUG0QAAEQAAEQAIF1JABrWuQla+v43eiWNXG53F27dm3atMnBwWF8fFxXfOPp06d//OMfN87teTKZDNa0jic1igYBEAABEAABENBRArAmWJPGBMfX1/f73//+T37yk+zsbI0FZTLQ+Pi4hYXFX//1X2+cgSZYk4721Kg2CIAACIAACIDA+hKANcGaNOYlZLiJxWLt3r27vr5eY3EZC0Re07ShBppgTevb4aJ0EAABEAABEAABHSUAa4I1aVJK8vLy3n333TfeeMPKympgYECToTUdq7q6+rPPPmOxWBtqoAnWpKM9NaoNAiAAAiAAAiCwvgRgTbAmDesIuU+PxWLt2LGjpqZGw9E1EW5ycjIqKurHP/7xBlQmWNP6drgoHQRAAARAAARAQEcJwJpgTZoQkddjkBEnFou1detWPz+/1cxF/npgDWzV1dUdOHDg7/7u7zamMsGadLSnRrVBAARAAARAAATWlwCsCdakARVRDkGLE4vF+vjjj/39/R8/fjw2Nqacc21S+vr6srOzr169+t///d+s+WWj3ZhHc8Yceuvb56J0EAABEAABEAABXSQAa4I10ZfTGl7Jy8uztbV99913iaWwWKxvfetb//u//3vs2LGrV6/arcliYWHx5z//+d/+7d/+6q/+iq7Gli1bbty40dXVpeEG60g4WJMu9tSoMwiAAAiAAAiAwPoSgDXBmpi92Fd2J9pe1nhly5YtH3744Ub2JfJNw5rWt89F6SAAAiAAAiAAArpIANYEa2LWmujoXC63tLQ0JCTEdm2XqKio0vllww4u0V8BrEkX+2jUGQRAAARAAARAQBsIwJpgTQoX1djUcwIYa9KGnhd1AAEQAAEQAAEQ0C0CsCZYk55LApqnQADWpFt9NGoLAiAAAiAAAiCgDQRgTbAmhYtqbOo5AViTNvS8qAMIgAAIgAAIgIBuEYA1wZr0XBLQPAUCsCbd6qNRWxAAARAAARAAAW0gAGuCNSlcVGNTzwnAmrSh50UdQAAEQAAEQAAEdIsArAnWpOeSgOYpEIA16VYfjdqCAAiAAAiAAAhoAwFYk7Zb0xdffHHr1i2X1xeSovzf13O92FLOIx/tltpFPpqqjEvJQ44lOVXFkc+z9JxLjKY+2wbc+7vf/e6NN75pY3NVG/og1AEEQAAEQAAEQAAEtJ8ArEnbrWmNXwWL4jYIAViT9vfOqCEIgAAIgAAIgID2EIA1aa81xcTEnj79NT5LIfCrX/1q06ZNP/3pT48eNVlKfuQ5ffrr1NQ07emJUBMQAAEQAAEQAAEQ0GYCsCbttSZt/t1oW91u3nT47ne/e+rUaR6vS9vqhvqAAAiAAAiAAAiAAAjoOgFYE6xJHwjAmnS9J0L9QQAEQAAEQAAEQECbCcCa9MEZtPkXtjZ1gzWtDWeUAgIgAAIgAAIgAAIbk8AC1tTW1l43vwgEQoagtLd3kCL6+wVMFEHH5/MZid/RwSP15/P7mag/j/cyfl8fn5n4naT+DMXv7Owi8Xt7+5ioPx2/p6eXxNe4NXV1dZMm0EVotiF0/O7uHs1GJtG6u3tI/RmK39PTS+J3dXUzUX86fmcnI7dc9vb2kfozFJ+ixH19fFIEj9fJBCK5+Dwm4vP5/aT+HR0MxReQ+O3tHUzUv7+f6fhCUv+2tnYm6k9RYoFg4FURbUwUIRS+jM/lMhR/kNSfy+UyUf+BgZfxW1tbmYg/ODhE6t/SwlD84VfxW5ioP0WJh4ZeFtHczEgRQ0MjpAnNzc1MNGF4eJTE53A4jMZnsxmJPzIiIvVns9lM1H909GX8pqYmZuKPkfozFJ+ixCLROCmisbGRiSbQ8RsaGjQSH9a0krEmWJP6Hx9tNcu1poyMzPfee++3v/1dcXGpmiLo+LTSwJoUcMGaFIAobMKaFIAob8KalJnIp/T3w5oW+ddTKIQ1qUM0OAhrUseHosSwJvk+R3kd1qTMRCEF1rTIOUZ4YaxJ4XejsMnjaelYU3p6xv/5Pz83MDAoKipRqLP8JqxJnsaC67CmBbHQibAmGoWqFViTKjIkHdakng9FiWFN6hHBmtTzgTUtygfWtCiitbCmRSuBDCDAEIElWpNy6Rofa1IuAikgAAIgAAIgAAIgAAIblsACd+htWBZo+LoTgDWt+1eACoAACIAACIAACIAACCgTgDUt6ZY/ZXBIYYIArIkJqogJAiAAAiAAAiAAAiCwSgKwJliTFhGANa3yfMbhIAACIAACIAACIAACTBCANWmRMzDxBetWTFiTbn1fqC0IgAAIgAAIgAAIbBACsCZYkxYRgDVtkH4HzQQBEAABEAABEAAB3SIAa9IiZ9Ctnw4TtYU1MUEVMUEABEAABEAABEAABFZJANYEa9IiArCmVZ7POBwEQAAEQAAEQAAEQIAJArAmLXIGJr5g3YoJa9Kt7wu1BQEQAAEQAAEQAIENQgDWBGvSIgKwpg3S76CZIAACIAACIAACIKBbBGBNWuQMjP50nj2rv3MntaSkrK+vn9GCFgw+MiJqauJwOC3Dw6MLZiCJsCY1cLALBEAABEAABEAABEBgvQjAmhixpvHxifHxCfKltrfz7O2v37rl0tLSurKv2d8/YNeu3QcOHDQxOXb8uKm3tw+H07KsUKmp6adPf21tfTk1Nb2rq2dZx2oks1A4aGV12c3NXSgcVBMQ1qQGDnaBAAiAAAiAAAiAAAisFwFYEyPWFBQUkpCQ1N8vpCjxyIgoPj4xISGxs7N7ZV+zs/MtKyvrx48rnz59lp2dc/GihaXlperqJ0uMNjw86u8f4ObmvlzXWmL8pWQTCgctLS85O7sIBANq8sOa1MDBLhAAARAAARAAARAAgfUiAGvSvDWNj08EBgYnJCQJBC+safUfZ+dbdnbX2OxmEqq0tMzKyjonJ3dsjFpK8L6+fisra1dX956evqXkZyIPrIkJqogJAiAAAiAAAiAAAiCwNgRgTUu1moaGpoCAwNOnz5w69XVaWgY9ZsLjdSUkJJ48abZ3734fH7+amqdeXj6ffvrZp59+dvDgoYiIqK6uHjc3D19ffzLWxOcLUlMzvv767JEjRh4eXk1NHPJNp6Skubl5ZGZme3h4GRoevnnToaGhiexSsKaKisenTp2Oj08Uicabm1uDg0NOnz5z8aJlRkYmn//imaWIiChXV/eUlNSrV6/euOFga3vtvfd+9ctf/mrnzl3p6Znj4xM1NU+uX79x4MBBS0vr8vIHIyMiihK3tfHc3T3DwyODgkIOHz6SmpoeEBDo6uqemppuZXX5+HHT2Ni4xkZ2cvIdU9MTFy9aPnpUSf9Ga2qeODvfOnHC7MYNh0ePKkdHxyhKPDw8evdu4blz5ocPHwkNDT150gxjTTQxrIAACIAACIAACIAACOgQAVjTkqypp6fP29vX29snMzPb29vX1NQ0JydvbIzq6em7dcvl5Emz0NBwsuvBgwoOp/nrr89cu2ZfWVnd19cvEo1fu3bd0dG5vZ0nEo2HhoadPGkWEBCUlpZhZWV97px5RcVjihJnZeUcP25qZHTU3z8wNjbu1KmvAwODu7t7KUosb01C4WBISOiZM2dLSso4nBZ7+xsODo5ZWTkxMXEXLlzMzMweG6P+cnPg8eOmJ0+e8vHxu3//wZMntWfOnL10yerhw4r+fmFxcYm5+XlHR6e0tAxXV/djx0xTU9NHRkRtbbxLl6y//HKPq6t7cvJtNpsTEhJiZGR09aptdHTMjRs3jY2PHjt23NPTKzn5zqVLVjdu3GxoaKQocWlpmaWllYeHV15egaent53dtYqKRxQlTk1NP3nylKure3p6hre3z+9//5mz8y3aNhc8SXCH3oJYkAgCIAACIAACIAACILC+BGBNS7Im+S+pu7vn3DnzwMBgoXDwzp3UU6e+zssrkL9ZrqOj88IFi6CgYHKH3vj4BG1NDx8+On/+Qnx8wsDAEEWJW1vbzMxOubl59Pbys7Jyzp41T0vLILPMBQYG29nZ19bWEWv64oudZmanz541NzY2OXjQMCnpzsDAUFRUjKurOxmSGhujIiOjIiKiOju7ExKSjIyMU1JSyZiP/B16AsGAq6u7m5sHl9tOUeKxMcrV1c3a+nJdXUNbG+/EiZOWllatrW2kvYGBwdbWl8kDVE1NbHPzCy4ubmQyifT0TAuLS3fvFg0MDHl6ekVGRpMWdXR0urp6pKVlzBvddX//wO7uF7cF9vcLL160xFiT/A8J6yAAAiAAAiAAAiAAArpCANa0VGvq7OzOzs69du36kSPG7733SxcXt56evpCQUBubKwoTM6ixprS0jLNnz929W0R+H3y+wNn5loODY1MTJysr58KFi/SusLDwK1euVlXVEGv6+uszERGRmZnZjx9X/v/svVdwI8mV9/tFrHbvxsY+7T4obsS+7vfy3dXduzIzkkYjjdHMSKOZnp723fRseu8BECRBBxIkCIIAvfcO9N7bpvckLOG9t0WsViup+w6ZvSWIBg2yye5mdzIqGIWqzJMn/1WZwK8y66RKpQHAQyRmf/nl79zc3H18fL29fe7evZ+RQWSxOC0tbRgMdm5uHpTiSE0sFtvfP6CkpBTMykMQe09P31G54wKBODw8sqSkDLAWgthLS8vx+OT19U0EsbNYnMREfENDI8g4OjoWHR3b3z/I5fIeP/b75S8/8vT08vHx9fT0evDgYUtL29TUTGhoWEtLK/ABvtd0XXoE6CdUACoAFYAKQAWgAlABqMBJBSA1uURNLBYnKSk5P7+AzeaoVGo6vai+vlEuV5aXV2Aw2JWVVUdlnVBTb29feHjEyMgYSC+XK7OySNnZORwOzzk1OUaDAHlttgMyOS8jI3NtbUMsloJNoVCZTBYn1MTl7gcEBJWUlJrNh+8ygXl0GAxuamrmYtS0vy8ID48kkXJ4PD7qhk5nmJ9fCAkJbW5uAaVAagI6wP9QAagAVAAqABWACkAFoALXUQFITS5RU3NzKw6XCF7XkckUOTm5NTW1crmyv38wLCyis7PbYDCBIOMWi00qleXkkMvLK0D4B8cZeuvrmwkJ2IaGJrBs0dbWTmRkVF1dvV5vPC81IYi9ra0dg8FOTk5bLDbHm88JNel0hry8/MzMwyEpBLHrdIacHDKRmMXl8i5GTXq9kUqlZWRkMplsRx9YLA4Wi6PRCkHgPpFIEhYWAd9rcpQI7kMFoAJQAagAVAAqABWAClwXBSA1uURNY2MTISGhqanplZXVsbHxt27dKS+vlMuVSqUmL4/y6JEbgZBKJlOiomIGB4fNZmtVVXVAQGBuLnloaEQikaHvNVmtSGNjk7e3T2IinkzOCwgITE1N3909jKlwAWoSCsVZWSRfX9/c3LyKiqro6Ji+vgEEsTuhJgSxr61tYDDYiIhICiU/IiLSx8cXTAu8GDUhiH11dT0hARsWFl5RUVlaWpaWlj4zM4sg9qam5jt37kVFxeTnFyQkYD7++JOcHDKMBnFdugboJ1QAKgAVgApABaACUAGoAKoApCaXqMlisc3NPcnLoxQU0FZW1ioqqhiMTvB+kU5nmJiYyskhZ2YSBweHlcrD2N9qtba7u4dIzK6vb+TzRXV19c3NLWDUxWy2rqys0emF6ekZAwODwAiC2IeHR3JyyGg479rautzcvN3dw+DjnZ3dlZVVXO4+etnQHb3eOD4+kZ1NyszMGh0dB0zS3t6RlUVC37bS6401NbUtLa3ANwSxSySy1tb2tLT0ysoqdOlbsVhaWVk9Pj6JRrZoaGiiUp/HRhcKJYWFxf39A+Ctp4mJqaws0uzs81enZDJFR0dnWlp6fn7Bd4HRwcibwWCamZkjkylkMmV6eqaurr6/fwDEukD9P7YDY+gdEwR+hApABaACUAGoAFQAKgAVeBMUgNTkEjW9CZfqXfABUtO7cJVhHaECUAGoAFQAKgAVgApcOwUgNUFqeoMUgNR07XoQ6DBUACoAFYAKQAWgAlCBd0EBSE1vEDO8Czec8zpCanKuDzwLFYAKQAWgAlABqABUACrwWhSA1ASp6Q1SAFLTa+kFYKFQAagAVAAqABWACkAFoALOFYDU9AYxg/NL9S6chdT0LlxlWEeoAFQAKgAVgApABaAC104BSE2Qmt4gBSA1XbseBDoMFYAKQAWgAlABqABU4F1QAFLTG8QM78IN57yOkJqc6wPPQgWgAlABqABUACoAFYAKvBYFIDVBanqDFIDU9Fp6AVgoVAAqABWACkAFoAJQAaiAcwVOoSaBQLhz9KfRaJ1nvvBZoVAEilCrNRc24iQjah9dQ9ZJ4gucEonEwH+V6nBN20vfxOLn9pVK1aUbRxC7WCwB/l+RfYlECuwrFMpz+e8iNaH25XIFsJ+ZSfznf/7n0NAwsVh6rhLPSiyVykAV0CLOSnmx46h9mUx+MQvOc8lkcuD/FdmXyxXAvlQqc+7Jxc6i9iWSy7mgx9xQKJTA/yuyjyB2pVIFihCLJcdKv5SPDvbFl2LwmBGVSg38F4muyL4G2BcKRceKvpSPavVV29cC/wUC4aU4fNKIRqP7nyIEJ8++/BGt9rl9Pv+K7OuB/3w+/+W9PWlBp3tuf3//lCXgT6Y/7xG93gD85/GuyL7xf+zzzuubi+kNhudFcLlXUoTBYAJV4HK5Lrp0rmRGoxnY53A458roYmLUPpt9JfZNJgvwn81mu+jSuZKZzc/ts1isc2V0MbHZbAX+X5F9BLFbLDZQBJPJdNGrcyVD7e/t7Z0r41mJITWdg3k4HN7o6Nj+Pv/doabZ2bmpqWm1+nz8jFINpKazGh6kprOUAcchNTnX56+p7IqoBlKTs28HtRpSkzN9EMSu1UJqciaRXg+pyZk+CGJHqQZS06nfCJCaTpXF8SCkphe0MSDWFY011dbWNzQ0SqXyl6GmvT1mUlJya2u7wWByvLSO+07GmjQaXXZ2zr17D7y9fXx8fH18fAMCAsfHJxyzv3Df9bGm5eWVoqLiJ08WX2jTMQGkJkc1Tt2H1HSqLOhBSE2oFGftwLGms5QBx+FYk3N9jqgGjjU5+0UBx5peeAvBsSbnEsGxJuf6vCVjTS+s5LuZgMfjU6nU6emZ81ZfrzeWlpaPjU3YbAcIYmezuRQKta9vQK83ntcUgtjlcmV4eERsbNzk5PTKytrKytra2oZcfr6JcE7KtVhsNTV1fX0DFosNQexms7W8vLK1tf1i3jop6NRTLs7QO5n30mfonSwCHoEKQAWgAlABqABUACoAFXhnFThlht47q4Xzind0dBUWFjOZ5548qlSqCwroIyNjgJqcl/LCs0fUFEml0rRa/QsTXyCrwG59AAAgAElEQVSBwWAqK6vo6ekD1IQg9p6eXhqNvr29ewFr580Cqem8isH0UAGoAFQAKgAVgApABaACr0ABSE3OBugdL0BRUQmD0anTHQ4Q2WwHTCaruLgkLCwiLS1jc3MbTSmTKdra2mNi4rBY3PDwyPT0DIGQevPmrVu37jx48Ki/f1Aikebmknt7+8xmKxg76urqiY/HxMbGd3X1KhTPwz9QqbSysoonTxbz8wtiY+Pb2zvAgNKp1KTV6ikUakVFJTro1NfXHx+fMD4+iSB2JpNdUEAPD48oKSnlcvdttgOLxUanF7a3dywuLmdmEjEY7NDQiFarZzJZJFLOrVt3vv32lpubO4PRaTSad3eZeXmU0dExtI5XtwOp6eq0hZahAlABqABUACoAFYAKQAUurACkJpeoSaXSZGeTurp6TCYLgthnZ58kJaWQSLn19Y0YDC4uLmF5eRXMvktOJgQFBRcWFtPpRWQyZXx8anh4NCQklEymzMzMSSQymUweHBxSUlJmNJplMgWZnBccHFJYWFxcXBIQEESj0UHEqtLS8oCAoKioGAqFmpFB9PV93Nc3YLUiYIZeeHhEa2tbZ2dXV1c3k8myWpHGxub09My1tQ0EsZtMlsLC4sLCIqFQPDs7Fx+fkJmZ1dranpxMyMzM3tlhWiw2CiXfy8s7MRFPpxdisYl+fv6jo2MqlWZ6ejYsLDwtLWNyclokkthsB3K5ikKhdnR0oqNPF77bXpgRUtMLJYIJoAJQAagAVAAqABWACkAFXr0CkJpcoialUk2nFw0ODgNqstkO0Ol2q6vrUVHRvb39CGKvqamNj49fWHgeOwGkWV/fxGJxAwOD4Oo6UlNXV09MTOzIyCgAkuHhsZCQ0O7uHqsVodEKY2PjFxeXrVZErdZmZGQWFNAkEplcrgwNDf/Nb37r5+fv7x8QGBg0ODhoNluWllYwGGx3d6/ViuzuMpOTU1pb2yQSGZmcV1/fAKbz8Xj7JFLu4OCwxWJLTiYkJaXs7x8GnP2Ou6KiYqqqaoxG894eC4dLamlpQxlJLlfgcImVlVVgcOxy71GhULy2toFudHrhv/3bD95///2qqhr04NrahlT6gvDc8L2my70u0BpUACoAFYAKQAWgAlABqICjApCaXKImmUxBo9EnJ6dR7ZRKzejoeGYmMTAw6Ntvb3d395pMluRkAomUc2x5EyfUVFRUkpSUjE7w293dCw0Np9EKFQoVnV6UnJyyvb2DIHarFUlLyyASs4RCEZihR6FQNRod6szR+JKZTi+srq5RKtVdXd0ZGcSlpZXdXaa3t+/XX9+IiIiKiooJCwv38vLq7j4cMSMQUonELLC6kVyuCA+PKCigGwymk9QklcpxOHxVVfVVUBOXu3/v3v3/5fQvJCRUKHxBbGVITY43A9yHCkAFoAJQAagAVAAqABW4XAUgNblETUqlOj+/oK9vEIw1ra6u43CJhYXFW1s7GxtbWVnZIyNjRqM5OZmQnZ1z7Ce+c2pKTiZsbR2iEYLY9/aY4eERNBr9DGrKFgrFp77XBLK3tranpqYtLi6XlVXU1NQpFKqdnb2wsIjc3Ly1tY2Nja2jbVsuV1osNtepSS5XYLG4iorKq6AmBLG3tLT9+7//+1nc9POf/3xwcPiFNz2kphdKBBNABaACUAGoAFQAKgAVgApcWAFITS5Rk1qtPVpkqdVsPnyviUTKyc4m7e8frne+vb2blpYxPDxqtSJUKi0yMmp5eQVcDzBDb2NjKzmZ0NvbD6jDcYZeZ2dnTEzM6OiY1YogiH1sbCI0NLyrq+coWsPJsaYXUBOHw8vMzCoqKiGRcoeHRxHErlJpcnLIFApVIBA53iJOqInN5hCJhy9BoaHGZTJFSUnpwMAgOmfP0dTL7+v1xsjIyL//+78/CU7/8A//QCRmOVnYCi0dUhMqBdyBCkAFoAJQAagAVAAqABW4dAUgNblETQhiLyoqaWlpA/PiyssrgoNDy8oqWlraUlJSPDw8BgYGrVZke3sXi00MCwsvK6soK6tMTibMzMwZjab8fGpKCqGxsXl3lykWS9FoEBKJjETKDQ0NKy0tr6ioCg4OKSiggaGq02boodQUER4e2dzc2tbGaGtjMBgdLBYHQex6vZFKLQgMDMrLo6DjVxMTk5GRUSkphIGBQQajs6ysYmNjywk1Wa1IWVk5Fourra3f2Ng0Gs2bm1v5+dSJialLv/lQg6Oj4x9++OFJavrqq69cXGAXUhMqJtyBCkAFoAJQAagAVAAqABW4dAUgNblKTb29/UVFxbu7TASxSySyhoam6OiYnJzc2dm5zMys3t5+MF4kFIqrq2vDwyOw2MShoRG1Wosg9qPg3fnR0bEDA0P7+3zHyONSqZzB6DyKPB7X2dmFhg6nUmmpqel7e4fLQ4HgEKWl5VKpXKvVU6k0Nzd3T09vsD18+Ki3tx+Ma42OTkRGRldWVslkCvRe4XC4RUXFISGhycmE0dFxtVpjsdgKC4srK6uVSvVR9HMFhZLf0dEJRtK43P2iopKoqJjW1naFQsVgdNLpRUwmGzV4FTvZ2aTvf//7juD0L//yL1VV1S6WBanJRaFgMqgAVAAqABWACkAFoAJQgQsoAKnJVWoSiSR0On16euYCKl/fLAaDqby8ksHodGWa3MtUc31946uvvnKkJk9PTwCNrpiF1OSKSjANVAAqABWACkAFoAJQAajAxRSA1OQqNSGIvbGxqaamXiSSXEzr65hrbu5JUVEpWI3qqv0vL6/813/93wCcfvCDHzAYna6XCKnJda1gSqgAVAAqABWACkAFoAJQgfMqAKnpHNTE5e4vLi69cO2g816DNzn91tbO8vKqSqV5BU6KRBI3N3dATVFR0Y6TDF9YOqSmF0oEE0AFoAJQAagAVAAqABWAClxYAUhN56CmC6sMM7qoQEdH149+9KNf/vJXo6PjLmYBySA1nUsumBgqABWAClw7BdDF5Z147kqaoxUOLRwOb3l59WIrathsB1YrAjYXS3TiMzwFFYAKXBcFIDVBanqDFLBYbFgsLj+fet4o55CarkuPA/2ECkAFoAKuK2C1Ilwuj0LJ9/b29fX1y8nJPTU0kUymaGpqDg0N9/T05nL3T7VvtSJgxUUQcra1te3+/Yc6neHUxE4OslicwMDgTz751Nvbx83N/e7deyUlZQqFykmWKz1lsx2YzVa0apdVls12YDSaL8satAMVeDsUgNT0BjHD23FLvWQtVlfXdnb2zmsEUtN5FYPpoQJQAajAm68Aj8fPzMxKTU1bWVkbGRnD45OTkwlosFnUfx5vn0zOCw0Nv3Hj5qlYZTZbp6dnU1PTwdCQXm9saWm9c+eeVnsRaoqLS8jLowiF4s3N7f7+wZCQsPT0TNSZV7wjkylqampLS8svt9zdXWZ8PAastnK5lqE1qMD1VQBSE6Smt0EBSE3Xtw+CnkMFoAJQgbMUMJksMpkCvFtrsx1MTEw9fOh2anhVm+1gfHzi5s1bjtQExmHA4NLQ0Eh6eiaYyPCS1JSQgC0pKQM+a7X6zs6uiIhIx3LPqs5VHJdIZMXFpeXllZdo3GpFNja2EhKwYHmSS7QMTUEFrrUCkJreBma41rfgpTgPqelSZIRGoAJQAajAG6uAzXYwNTXz4MHD7e3dk06epCYOh5eQgI2PxwgEoqKiohs3vvngg188euRGIKSq1drW1rZvvvl2ZGQ8PDzi1q3bdHoRGvdIIpEdrWUfEhoaVlZWIZMpHYtjsTiO1KTR6JqaWh4/9mcyORaLbWdnLyMj088vID4eMzw8ChZy1OkM4+MTkZFR3357OyUltampOSEBY7UiAoGIRMohk8nAPpPJjotLYDA6wDqNHA6XRMrx8wuIjo7p6ek1m6022wGfL8zLowQFBUdGRjU2Nm9ubvv6Pv7ii99+9tnn7u4eQUHBXV09Hh5ePj6+6BYREdnXN2AyWVZX1zMziX5+/vfuPfjoo0/8/AKqqmrMZuvW1k5qavqRzwmjo+Narb6vb+D27bvvv//Thw8f4XCJAoGYyeQQiVmBgUHR0bHt7R2gXo6ywH2owLugAKQmSE1vgwKQmt6F3grWESoAFXiXFVCpNM3NrXFx8Xy+8KQOJ6lJJJLQaIUkUq7FYhMIRMXFJRERUUwmW63W6vXG5uaWf//3/w+DwQ0NjTQ2NgcEBNXV1SOIXSgUk8l5MTGxU1PT/f0DBEJqQQHNsTgWixMfjyksLLZaEa1Wv7GxGR8fn5KSarUiLBY7Li4+N5c8OzvX3s6IjY0bG5uwWpGlpWVPT6/s7JyJianW1nZPTy9PTy+rFRGJxDk5uQRCGrDPZnPx+GRATVzufmJiYkZG5uzsXFdXd0JCQl9fv0ymKC4ujY6OnZ9/Mjw8Ul1dx+Xur69v4nD4/PwCsViqVKqtVsRgMDluRqPZYrGxWJzQ0DAqlcbl7nd39/r6Ph4YGDKZLGw2NzIyOi+PMjs7x2B0REREzczMaTS6tjbGgwcPQRBdsVialUXCYHDz80+GhoZLS8tQwnRUBu5DBd56BSA1vQ3M8Nbfpi+sIKSmF0oEE0AFoAJQgWutwM7OXkICtqqq5tRanKQmx2QymbysrDw5OcXxvaabN78VicQIYheJJGQyJT7+cPxncXE5JiZOLJYiiN1gMI2MjOLxSXq9EbV2hB/ht27d8fHxvXXr9k9+8h4Gg+Ny99VqbVtbe3IyARShVKrr6xuTkwlCoTgrKzsuLh5EnlCrtTU1tc6pSacz9PUN4HCJYD7h0chYOx6fLBZLSKSc+PgEx+ATPB4/OZlQUeFshp7FYpuYmPr66xv7+3xAhllZ2WVlFSqVprGxGY9PBrVTqTS1tfU4HF6r1be3Mx4/9tNq9Qhi5/OFOFxiVhbJYPiLDqggcAcq8O4oAKkJUtPboACkpnenz4I1hQpABd5BBcRiaWFhcWIi/qwlEy9ATWg0CJlMUVhYFBYWDsag/u3ffuDm5ubj43sUJc8jNvY5RAHZWSxObGx8Tg6ZzeaWlZXfvn0XIJZIJElNTfvpT3/m5eXt4+Pr5eX98OHD5GQCm81NSMDm5xeA7K5Qk0ymyMnJ/Y//+KGnJ2rKDY/HG43mpaWV0NAwT08vGo0OZio6UpPRaAIBKvr6BtBtZGSMxeLs7bFCQ8MrKqqUStX09GxYWPjU1LRYLE1JIXzwwYdeXj6oz4mJSceoyWSyPHmy6Ofn7+PjW1pavrfHfgfvQFhlqACC2CE1vQ3MAG9lSE3wHoAKQAWgAm+rAgqFqqamNjQ0fHNz66w6Xgo1GQymzs7ub7+9zWJxtFod2BwHmhDE7vhe094eKzIyCkzhk0hkeXn54eERCoUKzavTGdhsbnx8Avry0l9Tk4REyk1JSQWVQmfoyeXKwsIib28fqVTuaAoks1hsTCY7Kys7ODhkcXHZkZp0OsPU1AyFQs3Pp6FbSUn57Oy8Vns46e7WrTsBAYHx8QlDQyMIYpdIZDk5udHRMWq11qEg/TFqAuUajeb19c2UFEJgYNAFQt2edeHgcajANVIAUhOkprdBAUhN16jTga5CBaACUAHXFTia6tYQFBSysLCE5rLZDqRS+dLSCrq430lqMpksPN7+7u7hUhZyubK6uiYxEQ/mth2LoYeONdlsB9+9yePvH9DR0XnW8rWO1KTTGXp7+wMDQ5aWVnU6Q1dXT0hI2M7OXwWrkEhkFAo1MjIaRJWQy5U0Gh3M0AOgFRQUrFZrjUbz2NiEn58/g9FhMJiGhoYDAoKWl1fRKiOI3Wy2ymQKMNOPx+MnJaWUlpYLheKcHDKNVuiY8uQ+k8nGYHBMJsfxlFar7+joCgoKOXb8aIpgf2RkFAhXaDZbxWKZwWBCEDuHwwsLi6ivb3K0A/ehAu+IApCa3gZmeEduVifVhNTkRBx4CioAFYAKXFMFFAoVnV74ySefUqkFJSXlVCq9oIDe0dElFEqSkwmffvrrhYUlrVY/OztfVVWdlJT88ceflpdXtLa27ezsMZnsoKBgPz9/vd5gtSILC0teXt6pqWktLW0KhdJxvSaUmhDErlKpGxoaHzx4mJSUXFpahscnZWWRHNVzpCYEse/vCwiE1MTEJIlEJhCI0tMz3dw8yGQKjUbH4fCDgyNWK7K8vHrr1m1f38ckUm5sbLynpzegJp3O0NbG+OCDX0RHxyYlJXt7+6Ix9CQSaV4exc3NPScnt6jocGpiezuDzeaGh0fExcXX1NQRidkBAUGrq+tqtba5ucXNzYNCoVZVVTu66rjPZLI9PLxCQg6jAtbU1DIYnVtb2yAiRUoK4dEj97y8fBqNjsFgx8cnEMTOZnP9/Pzj4uLq6xtHRsYCA4NwOHxtbX1aWnpgYDCPd/pSwo4lwn2owNunAKQmSE1vgwKQmt6+vgnWCCoAFYAKCIXi8vJKIjEb3TIyiJWV1QaD6cmTxYaGxqOpZfqxsQk0AZGYXVxcsr29q1JphodH+voGgIxarX5qaqawsKijo0upVC0sLNbW1plMFgSxK5Xq3t7+1tZ2kBJMgSsrK6dSaUNDI8dCIIhEkvLyirY2BkhsMllWVtYKCmjr6xsIYtdq9RMTU1Qqrbi4ZHZ2Hti3WhEej19VVVNUVDw8PNrY2AyoCUHsR3PqZun04q6uHi53v62NMT09Ayzr9cb5+YWCAlphYdH09IzRaLZaEalU3t3dS6UWNDe3CIUikFKpVDMYnQUFtMHBYXDk5H+pVF5YWBQXl0AkZmdkEOPiEh4/9uvq6gY+j45OoD4bjWYEsZtM1q2t3ZKSsurqWg6HJ5FIW1paqdSCtrZ2x1gUJwuCR6ACb7ECkJreBmZ4i29QF6sGqclFoWAyqABUACoAFXiNCji+1/TK3DAYTKOj44mJSeiqtUKhmEjMLi+veGU+wIKgAm+BApCaIDW9DQpAanoLOiNYBagAVAAq8NYr8FqoyWKxPXmy6O7uWVfXsLGxPTMzRyRmx8TEnbpe8Ft/CWAFoQIXVgBS09vADBe+/G9NRkhNb82lhBWBCkAFoAJvsQIaja63t59GKzwr2sQV1d1ise3tsWi0wqSkZDI5b3BwCK5Ue0VSQ7NvsQKQmiA1vQ0KQGp6izspWDWoAFQAKgAVgApABaACr12BU6hJIBDuHP1pNNor8k8oFIEi1GrNVRSB2r+iRykikRj4r1Kpr8J/sfi5faVSdTX2JcD/K7IvkUiBfYVCeRX+o/blcgWwf+nUJJXKQBXQIi63Iqh9mUx+uZaBNZlMDvy/IvtyuQLYl0plV+E/al8ikV6FfYVCCfy/IvtH75erQBFiseQqqqBUovbFV2FfpVID/0WiK7KvAfbRN9ovtxZq9VXb1wL/BQLh5XqOWtNodP9ThAA9eIk7Wu1z+3z+FdnXA//5fP4luo2a0ume29/fv5J4bnq9Afh/RfHi9Hrj/9jnoZW63B2D4XkRXO6VFGEwmEAVuFzu5XoOrBmNZmCfw/mrgOmXVRZqn82+EvsmkwX4z2ZfybrAZvNz+ywW67I0cbRjNluB/1dkH0HsFosNFMFkMh2Lvqx91P7e3uEKBC+/QWq6iIiQmpzfeSjVQGo6SyhITWcpA45DanKuz19T2RVRDaQmZ98OajWkJmf6gMhs4PcQpKZTmzOkplNlcTyIUg2kJkdZ0H1ITagUZ+1AanpBNw2Eg2NNZ91A4LhYDMeaXnAjoVQDx5pOvZdQqoFjTafq89dUA8eaTmluKtVVjwW9wP709Iynp9eFt0ePHn179Hf37r0LG3Ge8dEjt/8p4q7zlBc7++bYz8wkHovufVazcjwOx5oc1Th1H441nSoLehClMjabYzZbudz9y92YTNbY0d/U1NTlWgbWmEz2ldpnsZ7bn5ycvAr/udx9FosDqnCsiP39yxkAfxXUhN5PcAcqcF0UuPQZetel4tBPqABU4GIKVFfX/C/492Yo8Ktf/eoC1HSx6w5zQQVOVUCj0ebnU9+MBvGue/G3f/u3X39949TL9NoPnjJD77X7BB14xQoYjWatVn+tNwKB8E//9E+BgUEcDvdaV0Sr1YNVEV/xPQCLgwq8awoAavrxj39cBv9enwJRUVF/93d/B6npXWt9b2B9ATV973vf+7/h32tV4Pvf/z6kplOmZ7yBbeaddWlu7sknn3zyrj/ceDPq/6//+r9rauqO3YoymWJxcXl8fHJ5eUUuv5IAG8dKfDUfbbYDNps7ODjc3z8ItoGBoe3tXasVOZcDU1PTNBp9fX3zXLlemNhstrLZ3JWVtYsFlZFIZFNTM6BeQ0MjKyvrKtVVxdd5YV1ggpMKAGq6d+/e06dPn8G/16TA2NiYK9RkNlvX1zfb2tpPXscrPWI2WwUC0e4u02y2XmlB0PhrVwBQ0z/+4z/6+/u/ptYAi332hz/8gcFgQGqC1PRGKwCo6Xvf+97/Bf9eqwJ/8zd/c5KadneZmZlEf//AgIDAu3fvkkg5PN6VBKS63C+tzc3tqakZ57xhNlvp9MLf/e4rDAaTfPSHxyd1d/dYLLZzOdPV1R0bGzs9PXuuXC9MvL8vSEvLCA+P3NzcfmHikwlmZ+e9vX3v33+YmpoeHh55587d2Ni4+fknJ1O+miNyuXJ2dm5tbf3VFPfmlwKp6U34jeYiNbHZnLy8/JGRsau4r3Q6Q3//QHh4xOzs/DH7er2xrY3h5uZhMJiOnXpjP4pE4uxsUlZWNuohujCUXK4sKSmNjY2DEIiKg+5AanoTOgRITW80LaCt5R3fAdT0H//xH8PDw29Cs3k3fWCz2Xfv3j1JTePjk42NTXz+YXTj6ekZLBbX0dGFfgu+sbduR0dXfn6BQCBy4iGgpqio6JeMintF1GS1Iny+kMO5YMTe2dn5hARsS0sbUIDD4WZnk3Jz8xSKK1lOwInO4BSbzS0tLWMwOl6Y8h1JAKnpTehpXaEmqxV58mQhKSlZLr+StmO1IhsbW1lZpNXV488U9HpjS0vr3bt39XrDdWkXEomsqKi4pKQUQex6vXF4eCwjgwicV6k0LS1tVCrtvOP5b0LdtVp9Z2d3Xl6+c2fEYklqavrQ0IjzZCfPQmp6EzoESE2Qmq6BApCa3oTO4ixqcuzcxWJpYmJSXh7FakUkEtnExNTW1o5jAgSxKxRKNpujVKpFIsnW1g74jS6XK9fXN1ZX16XSv1oeSiKRra6ub23tcDg8NpsDpv9JpfLdXaZS+XwtMrFYKhSKUU5TKFQbG5urq2ti8V9WUlIoVJub26urG0Kh2Gy2SqXyoqLilBTC2NjE5uY2m81dX99cWFhCt8XF5Z2dPblcSacXRkVFn2s5FKPRvL8vAG4Dh4+oKW5iYlIoFK2vbwkEIsfRKrlcuba2vra2LpE8X1pKo9GxWByxWCqXKzc3d0Siwxh3R/XaWlxcXlhYXFhYYjLZer1RLJbu7jI1Gp3RaObzhUKhWKVSb25ura9vOC6EdRSEem95eQXkXV09LGt2dh6DwbW2Pp9TZDJZamrqoqNjWKzDhTtMJsv+vmB5eZXL3Xf0Vq3Wbm3trK6uM5nsvT02ny+02Q7Uau3eHgv4eRSdT727y0QvpcViE4kkKytrbDbHZDKD+8FksvD5QqCSTKZQqTRjYxNEYlZBAX1tbQM1dezmeac+Qmp6E/o9V6hJLJZWVdVUV9e8+vvzOlKTo0oaja6zsysz8zk1OZ66dvsqlaauruGF1CQUihMTkyA1vQmt+wI+QGq6Bsxw7fqOS3cYUtMF2valZ3GFmng8fkoKoaSk1GpFhodHHz58RKXSjkWPGBkZJZPzMjMzHz58mJSUvLvLnJ2di49PCAoKCQ0Nj4/HgJlsRqO5s7Pb19fv5s1v79y5Fx4ekZJCGB09nADT2tqenJyyvr6BIHaDwdTU1FJTU6vTHT5qXVxcwmCwAQGBoaFh0dExIyNjNtvB7u4ekZgdEBAUFhYRFhbJYHR2dfV88cVvP/ro46ioqLKy8tbWtqwsUnIyAd1wOHx9faNEIqPTCyMiIlksjtWKWK0IymZn3eQCgbCggPbll7/71a8+vnnz2/z8ApFIAsaaUlIIDx48+uijj2/fvtPd3YsgdrVa29LSFhgYFBwc7OXlHREROT09gyB2kUhcVVWdlJSCxeK8vb1bWlrX1tZTU9MiIiL9/f1//evP3Nzca2vr9vf5RUXFkZHRYrEEfGHjcPjMzKxvvvn288+/SEpK3t7eRRC7VCovLS338fGNiIj8+usbn376GQ6HHxoaOUZNQqGYQsknENIFArFQKC4sLPL29gkLCw8MDKJSCwCC7uwwU1PTf/e7r7788nchIWEBAUFpaelms3V7ezc1Na2oqATIMj//JCODODIyflS6rKKi0sfHNzQ03N8/kETK5fNFJpOlu7vv6GBYYGBwZmZWU1NLSEjYl1/+7ttvb8fExNbXN5yl8LtzHFLTpXdiFzDoCjWxWGwKJX92dg7cnHq9cXFxKSsr293dE4dLXF5eBY19cHA4MREfFBRCpdLAIxKtVt/T05ecnDIyMhYREZWYmHTW7b26uh4cHLqxcfhupNls3dzcTk/P9Pb2JZMpTU3Np441abX64eGxqKiYx4/9iotLRSKJ2Wzd22OVlpaHhoaHhoZ3dfWA4ra3dyMjo7q6umtr6yMios6aZ6hUqpubWzMzid8liImJ9fcPaGhoRB9OabX6gYHBoz4qsLKyChy32Q4kEllNTW1ERBQGgx0cHLZaEYFAlJ6ekZOTIxJJiMSs27dvf/bZ548eucfFxatUmsbGZhwOjyo5MTGdkID18XlcUEDb23u+EuvOzl5EROTeHquoqMTX1y8zM8v5kLvRaF5aWiUSs93cPDAY7MrK4RUBDmOxiYGBwQUFBWC2tkajYzA609IyxsenIiIik5JSzroiGo2utbU9Kio6Ojqms7Nrf1+AwWC//fbWb37z20eP3ENCwoxG8/LyKo1WGBQUEhQUMjw8iiD2/WuniUoAACAASURBVH2Br+/jzz77/NtvbwcHh9TWNgCJSkvLg4KCcTj8/Pzi2SUextCD7zVdoBVfYhZITZCaroECkJousc1f2NQLqclmO+jp6YuPx4yOHv5cFoul09Oze3vHVwQfGRn19vZJTMTv7OzabAd7e6zs7Jza2nq93mgyWVpb26lU2v6+YHZ2Pi4uvri4RCaTa7X6mpq6sLAI59TE4/HJZEpZWYVGozObrZ2d3bm5eXt7rObmVjw+eXNzy2Kx8flCPl+o1erz8vLj4xOcv4IFZuj98Ic/+vDDX3388Scff/xJZiZRJlOc9a1mNJobG5ujo2Onp2es1gM+X8hmc61WpLOz686du9nZOQKBiM8X5OdTs7Ky+XyhXm/c2Nja2to5+iUhzMwkZmWRTCaLSCROSkq+efPW8PAIGKih0wtJpFyxWHo0IlSblJQiEIjNZosjNRGJWTdufDM8PGo0mmdmZrFYbHs7w2Y7GBoaxuOTAIvOzMylpBB6e/sRxD47Ox8VFUOhUJ88Wezp6cvIIAYFhXR395pMlo6OzpSUlI2NTZvtYGNjKzc3j8HoVKnUVVXVWCxufX3DakVYLE5CAhaPT3JCTRaLra9vAIfDLy4ugWtNpdKam1t3dvaIxKzKyqqjMUkph3Oo0srKWnp6Jpyhh95dkJou3FldYkZXqGltbQOHS9zaOny90Gy2Tk/Penn5JCUld3R0VlRU0Wh0jUb3Xa8YExPX2tpeX98QERGVmppqsdi0Wn1LS9uXX36FxeJqamrHxibQq39sZ2Fh6eFDt4WFw3a0tbUTHBwSGxvf1tZeXl7h4eF5kprkckVpaZm7u2dJSWlra1thYdH4+ASPx09Pz8zKyu7q6i4tLQsMDOrp6UMQO5PJDg0NDw4OSUxM6u7u5fNPX4hGpdJUV9f+7ndfJSWldHR00umFt27dLioqBiPhlZXVnp7eNTW1DQ2NERFR0dExMplCoVCWl1eEhIQNDAy1trbn5+dzODyRSJKVlY3HJ5tMlvX1TRIpJyoqemVljcvdV6u11dW17u6eViui0+m7uro9Pb1KSspaW9vx+OTAwGAATtvbOzdufBMeHkGnF1ZX1wYFheDxyWc90jIazdPT056ensnJKZ2d3TU1tXR6oU5n+G60JyYmtr2d0djYHBoaTiCkIYhdo9E1NbXcuPFNTExsU1PL5OTUsQsBPmq1+rY2hp+ff1/fwNFkb+rq6try8kpaWnpiYuL6+iaHwxMIhFFRUVQqraent6KiytfXb27uicFg6usb+Oabm42NzUwmWy5XSiRSHA6HwWD6+gbq6xuCgkLm5k5/uRTO0LvEdn1hU5CargEznNpo36mDkJou3MIvMeMLqYnH42dlkUpKyrRavZP7c2RkNDY2Hgy2HA0ctaWkECYmJplMFpPJ6uzsKiigLS4uFxUVR0fH7O4ygam+vv6EhATn1NTd3ZuUlDI4OMxkslgs9sDAEJVKn56eHRgYCgkJKyoq5nJ5YOALUBMWi3PlvabQ0LDJyamjuW2Le3ssvd54Vu329lgJCZicHPKx728wQ29m5jAahM12UFtbHxsbj/KkTmfg84WLi8t4fPLRqxEKkUicmpqWlpYBpsYJBCIqtYBCyVcoVDbbQX19IxaLP5pq+FfURCLlxMdjwJgbi8VJSUnJy6PYbAd9fQNpaembm1sIYl9ZWSMSsxmMTkBNgYHBt2/fffjQ7Ve/+sjT02tlZc1isXG5+9nZOURiNovFYbHY6+sbxcXFZWXli4vLUVExhYWHP5LAEFZ2Nsk5NYlEYjI5Lykpmc0+NLW5uV1eXlFSUsrnC/Py8sPDI8fGJtCAHCsraxkZmR0dh77BDUHskJousfu6sClXqGljYyslhbCzs4cgdh6PTyCk4/HJWu3pLxoZDCYGo9PNzV0ikYHnQZ9//sXi4rLzex6lJrlcWVZWER0dA2ax6nSGk2NNNtvB+vpmYGDQydaEdk0CgSg7mwSmxjGZ7KCgYDwe76RzQxC7SqWprKzy9vYB/dLRuFBTRESUUCje2toODg7u6xsAtdjdZT5+7F9VVX0ESKSkpBTHYBUoNYFupLCwCJ2h50hN3z1MiYqKqqqqBjb39wWxsfEEQiqo3c2bt8CTIIPB1Nvbd+/e/bOm9QoEIiwWl5R0CGmniqzXm7q7++7ff6DR6DUaXXV17SeffOo8LI1SqS4uLg0MDNZodKhNqVRBJlMcZ+g5qh0TE1dSUnY094F5//4DMENPrzf29fVHRUWD6Bcaja6xsTkhAYvadNyB1HThVnyJGSE1wa/na6AApKZLbPMXNuWcmmQyRWFhcXp6BpgV5tjXH9sfGRnFYLDo92tra/ujR+7+/oFRUTFgy8zMmp2dLywsxmIT0XkXrlBTT0+vl5e3n58/aiolJW1qatZgMC0sLKalZbi7e6SlpW1t7RyjprGxiYiISB8fX3Rzc3On0ehghp7r7zWtr2/Ex2OKiw/fcnbcwAw9NIZeXV19TEzs7i5TpzNMTEzh8ckYDLampi43l5yXly+RyEQicVpaekZGJvpC0fj4ZExMHI1WWFNTh8Um1tc36nSGY2NNJFJOQgIG/O7hcHgEQhqZnGezHezvC7KySNHRMa2t7VlZJAqFCkJ3oDP0zGZLa2tbTEzswsISgth3dvYiI6O/+OK3ERFRQMmQkLCamrr5+QUMBtfY2AyqJpXKX0hNLBYnNjb+448/DQ+PBKbCwsKrq2usVkQqldfXN/r5+QcFBTc2NsvlSkhNjvcMpKYL91SXm9EValpb2yASs8ADi++GjqOiYtDf+ug1NRhM6+sbZWXlfn4Bn3/+xY0bN1ksjlarr6trcHNzNxqfv++Hpj+2g1ITmAVNIKSCBKe+12QyWfr6Bm7durO/f3zUSKczTE/Ppqdn+Pj4enh4ZWeTwFhTVFRMeXnlsUKPfTyipmofn8cABqxWZHp69osvfrO9vTc4OHzjxjfo0L1YLM3Kyg4PjzAYTBMTU/fvP/T29qmrqwc9jyvUZLHYVlfX7t27j4YNVCrVhYVFt27d1mh0Gxtbt2/fffLkcDKbxWKbnJz+zW9+IxAcRiQ6ubHZ3MDA4Pr6xmOnTCbzxsZmSUm5n5/fl1/+7uuvb4hEEo1GV1fX8ODBQ+fhKEwmy5Mniz4+vm5u7mVl5aDiJ6lJrzeOjo7h8UkeHp537tyj0QqPUZNCoSKRct577z1PT28fH18vL+/79x9AarrcJny51iA1ndLGjjUt+PG1KwCp6XKb/cWsOaEmpVJVUVEZGxs/MTHl/MsGQezHqOm7cY+YmNjvqMDxNrPZDoqKiqOiosHjWwSx9/b2xcc/H2tqbm7F4fAgnBR4NllVVaPTGcBDu/7+QUdT6L7VijCZbCIxi0TK3d09nBCfmpoOxpq0Wr1QKBYKJY6bUqk2Gs3nigbBZnMwGCyRmHXsoeZZ1PTkySIen9TU1GKxIAaDqb2dQaMVnkpNY2MTubl59fUNtbV1q6vrgKZcpKbt7T06vTg3N6+6umZychr8tgNjTWg0iN1dZkYGkU4v1OuNRw+hc7Oysh0fDyOIfWlpJTY2rrj4+ctLjtS0u8siENKoVBpQe2ZmjkBIGxkZl0rl+fkFycmEs4YfjUZzX19/XFz8wMDQ6upaZiYRztBD71g41nSxnupyc7lITVhsInhgtLW1ExkZXVZWgV5H8FJTa2tbSEjo1NS0QqGanp5NTEy6GDVxuftJSSkvpKb+/sGbN7/lcvcd3djf56enZxAIqXt7LA6HV15e8TLUZDZbh4aGv/jit3t7rKGhEUdqAi8sxccn2GwHNtuBVqufm3sSFxcXEhK6vb3rCjVZrcjq6vq9e/fR6WoKhYpOL3r0yP0C1BQQEFRTU+soxVG8u66goOCpqRmFQrWwsJSQgHWdmoApk8mytraBxyf5+wfMzT1xpCarFdnZ2YuNjQORWjkcHplMOUlNSqWqoIDm7x/AZnN5PD7YzpoBAceaLrdpX8wapCZITddAAUhNF2vel5vrLGpSKtVlZRWRkdEMRiePx5dK5UqlGkxYp1CoAwNDCGLf22PV1zdOT89aLLZj1MRmc4nErIyMzK2tHZVKw+cLwXvSU1MzkZFRRUVFAoGIzebm51ODg0PADL2uru6wsPC2NoZcruzu7vX3Dygrq9DpDAKBiEympKSkrq9vKpVqgUAkk8mNRvPc3PzY2LhWq9dq9ZWV1SRSDp8vbG9n4HC4mZk5jUZ3DHLQL1fwXtN3QRQ2N7ekUrlUKpfJFCh1oMnQHaVSXVlZFRYW3tvbr1RqtrZ2VlbWtNrD2fmO6zWhY02jo+PR0TEtLW0qlXZlZT0mJhaLTTxJTUajubW1raioWKPRgV8hoEQXqWliYopMzltaWjYazeiMkWPUhCD2wcHh6OjYoaERqxXp7e0PD4/s7u7T6016vVEqlet0hqN4wSUYDHZxcUmpVI+MjD148BDM0APKJyUlczi8tbWN9PTM0NBwEA1ieHg0NDS8paVNq9UbDCaJRKZSacDawXt7LLVaOz4+mZx8+KrV7i4zO5tUWFgskymczxRCBX+7dyA1XW4PdjFrrlDT+vpGYiIeLJvG4/HT0tKxWBwI8mmzHVgstr09FhabCAZzDAbT8PBIQkLCxahJIpFRqbSwsAgQo1Kt1lZWVoH3mmy2A5PJApr54uLy3bv3mptbQBsBbkxNTX83IxcMQInFUjq98ALU5OXlA/pAiUSam5sXEhImlcq3t3cDA4PQRX63tnYeP/Zramq22Q6MRjN4ysPj8XE4fFlZhSM1yWSK4uLSpKQU8LjNcYbed8gXExNbVFQEsnO5+xERUVlZh4NjZ401AQWOPe4RCsV4fBIWmwie3dhsB2bz4TzksLCI77piEFJobGwiOjrWdWoCBQHHpFI5iZRDoVDlciWVSgNR1I1G8+Dg0Oef/0avN9psByKRJDMzC1ATj8ePi3s+R/1oht6Ar68fOhcd7dPAm13ox6N3rmA0iIs14svMBanpGjCDY7N5N/chNV1mo7+orVOpyWy21tXV//znH3zwwS/c3Dx++9svf/zjn/j4+M7Ozo+MHMbQKyigmc3W/v6Bzz//AvySOEZN4CswJYVw//5Dd3dPHx/fxsZmo9FstSLt7R2ffvrrDz740MfncWRkNBabCKhJKBTn5eX/8pe/+vDDX2ZkZFIoVDDWdIRnzIyMzHv3Hnh4eHp7+1RUVAkEou7u3rCwCHd3Dw8Pz5iY56vNrq9vJiYm3b17D4fDLyycHrYIUNMPfvD//vCHP/rJT977yU/ee++9n2Zn5zj5TS+RyEpKyj7++JP/83/+n08//TWFQkVj6J2coXf0w6Xozp27d+7cxWITMzOzKJTTZ+iNjIy6u3vcunXHy8vH09M7IiKqr29Aq9U7RoM4a4Yei8WOiIh8//2feXl5e3v7+vg8ptHoAoEInaEHehXwKyojgygSSRQKVW1t/aNHbg8fuj165B4bGz8/v4Ag9u3tHRwu8euvb9y5czclhZCengGoCUHsY2MTN29++7Of/dzPLyA7O4dMpgBqOlqApdXDw+vhw0dubu5RUdFTUzM8Hv+7R7Bubh4eHl5eXj4FBXSpVK5Waxsbm+7fv3/nzt3CwqJ3s69zrDWkpov2VZeZzxVqYrO5VCoNRME5igYx8+iRe3h4ZElJGZGYlZ2ds729k5aWHhAQ2NjYRKUWuLm5BweHXIyarFZkcXH51q3bwcGhZWXlRGLWgwcP7927r9cfPjZKTk65ffvO1ta2XK6sqKh68OBRenpmaWl5YiKeRitaW9t49MgtPT2zoaGRQEgND488LzWVlpa/9977cXHx5eWVOBze19dvcnIaDKY1NDQ9fOhGIuXQaHRPT6+4uHi93sBmc6OjY4nE7K6uHjq9KCAgaH5+wZGajEbz2NiEh4dXaWlZZ2ePIzXpdIbe3v5Hj9zS0tKPQswdRqITCsVOqEkqlaWnZ3z99Y319cNgg2AzmSzT07MPH7pFRESVl1dkZWWnpqbzePzERHxgYGBzc0tBAc3DwzMgIMh1ahIKxRjM4btSHR2d5eWVjx/7DQ4O6fXGnp5eDw/PysqqxsbmxcXlGze+IZMp9fWNcXHxYWFhNFohgtglEhken+Tt7dPW1j4xMSmVypOSkr29faqqatraDidRHz3j01VUVP74xz/p7j4M1wE2ONZ0mQ37orYgNUFqugYKQGq6aAO/zHynUpPNdgBGIUQiCbrJ5Qqj0WwymdVqDXjsp9MZ6usbqqqqVSrN0XHtsXn8RqNZLldKpXLwZA58SVitiFarB8M7ju81IYjdaDQrFCqlUmUymQ0Gk+PDRdSUVqtHpwsaDCaZTCGTKY6lRI2g30zHdvR649Hgz/PaicXSsyaboRmB21KpXKFQGY0m4K1arQH7Dh8P32QwmSxKpUqhUBkMJqPRAtwzm61qtQYd1BKJJGVlFWVlFULhoRs7O3sFBTTwbNtgMB1JagGFgsEoEMhLrdbqdAab7WB0dDw3N29hYUkkkvD5wu7u3vh4TFsbw2SyqNVaR0EMBpNSqQKXxmY70OuNMplCLlc6pjGZLAqFSi5X7O8L0PeaQN0NBpNcrgSxEDWav7JsNJqPmUJVctTTbD5UA441AT0hNV1m/3VRW65Qk0ymqKtroNOfo77JZNnc3C4qKo6Px9DpRXt7LKsV4XL3i4pK8Piktrb2qanp5OQUNpt3FPx6KD8/H+2p0G7k2M7m5jYGgwOTAE0my1FkSzIen8RgdE5MTJFIOaDTaGlpDQ0NAxOeDQbT/PxCamp6YiK+s7P7aLDX/OTJAoGQmp1Nmp9/MjExSSRmI4h9d5cZFRXd0tJ6rNBjH8F7TY8euY+MjCUm4vPyKOgMatCtLS+vpqdnJibiu7oOiwMdEZPJrqiowmBwBQU04L9IJMnNpYDgeyDIRFsbIzExqaqqRqFQMRhdubl5oGhQUxKJnJCAra9vQJeAYzLZcXEJYDFAi8W2traRnExQKFRarZ7B6AgMDDoWPP0ozucenV4UF5dApxcymWyLxcZicej0osREfGtr+9LSCgaDFYulGo2+s7MnOzvnWN2PfQRRcxobmzAYXE4OeWnpeTAPtVrT0NCIwRxGRATTHJKSkshk8tra+sDAIKAmm+1AIBDl5JBxuEQQw1Cj0fX09GMwOBDDUC5Xms3W5eVVX18/dNozHGu6aAu+5HyQmq4BMxxrru/gR0hNl9zuL2TuVGpy8W5kMtkFBbTu7h7HGWIu5gXJjlHTufJebmKLxbawsFhUVFxYWOS4NTQ0Ov6GuMRCl5dXc3Pz+vr6wYQQlUpTVVX93dojZ01/dyxapzM0Njbn5eWDgOlHL3DPEAip/f3Po105Jj7XvuN7TefKCBO7qACkpgt1VJecyRVqstkOlpZWCIQ0dKFqFy/xyWRWK2Kx2By3FwIVagQE98/JIZ9cWxxN48oOmM7n6IPFYrNakWPRIFwx9erT8Hh8IjF7Y+MwZOilbCevCOiHL8W4EyNyuZJGo6NhkyA1XXLDvqg5SE2X066c3Prw1MsrAKnpog38MvO9DDWNj092dHQqFKoL3wxvDjVZrQiPx5+cnBodHXfc5uaeiETSC1fQSUaFQlVTU/f4sV94eER0dGxQUHBaWjoIhuEkFzhlsx0sLCzhcIlBQcExMbFhYYcWurt70IGvF1o4KwGkprOUuazjkJous/+6qC1XqAlB7AKBqLS0rLn5BcM1Tu4NsGTZ48f+/v4BjltUVLSLIVLYbG5qalpT0/Mol07KcnJKoVDV1TUcc8PPz/+7Rbp5PH5l5V9i6Dkx8rpOCQTC1NRU8LbSy/tgsdjW1ze9vX0dL4e/f0BkZFR39/MFgl++lFMtKBQqKrUgNTVdr/9L/Ho4Q++ijfgy80FqgtR0DRSA1HSZjf6itl6Gmk79YjjXQY1GJxSKHRfHOFf2657YakUUChWLxd7bY0ml8vMO2Wm1ei6Xt7fH5HB46PpIL6mJwWASCsUXcOYly313skNqumhfdZn5XKQms9m6vy/4LqbLa7w/tVo9i8W9OgeUSnV9fWN6esbVFfGSlvV6I1gG9yXtvPbsRqOZzT5+KSE1XWbDvqgtSE3XgBleewN+7Q5AarpoA7/MfK+Xml77TQgdgAq8YgUgNV1m/3VRWy5S0yu+N2Bx76ACkJou2ogvMx+kJkhN10CB60VN/33091//9V9/+MMfXG+s//3f//3HP/7x6dOnf/jDH/74xz+6nvGVpYTU9A5+T8Mqv0YFIDW9ss7NSUGQml5jE4BFOyoAqclJO31lpyA1XQNmcGw27+b+NaImkUjU3t4+MzNTU1MzOjrqekteWVnp7OxaXFzs7OxcX193PeMrSwmp6d1sfbDWr0sBSE2vrHNzUhCkptd1/8NyjykAqclJO31lpyA1QWq6BgpcF2p6+vRpf/8Ag9HR29vb0dGhUCj+8z//s7i4pL6+3m63g1b99OnThobGmppas9n89OnTxsZGGo0ml8sRBGlvbx8YGKitrWMwGL///e9fWS/gYkGQmo59h8GPUIErVQBSk4td05Umg9R0pTc5NO66ApCarrSlu2gcUtM1YAbXG9XbmvK6UJNCoWhtbZucnKytrR0ZGXn27JnNZsPhEvPyKCg1/elPfyaT87KysnQ6/Z/+9CcKJT81NU2hUDx79mxhYaG7u3t+fr6jo2N7e9vFNvzKkkFqelvbF6zXm6kApKZX1rk5KQhS05vZOt5BryA1OWmnr+wUpCZITddAgetCTf39/QMDA1NTU11dXVKp7LzUpNPpGhubZmZmenp6RkZG/vznP7+yjsCVgpxTk8lk0Wp1JtPhyq1wgwpABU5VwGy2GgzGU0+dPAipyZV+6arTQGo6eWfCI69FAUhNV93YXbEPqQn+wrsGCrwJ1CQQCLKysuvq6sxm86lNy2AwtLS09Pb21dTUdnf3HBwcnJeanj17Njk51dfXt7i42N3dzeFwTi3odR10Tk2Tk9PFxaXr65tX8XViMJh4PL5IJDm54KNUKu/u7pmcnD4rGLdGo2MyOWtrm6ur62trmzs7e3K58iqcvCKbMplid5f5MktdXZFjJ81qNLq9Pdba2gaQeneXeS2k1ukMLBbnmMg6nYHJ5OzsnE/57e3d0tLy6enZk+KAI1tbuyUl5bOz82clcDwOqel19XWO5UJqcrwn4b7rCigUqra29kvsAyE1OTbM17UPqekaMIPrrfRtTfkmUBOfz4+IiMjNJRuNxlOb6+DgUEdHx9TUVHd3t1AoBGnONUPv2bNnRqOxvr6BwehobGwcGxt7o4abnFCTTKYoKSmrqanT6f6yJN8l3o0KhYpASCMQUrVa/TGzIpEkKSklO5t01nrtQqEYg8F+9tlnkZGRYWHhXl5eISGhg4PDx+y8yo/7+wImk+1KiXy+MC0t48aNmy0tba6kv7o0EolseXlNIBA7KWJrayckJOyTT34dFRXz+LHfjRs3IyOjp6ZmnGS50lMGg2lvj7Wzs+e8FA6HFxsb/9VXX09NTaMpV1fXPT29Hj1yYzJZ6MEX7szNPYmNjWtv7zgrpU5n6O7updEKz7pdHTNCajq1p33FB687NYnFUgqFGhkZjf58V6u17e2MzEyi480G94ECJpNlYWEJi00cHR17SU0UClVFRWVtbcNL2kGzQ2p6xW3/1OIgNUFqugYKvAnU9OzZsz//+c9Pnz49tSH98Y9/bGtrYzA6WltbOzo6ULI6LzX94Q9/aG1tbWlpGRwc7O3t1Wg0pxb3Wg46oabV1Y3S0vKZmTm0f7/cnZekppQUQnp6hkajs9kOBAJRQQGNQEjd3t69XCddtGax2Do6uiorq00m6wuzPHmyWFRUkpGRWVJSajSaXpj+6hLMzs7n5ubNzy86KWJrayc5OYVOL7RaEZvtgMvdJ5MpRGKWVCpzkuvqTsnlyvr6hvLyCudFAGr64Q9/RKMVghFLi8XW1dXz/vs/vXRqQhD78vIqlUrb3Nx27hWC2CE1vZaO7lih152ahEIxHp/0ox/9uLy8HNxyCoWqvLwiODj4hXfgdU/A5e6npKS+cKCex+MnJiaurq4hiN1qRXZ392JjY7u6ul+y+lYrsrW1HRUVffJh38UsQ2o61jZfy0dITdeAGS7WwN6mXG8INTlvopOTkwxGx+zsXGdnF4vFAokRBMHj8Xl5eWDC3rNnz/70pz/n5pKzsrIMBsOxaBDPnj1TKpVNTU19fX0NDQ0TExPOS3zFZ51QE4PRSaUWcLk89K7T6QxCoVgoFKOjTxaLTanU8PkikUii1z9/tcNgMCkUKoPBpNHoJRIZehy1A3ZOUpPBYJJIZCKRhMXivHCsKSWFkJ2dYzJZgLWhoREsFjc0NAI+arV6geDQK9RV9LhQKJZK5QqFSi5XAt+0Wr1MpjAYDgHGYrGpVBq1WgfSI4hdpzMIBCLHWiOIXa83ikQSYN9oNAsEotLS8rw8CofDUyhUZ00sBDZ7e/spFGplZU16eubW1g44aDCY1Gqt2WzVavUikUSjOXTAbLbIZPJjRQOXhEKxY+2sVkSt1ikUajDd0Wg0y+VKYMRoNCsUKr3eCHyWyeQA1fR6Y29vf0ZG5sjIqFAoPusybW3tpKQQiotLgJ8220FPT19sbPzS0go4AvSRSuXotTjy3KpQqIRCsUymkMmUcrnKbLaazValUqVSaUBG4KTjjw+dzigQiMRiKbgWIJleb0QrazSad3Z2qdSC3FyyUChGTYGUjv85HF5+PtXLy4tEygHP4yUSWWNjk4eHZ3h4BDrWZDJZZDKFQCBWKp97hRoxGEwi0aHIIyNjsbHxjmNNev2hn1Kp3Gx+Dsl8vqC8vKKu7sVPoCE1veIu7tTi3gJqKiigh4aGRUZGcbn7CGJ/R6jJZjtgMtkYDO6F1PTdN1dMTOza2jraoi9rRyAQ4XD44eHRSzEIqenUFvqK487djwAAIABJREFUD0JqgtR0DRS4FtRktVqbmpq7u3vq6uo6OjpsNtuzZ8/sdntmZmZKSopcLgdt+/e//z2ZnEeh5BuNxmPU9PTp06GhoZ6entnZ2e7ubpFI9Iq7A+fFnUVNarW2srK6qakFTDqyWpHp6ZmoqOjPPvv85z//IDQ0bHFx+WiEh+7t7Xv//sNvvrlJpdIkksPxh+npWSq1ICcn18PDMywsfHn5+c/rY98xx6iJw+ERidkfffTJBx/8IiYmNjAw2PkMPUdqstkOGIxOHA7/5MmixWIbGRkLD4/09vZ1d/fMyCCyWFwEsatUmvr6xps3b7333vtff33j8WP/tLSM7e0dg8FUVFSCw+H5fCGC2Hk8Po1W2NTUAp5Qfvc2S0xMnLe3r6enF4GQBsaylpZWsNhET09vT0+vuLj41tZ2KrXgl7/85c9//oGv7+Pq6pqzCARB7GKxtKKisr6+YXNzm0TKbW1tB7IMDY2kpqbl5ubduXPv448/DQ+PaGxsplJpn332+Ycf/jIri7S/LwC01tvb5+Hh+YtffPjxx5/gcIngZ4FcriSRchMSsAAktrd3yOS8trZD43Nz8zk5Ofn5Bf7+gT/5yXsff/xJbW2t2Wzt7x/49NNP33vv/QcPHiUkYIaHnwPnsct0jJo0Gl1tbT0Wm7i9vavRHE4KevzY38vL28PDMyuLJBCIEMQukchKS8t+/evPfvjDH7m7ewQGBsXExCoUKoFARCRmJycTjMbD+CLr65skUm5HRxfgwN7evoCAQC8vH3d3DwIhjcfjHzn/JCQk1MPDy8vLG49Pamhoio2N/+ijj3/2sw+8vX2Lip6z3DGfEcTO4fBycsjBwSFkMmVg4HDq5sLCUk4OmUBICwkJBdSE+vn++z/95pub+flU8FPMakUWFpbCwyO/+OI3n332uZ+fPzpDT6PRdXZ2+fr6eXl5e3p6Z2QQwW1jMJh6e/tzcsiAVE/6gx6B1OS8R3o1Z89LTUqlmsHojI/H5OXl9/UNUChUFotjMJiGhkbw+GSA5VKpvLKyikTKBdfaYDDNzc2npBCw2MSenl5wa62tbYSEhE1OHs4atVptCwuLGAxWJlMgiN1ksmxubtPphdHRMWVlFTKZsxc1hUIxhZIfExNLpdIoFOoxahKJJDRaIZ1eBDxhsTiJiUnt7QwEsW9uboeHR8zPL7S1dcTHYyoqqgQC0c7OHoVCTU4mTE5OoTfqyZ3t7d3g4JDx8cMniUlJKYuLy0ajeXl5NSMjMz4+vrm5FVQEdFPj41M4XGJ6esbQ0DCdXjg6Om61Ihsbm5GRkWB6rV5vHBoaTkjAgAc9JpNlbW0zOzsnNja2rq4BmDKbrRsb29nZubGx8VVV1RwOb3Jy2t8/8Ouvv3F398Tjk0HrO+aq1Yrs7TGDg0O+/vqbhw8fxcXFT05OsdncwMCgqakZwF1hYeGbm1v19Q1xcQm1tfVCoXhtbYNEyklNTXvy5C9j7yqVpq2NERUVQySSdnefT+tVq7WNjU25uXnHyr3YR0hNr6bJOy8FUtM1YIaLNbC3KdcbQk0mk8lqtTppURMTEwwGY3R0tKOjY39//9mzZ0+fPm1ra4uLi1tcXAKz+7a2tlNSCD09vX86+nOMPK5UKpubm4eHhxsbG0dHx86aDejEgSs9dRY1KRRKKrWgoqIKPE1fWFiKj08gkykcDlcike3s7IlEEj5fODExtbW1o9PpvxvkiYmJBc/jp6dnvb19AwODZ2ZmdTrDWS97OFKTTmeorKxKSMDMzc1rtbr5+QU/vwDn1JScnILDJbLZ3I2Nrdra+tDQMBqNrlSqFxeXUlIITU3NGo2Wx+P//+y9B1xjyZnoO9e+67V9x+v13vXzzl2/u7v2zPj6ed8b3+fJM56xJ/aknpmd6UzOSSCSAAkBEjmKnDMiBwEi54yIQhIgEYRACSGUhbqJOrdRtWUtqWlC0/Sc+unXfc5R1Vd1PlUV53/q+76Ki0tISUmTSOT19Q0IBCIvL5/HE0xPM3E4PBLpejQ1jY2NBwWF5Obmi0QrbDYnNTUtPj6Ry+VnZGT5+QWwWLOLi1w6fRKsSERHEyIjo5aXV44epL29/eHhkc3NLQLBcnZ2Tnp6BtBPQ0OTqakZHh84MUEbGRlDozE3b94uLi4TClfI5HpPT6+aGjIgUldXt5SUtKUl7uTkdFRUjJ9fAIMxdTQ1mZtbODkhKJSh+XlOWlqGjw9mfHxCoVCVl1e6urr39vYf0WYqlYbBYMPCImZn5yiU4YyMLAcHp8zMbKVS3dbW7uXlRSLViMWrVCqNQIjLzycqFKra2joXF2RtLVksXp2YoHt4eDo6Oh1NTV1dPSiUd3FxqVi8Ojk5lZSUnJmZzeEsJiUlh4aG8XiC+Xn2xAR9eXllcpIZERGdmpp2WL8C98JkzoSFhfv5BRQWlug6gKy2ti4kJDQlJdXBwXFyckomU9TWkt3c3Ftb21ZWxN3dPS4urtHRBJlMMTk5HRgYFBCAm5piLi1xS0vLbG3tQN/u7u5FobxIpGpwa7Gxcbm5eWBtraioxMkJofczOUylMDWd64R2TOGPRE1s9kJkZJSZmXlMTOz9OfDGjVs3b94aGRmTSGSVlSRjYxPw7L64yM3IyCQQCGq1ZnlZVFRUbGFhmZKSnpGR5eyMjItLUKs1Y2NUFxfXhoZdjFcqVRTKUEAAjsNZksuVvb39VlY2fn4BBQVFOFygjw96ZeVQh1I2mxMZGe3r69fZ2Y1AOA8NjRiuNem8nghoNEY/FnA4fHHx7jsUKpVmbm7u44PBYv2DgkKuXv3S1dUdgXCOjiZgMFg7O4fR0bHDui6DMWVra4/B+CIQLnl5xJmZudraOnNzi/j4hNzcfA8PVGhomFqt0c1suTdv3g4ODk1ISLS2tr5zx6imhqxSrQ0Pjxobmw4M7L5H01FTs79/gFKplkhkTU3NFhYWUVHRRGKhtzfa3x+nUq1NTTHt7OxCQ8OKi0siIiJTUlJnZuZSU9O++OLLysqqvr4BsXivTyxovFAoyszM/uCDDwsKiN3dvfPzCwzG1O3bRmRyvUq1RqdPXrt2A4XyxuECAwOD/vzn9/D4IHt7RwIh1tPTy8bGTv/2JyAAb2fnUFBQGB+fYGdnD15RSaXyzs4uHx/M0VPQYWrccx2mpmOO2XPNdimpaX6eTdMlkeghjx17+tzxT9nsBVDF8vJeY4zjCzkip17+EXYjRxR/6FcLCxzQfqFw+aGZT5CBw3kgXyAQnqD4Q4twOIug/UD+k0BNdDrD3NzC3z9geXn5sDEpEq0UFu5iT1ZWNolUvbGxAUGQUCjE4fCmpmZxcfFJSUkODg7h4eEcDkdnrfef9msCIcvb2trKyspYLNZhtVzU9cOoicfj5+TkkUg1arVGpVpLS8vw8PAcG6Pu/5VlMoVQKOrp6cNgfOPi4mg0WmFhoZ2dPZFYtD+z4RVDaurvH/Dw8MzJ2X0AVas1h0WD4PH4oAuNjIxisX7vvffenTtG33xzzdTUPCcnl83mqFRreXn5wcGhLNasQLDM4SxlZ+fExsZPTTFDQ8O9vLx5vN3Xumq1Jjc3z9PTcw818Xj81tZWf/+A7OxctVpTXFyKw+FpNIZAsLy0xCsqKiEQ4qammJmZ2RYWVo2Nzfo1pdnZ+fDwyLi4hKP9mpaWuOBdcmdnF5vNyc7OvR8WAhjpNTQ0eXqigIUhl8uPiorx9fXjcnngSQuDwYJH/+TkFA8PTw5nCdwF4Jbq6ho9NbFYMzQajUwmBwTg9GtNPj4+JSUPIk/cpy93d4+urm6Vaq2ykuTm5tHXN2j4u+w5plJp3t4+X375lZGRySeffPLFF1cTE5MGBgYYDEZKShoGg+VwlgSC5bk5dnZ2bmJi0tTUNB4fGBwcDB4pJBJZcnKqoyPiCGpaXZVmZ+egUN4LC4szM7OdnZ3R0dH31yoXFjgpKan29g7d3b1geUqt1jAYUxERkRkZWXvauecUUFNUVExbW3t4eER//2B2dm52dm5RUYmxsXFDQ0NHR4e/f0BERBQwp1xdlRYUFDo4OI6OjtfW1tnY2OlhUh8NYnl5JSsr28vLR3/L+fkFBAJBqVTL5crS0jIk0pXJZIEuymbvLrvt/3wXqEmr1W5vb4M3RIbHFzXL7a/3+NQklcobG5ttbXeXKYAFb0ND09WrX5JIJAZj8jBqolInvLy829raQZHe3j4MBsvlCg6jpvn5hcjI6NDQMJVqbXVV0tLS4u3tnZOzOwsd+GGzOeHhkRgMdmmJl5KShsMFLi3x9H5NR1DT6OjYtWvX4+LiqVTq0NBwcnKKkZHxxMSunfDk5LSrq9sRI4tGYxgZmQQE4IDZM5M5g0ZjwBKWSrVGozEwGOzk5PT4+ISZmTmBQKDRaCzW7lstIyOTo6lpbm7ez89fP/8zmTNYrP/w8Ojg4NDnn38BgriqVGtKpVosllRUVN26dbu/vx/IP1A/CoWqu7v3yy+/0lvoGVLT2Bj1ypVPWlpaVao1LpcfFhZua2s3P79razA9zbKwsCQSC4eHhzMyMmxs7IAJ8fLySl5evq+vn1qtkUrl9fWNN2/e1hvoHtiGIy7qLI1354npaSZMTfuH5+O/cubUpFCowB8CBuMhgYuO6CeGXz1jeAKOYWrar5M9V2BqOvOxJBKJMjIy6urq7t27d4Tw5ubmysrKlpaWsrJysNwEQZBYvFpeXoFCoTw8PMvLy8ViMZCg1WorKipSU1N5PN7q6mpxcTGZXJeenl5RUbG5uXlELRfy1WHUxOcLcnPzKyqqFAqVTKZISkrx8wtgMv/q46RWa0Si1draOiTS1dXVLTY2Ho32TUpKnpiYKCwsdHZGlpdX7unAe04NqamtrcPLy6ey8oGr7nGoSWehFy6TyRsamtzc3KuqqtVqjUQiIxDi/vzn94yMjC0sLM3NLczMLKKjCX19/RgMFov117s5PZSa5HJlWlrGhx9+dOeOkYWFJZAWEhJGozGEQlFFRZWDg6OFhWV2di6PJzgmNU1NMV1d3V5//Y3bt+9YWFjeunXH3NwStLyhocnDAwXCAC4ucqOjYwIDg/5ibkfHYv0TEpJ0aBTh6YnSs9/YGBWN9k1MTD4+NZHJde7uHiCq+zGpyd8/ICkpRaVaI5PrHBwcCwqINBqNQhny9cW++uprxsamQD8mJibx8fEUyjAGgyUQ4sDPfRxq4nL5wcGhL7/8irGxiYmJyY0bN7799tvQ0LDl5ZWlJV5eXr6FhaW9vX1hYZFAsPxI1BQdHcNgTKakpAYHh8THJzIYU2Vl5YCaGhsbMRhsauoDZ3q1WtPa2u7m5tHc3FpeXung4ESlPogsoqcmNpvj7497+eVXTEz0t2waFRUtlcrlcmVJSamzswtMTRAEDQ4OOjkhgCPo4OAgAoFgMBgXMr8dVunxqUkoXE5NTbt92whwu0q11tHR9dVXXx9BTUqlqqWl9c9/fs/TE4XB+GIwvkikq5OTM5U6cRg10WgMOzsHKysbDMbXy8vbxsbG2Ng4Pn53eerAj56aVKq1sbFxd3ePykpSRkaWo6MTMAOOiTl4rWl0dPzWrTvZ2dk0Gm1kZDQ3N9/NzQM8/bNYsz4+6CMMz+j0SVtb+6KiEtCk4eHRK1c+cXFxBffo5uZua2vX1NRSX9/0/vsftLe366hmhkZjmJtbHk1NExP0r776CoFwBqI8PDxtbGzJ5HoOZyksLNzU1Cw6OgZEKD0Tahofp169+iWFMgxWxtLTM318HqzL3X/dZm1tm5aW3tfXh0Zj3nnnXTQag8H4+vigHRycvLx8wF+ZurqG27eNDD05D/yZDrsIU9NhA/OirsPUdNhEA681HawZMLa/g2tNxxyifD6/srKqq6u7sLCovb3jmKV0Tw+UmprawcHB+vp6fTCJ4xd/DDkPpyZhWFhEYmKSXK5UqdYSE5M8PDzp9P/01qSyssrfP6Czs1si2Q2HkJiYlJqaejJq6ujodHZ2yc9/4Ex/bGrajQbB4wkSE5ODgoKnp1lKpTo9PdPb22cP4AkEwoAAnLe3j97tRE9NUqk8KSkFg/Flszk8Hr+lpcXPzz87O1el0uTlFXh6og6Ly7e6Km1ubnV2RiYlJU9NTUdGRicmJh+91tTc3OLo6JSQkADea3I4S4mJSSkpqQqF6jjUtLoqjY2Nd3V101NTV1cPBuNbWUkSCJYjI6NQKK+Zmdm/rDUFHLjWZEhN1dW1np5eD42hp48GwWLNBAeHeHv7DA4O0mj0+w4V9z3Q9CoF08jk5DQGgw0KCgFrOIbUtLCwGBoahsX6gae00dFdR4L7/CkWS5KSUoB5m1C4DF7RLSz8NR766qqUTK5zdXUrKiqZnJyOiIg64o04aAZYa4qOjuHzhQUFRWZmFnFxCSsrq3pqamtrw2Cwhl4oxcWlLi5ICmWovLzC0tJKv7La2/sg8rhAsJyQkOTigjSMYAGqk8uVZWXlbm4eTObuWh+NRnsK1prW1jQczqJEInnUiaivr9/a2oZGo0EQ1N+/e0ylUh9VyLnmPz418fnCpKRkY2PT41OTQqFqa2s3Njbt6OgcGBgEn7GxcYFg+Qhq8vBApadnDAwMdnZ2lZeXV1RUdHUdukWYnpp0z/2ivDyiszOyrKzcxQX5qNTk7u6ppyY0+rjUpFKtjYyMmZiY1tXV6+9xaGh4eppZW1v34YcfdXR0HJ+a6PRJc3PLiooqvSgKZRh4NspkitHR8ZCQUCMj48TExMdCTTapqWl9fX1YLNbMzLy/f0DfqvHxXWsLsNZ048ZNeK3pXAfp4xR+KakJ/O2B//3uaOBJsNA7/rDU6tIRYcoPFKX3YtIfHJjtAi8eRk06Y6QcIrEIvE5ra+tAIl0TE5NBeDcqlcZkzqSmpqNQXlTqbkCF9vZODw9PIrFQpVrr7Oz28vJ5pLUmFmvO19fP29tnepolkyk7O7tNTEyBX9PiIrepqaW/f9DwT5Turf9fY+j19vZ7efnk5xOVSnVHR6ebm3tKShqPJ1Cp1vh8AY8nkErlhYVFCASitpYskUhZrFk/vwDg16RSrWVl5SCRriMjYyKRuLy8ws7OHkSDAL7acXEJHM6SUqkWCJYFguWVldXx8QkGY0qpVHM4S0lJySkpaRzOUlZWdlhYxMzM3P5Ne8Gg1vkRVQQGBjMYf90sqLi41McHw2BMHYea1GpNS0ubi4trTk7e8vKuq1V8fCIGg52YoEul8tTUNAcHx4kJOpfLz88n2tk5HE1NarWmo6MLg8HW1JAVChUI4N7Q0Dg8/J+iTu2JBtHU1OLkhABOPg0NTY6OiLKycolEplSqQZg+Pl+YmZnj5eVNoQzJ5Uoqlebs7AL8mpaXV5KTUxAIl6kpJoezmJGRZWfnAKJBtLa2OTg45ebmi8USlWpNLJaIRGIulz84OMRkzigUqokJelRUdEFB4dwcOzY2PiIiUiB4EDDwwDlTT01qtaarqxsEHVap1ioqKoFf0+qqtLy8UtfOYblcOTIy6uODBgtHFMoQEukaGhq+uMjVuYOXWVvblpVVqFRrLS277SwrK5dK/3rL4PVzdXUtgRD3UFeHS2Shx2BMhodHjI6OPuoE9TRRk0QiKy+v+Pbba/eXdECEmJaWNuDXBEKqXLt2XR9IJiQkDPg1jY9TkUjX6uraPZ1zdHTczs4ezI3LyyulpWXA4HN2dh6HC/T1xeoXw/cU3HNqSE1qteb+DIBAOGOxfu7unmq1hsvl6yLsOYPdAsbHJ1xcXIFf0+jouImJGYj/JhAs5+bmn4ya1GrN1BTTzc0NGDPrm6dUqnt7+z/55NOWljZwkUql3bljDNwyR0bGrl27MTBAUas1PJ4gLS3d19dPqVTPzMy6u3skJSUdNnlKJLKWljZXVzcGY6qursHDAwVePOnr3XOgUKhGR8eRSDe9na2hhd7D1ppsQESf6upaGxu7/bvwSaXyjo4uPD7ooYN9T6sOPIUt9B51ejmP/GdOTQf+1qe5eICF3mnEwWUvowYuFzWdx0B9EmQeRk1qtaaioioxMWlubjd0m1yurKkh29raf/nlV1eufGpnZ9/W1tHX1+/jg7G2trGzsw8MDMbjg4qLS09GTboYfbtuzTdu3DI1NcfhAt3cPKKjYxQKVVdXz/XrNxwcHJjM3VB44LOHmuRyZWFhMRqNGRykyGRyMrnewcHJ0tLa3t7R3t6hvHx3f9KlJV5MTOyVK59+++11BMLF3NxSt460a9A/MEDx8EB9/vnVb7+9FhkZnZCQBKhJoVC1trY7OyMtLKwcHBzt7OyLi0s4nMW0tHRLSysnJ4StrZ2PDwY8BLS0tOlCwJmnpaXr/Y70DQbOWpGR0eHhkYYrFcCruLKSdExq0q2WVFhb21haWpmZmbu5uff09IJaurp6bGzsPv/86q1btyMjo7Kzcx5KTUzmTHh4hJGRkacnqqamtqmp5bPPPvfwQOn9tYD7uH6tCbzYzsrKwWL9JienBYJlIrHIwsLK2trW3t4RiXSrq6sHDhJ4fND16zfNzCzuS3N0RAC/Jh2ndRoZGX/66WfGxiZ4fGBKShqgJpFopaKiwtra2srKxt7eEYFwqawkzc7Ox8UlWFpaOTu72NraBQQEMBiTMpmiurrmzh0jMzMLfSwNQz2DY0Nq4vOXqVT64uKSITWp1Zq5OTaBEHfr1m1ra1tzc8uwsAgOZ1Hnyr+Sn098//0PP/jgI1tbOw8Pz8DAYACKAsFycXGJhYWljY2dg4OTi4trbW2dWq2ZnZ1LS0vPzyfub8meK4+HmrRa7ebmpkajuXfv3vb2NphqdnZ21tfXNRoNcM7UX9zc3ATeR/fu3dvY2ACveLa3t4eHhwMDAwcGBjQazfb29s7OztbWFnDdvHfvHsi2s7Nz9+5djUZjaH58NDVtb2+vra2tr6/rJ8CdnZ3NzU3QPNAAlUqlj1Cqz3aGB8dfa9K50k06OSGMjEyKi0uzsrJNTEwBNalUaxTKsKmpGRa765MTEhKKw+EBNfF4goyMLDMzi4yMzKam5oyMrNjYeBCi08vL+9q1G0RiUUJCopWVNaAmmUzR2dltZmaBw+FramqLi0szM7P2rOIadqQ91LS6Ki0rq/jDH14G+zWtrKyWlJR9+eXXaWm7sSicnJyRyEegJtAYU1Mz/X4DoOo9FnoikVi3cmsaF5dQX9+Ym5sXG7trl7uwsOjr6/fxx1eIxMKCAqKjoxOIBqFWa1isWQcHJ+D1GhND8PREAWoSiyU1NWRjY5OoqGgyub6ggBgbG697h1Xp7e1dX9/Q3d0bGBiEwWCVSvXUFNPa2jY2Nr65uZXN/uuKtKF+gKrt7R1AiHDwnksfDeI41ARuBIXycnJyJpFq2to6MjOz+/t3XUBBDD3wg+6p9ASnMDWd4bg+sSiYmo6yQztBt4aLnIcGYGo68Qg/w4JHUNPIyFhycioIkgs6AI8nuG+APjHB0O+VIRAs0+mTs7Pzq6tSHo/P5+9Gy11eXmGx5gSCh8QskUhkc3NsDmdR/8aOzxfSaAw6fXJujj0zM7u0xFOp1kQicU0NOTMzZ3r6r9S0srLKZM4sLnL1OyMJhaLpaZY+gplAsEyjMSYm6HpjNtCwyclp3WoMT2+hB25N5zAzubCwqNulZ3FpaTcMA/jobMZ2Renj6oI4v1QqnU6f1KtCqVRzuXwQUs9wWUwvRyQSs1izhkJ0vmFiFmuGy+XplDYLpK2srLJYsxzO7lO+Wq0Bp4ZNEgiWJyZ2a9ffr/4u6PRJDmdJLJbMzs6BYBIikXhmZk6f07AioBM6fZJG2xW1srKan0+MiooxfOG9v3adqpl6gTpV0+l0BqgOtEQkWqHTJycm6HNz8/poEH/Rp8igkfOGpZaXV2g0RkJCkoODIwiSodOqQLe2Obu6+mBH4JWV1elpFo3GAJHu9Ro2PBCLJSDIoeFFcL9MJkvfOcViCZM5MzFB3/P4JZcrOZyl++7v8/MLKyurs7Pz+h9OpVoTCkU0GuO+w4b+RxkcHCIQ4vS7b+2p1PD0MVCTWq2ur6//5ptvX3rp91eufJKRkaFSqaRSaVFR0ddf/8ef/vRna2ub0tLSnZ0dCILodHpwcEheXj4K5fXGG298+OFHZWXlWq12aGjoypVP/vCHP9y8eROF8mppaRkfH8di/QoKCkxMTM3NLTgcDo/Hi4khfPPNNx9++CEKheru7gZT02HUdPfu3fb2Dnt7B3Nzc3t7+8zMLLlcvrm52dfXj8PhysvLv/nmWz8/Py6Xi0ajb968xeVyz3CuMxT1SNQkkciGhkYiI6Ps7OyjowlEYvGdO0YjI7ux5lZWJE1NLe7unmg0pq2tvampJTg4FPzcYrGkvb3T2xvj4OAYFxcPpi+pVD4wQNGFv0fk5RU0Njah0b7gJYtEIhscpERERNra2mEwvi0tbUe4zejiPcSiUN76rjUzM+fnFxAUFAyu8PnC3Nx8e3uH0NDw1tb2+PiEoqLdeDBjY1Rra9uOjt3Q58vLK8XFJR4eKFDR1BTT2RkJ/Jqmp1n29g4olJd+ggUvUExMzMBrDlCLRCLr7e3z8wuwtbUPDQ0HRq0KhYrJnElJSbO2tgkMDCaRaszNLcBak1Qq7+3dfdcGXou0tbV7eqLA+pJOM4N4fJCtrV1gYBCFMgQGGolU7emJcnZ2CQkJu/8TiETi1VVpU1Ozu7s7FovV7xqn14P+QCZTDAxQvL193N09amrqJienzcwsWlvbVKo1BmPSxsYOBEDXRdvLcnZ2AQWnppi3bxvl5e2+/gCxInJz8xwdHV1ckLm5ebOzu9sh6PZrwjQ3t+jrOs0BTE2GA/OijmFqgqnpEmgApqaLmiAM6z2CmkQicU5OXnFxqZ5qTvC3QSBY7u3tq6oi7fmMjIzqo6IdLXZxkZeenpmTk3dEHN6jJRz47R5qOjDPyS4KhaK+voE991tVRRoaGj7mLZ8VPzy+AAAgAElEQVSs3tOXmp9fSE5OzcrKMXxUOqVYQ7+mY4pKT8/84Q9/9MILLxIIcXooPbAsny/s6urZo2oSqXpoaNfP+7F9hEJRcXFpbGy8IW0eVvt5U9POzs7AwICdnX1+fr5IJKLR6B0dHTKZrLm5GYFwbm1tFQqFbW3tDg6ORCIRgiAGg2FhYWliYtLZ2Tk3N0ckEr29fWZmZra3tzs6dglnaGgIzBhjY2M3b960sbHt6OgQiUQCgSArK8vb24fBYCwsLOjcutwHBgYgCDqMmuh0ho+PT3V1tUgkGhoaCg0Nra0lb25uksnkN954Mzw8Ym5uTi6Xq9Xq9vZ2IpFouCZmOGud/viRqMnwpwRr6XpqMvzqaToWiyUNDU1RUTGnvyl9NIhTilpYWEQiXX/3u9+BWP+nlHbi4kqlenx8wtPTy9Bk4MTSdC/OVgiE2GeffdbGxub0HRuWcDINwNT0+P5enma0fMfLwtR0suF9tqWOoCawx2hWVjZwgT1Zd+XxBK2t7fn5xD2fnp4+QzOwI4Q3NDSmp2eAPV6PyPaoX50fNfH5wvb2zj33m59P7OrqkUgerJY8amsfQ36dS1hXTk6e4eLP6es9MTU988wz3//+91977bXKyt1tcA/8LC3xGhub9qi6oKCwp6fvwPzndJFGo2dkZOo9KI6u5bypSSgUxsbGBgYGGSIHi8VCozFJSclg9pDL5bm5eS4uSC6Xy2Aw0GhMeXk5+IpCoTg7O1MolJ2dne7ubl0o9gd+TWNjYw4ODiUlJSDn8PAIAuHc2dkJThcXF0NCQiMiItfX1w+kJrlcXlRUHBwcotFotra2JBJJSUlJTEzM5uZmTU3tN998Ozc3B0Q9hn8vBTXNzbGDg8OsrGwMPxYWlv7+AUf3sVN+C/xUfX2xp5n59W04Q2pCIBDPPPPMj3/8488++7y1tV0ikbW2tpuamhvqx8rKxsMDNTi46zp1Hh8eT5Caeixb3GPWDq81PYbx/tAqYGo6l9FyzDEAZzumBmBqeuhIfgwZjqamY/6UlzHb/PzCyMio3szsMt7CpWizQqGamZkbH5/Q29c9tNlgremZv6Sf/vSnN27c6O7ueWjBS5HhvKmJzWYHBgbFxcUZzh4MBgOLxZJIJHBxa2urra0NgXBm6BLYdQd8RaEMOTu79Pb2HUhN9+PmNzU1g52++/r6HB2dJiYmQEG5fDceiZWVtUqlOpCaBAIBHh/45ptvWVpaWVvbWFlZm5qaRUREgrUmY2MT/eYNhi0/p+PTUNP9zVUdHJz2BBQ9v76nUq3t+ZxfXUCyTKZgszlgp9fT1zUxQTc3twR7KpxG2sLCIqAmMDH87Gc/QyCc70ek2KMccHqaio4uKxSKamvr9hj0Hl3k6G9hajqnMf5IYmFqgqnpEmgApqZHGtXnlPn01AQ2H1Qq1fAH1sCZaCAtLf2HP/zRX6Dpwf+//OUv77vRT00xj34EefK/PW9q4nA4OF0ynDEYDIanp2dOTi64qFSqKisrsVjs3NwcWGsqK9OvNR2LmiAI6u3ts7Ky1ocUFwqFiYmJ4eHhd+/ePZCaxGJxfHy8h4cn8KfSN+9yUdOT38Ge1hbuoSYwL/ziF7+Iioo+0I/0sugBpib9VHCBBzA1XQJmuCxD+vzaCVPTBc4R+qpPT01oNGbPAy58CmvgnDTwv/7Xb1NT087Ko+D8JrcjJJ83NSkUiuLiEhQKBTaWVSqVXC5XIpHk5eX5+mJBfIWZmdmAAFxqappWqz2MmiAIotFofn5+ra2tYLoYGxvTrzVBELSwsBASEhoVFbWysrK9vU2hUFxcXKqqqnR+TX02NjZ0Oh3s12Rjs7t308bGRkdHh6urG4XywFEKrFntp6Z79+6Nj483NjYaxuXTT1lncnDitaYjftmHfjU5Oe3jg4Y/J9OAs7PLq6++un9i+cEPfvDyyy+XlOzGuriMH5iazmREn1IITE2XcvBcxgF/mjafLTWtr6+r1erz+yt7yjH5xBaHqWn/n2H4yhOrgd/+9repqekwNR09n/B4PAJhN7TdN998Y2RkHBYWzuVy2Ww2Ho+3tLRCobwcHByioqLA9rVHUBOPx4uMjDIzMw8LC29tbd1DTVtbW+CKo6MTCoWytbXNyckB60hjY2PGxsbR0dGAf4yNTSIjI+/duwfgzdzcwsvL29fX18cH3dnZtZ+auFyejw/62rXrS0tPRAy90/yZMyxbX9/4xI6sy96wZ5991tjYRCgUGSr8UhzD1LRnNgO7Juj3S9jz7TmdwtQEU9Ml0MDZUlNJSYmPj8/IyMg5Dao9Ynk8fnx8PDDQRyCcIyOjent7VSrVnmxP/unpqelAs3L4IqyBE2sgLS3jEAs9H9hC75hTikajYTKZ/f39Y2NjIpEIlFKpVBMTE/39/fPz8/p9t+Vy+fj4+NLSEsgjlUrHxsaEwmVwqlAoRkZGKZQhHo8nlUpHR0f5fL5hG3QZRgYGBjgcjv66RqOZnp6mUqkymUx/LJVKIQja3NzkcrmDg4PDw8NgR6adnR2RSESlUtfW1oCE9fV1Nps9OTl5fk9O8FrTyRZ8LrAUvNakH1+nOVAoFDExBCwW6+/vHxMT09DQKJfLgUCtVisSiTAYXywW6+fnFxERUVFRoVAowLcKhSI8PAL7l+Tr6xsUFCwQCE7TmAPLSiQSY2OTx/YsB9oAU9MlYIZL8RbkXBt5ttRUVUXCYv2Ghx8TNbHZbBQKhcViu7q6m5qao6KiTExM8vPzNRrNgRPBeV/c2NggkUhNTc36h6Fj1nh6ajrXTgIL/w5qAI4GcczBC2c7sQYuhJq+g2P5DG8Z9ms6cW83LLi6uopAOPv4oCsrK5OSkszMzMzNLUBMl52dHRaL9frrb5SVlTU0NOTk5Nra2llb28zMzEAQtLKyYmRkhMfji4qKQSKRSOcRwUUsFn/xxdW+vj7DZp/3MUxNMDVdAg1cdmry8UEXFRUBSrl7925OTk5QUDCTyTzv4X2g/LW1tcLCQjKZDFPTGf6dhkVdiAb01KSLPP56ZSXpQppxTpWet1/TgfMDfHGPBmBqOqfufX5i91CTPobe+dX4eCQ/Zgu91dVVV1fXzMxM4FW4uroaExNz+/ad5eVlQE3vvPPu7Ows+JbH4928ebOwsAhQk5mZWUVFxZ6hdOanMDUd2PGeOfAqfPE7pYHTUNPKykpVVVVISEhOTi6HswhBUFUVKSAgoKWlpba2Njo6ur6+HhiEQBC0trbW29sbE0OIiIgcGBhcX1+HIEgul+fnF5DJdV1dXTgcrq2t7d69e6Ojo0lJSX5+fmg02tvbOy8vj8/n666PJSYmhYeH9/X13bt3D4IgNpttSE3b29vl5eWBgYHgnY1KpWpubg4NDcvMzGSxWFtbW2BmEQgExcUlYWFhNTU15eUVZDJZKpUqFEoisZBEIt29exeCoLm5udTU1M7OLlBErVa3tbWHhYWnpqbSaDTQeI1G09XVFRkZmZiYNDExMTs7l56eYW5uYWlp6eHh0dTUfHzLFnit6Ts16C7FzQJqevHFF2NjH7LL7aW4nT2NhKnpzB+zTiAQpqY93fLJP9VTk36/pie/zcdp4WOgJplMFhoaCuDHkJogCNrZ2WGz2deuXSeRSPupSSAQmJmZgxAvKysrB1LT+vo6hULJzc3Nzs7WR9QEkldWVkpKSjIyMnp6evXvl/v7+7Ozc7Kzc0C0GDB4t7e32Wx2dnYOkUgcGBi4evVL/VrTxsZGb29vWlr6/X20z88JAl5rugQrLccZTk93nhNT08TEBBqNRiJdk5KS/fz8U1NTeTxeVRXJ3d3D3t7B3z8Ah8NbWFhWV1dvbW3JZLKEhERXV9fk5OSAAJyRkTGJRNra2pJKpQkJCY6Ojr6+WDw+cGhoqK6u3tMTlZ9fUF5e4eHhGRNDAC4BRUXF9vYOMTExGRkZSCSysrJyc3MTUFNh4YO1JqFQiEKhfH2xPB6fy+WGh4d7eOzG+Q0MDEKhUBQKBQSkQqMxzs7OsbGxaDT644+v4PGBQqFQLpcHBwfHxMQAA+Lp6WkCIbatrQ2CIIFAQCAQ3N3ds7Ozw8LC3Nzcurq67t27l5WV7ezskpmZlZCQGBkZ2dTU1NLS4u7u4e8f0NjYaOi08NDnCUBNP/nJT1555ZWvvvoa/sAauHANvPHGm88//8IHH3x44S05jwa8/PIrzzzzzI0bNx51WfihYxnOcHwNAGp65ZVX+voGRkbGRkfHR0fHx8aoY2PU8fEJKnX3MzFBm5ig0Wh0Go1OpzMYjEkGY3Jyckr3mZ6aYk5NMaenWdPTLCZzhsWaZbFmZ2bmZmbmZmfnZ2fn5+bY8/ML8/MLbDaHzeYsLCxyOEscztLiIndxkbu0xFta4nG5fB5PwOMJ+Hwhny8UCJaFQpFQKFpe3v2IRCsi0crKinhlZXVlZVUslojFktVVqUQik0hkUqlcKpXLZAq5XCmXKxUKlUKhAqH/Vaq1p+/hYWFhEYl0/d3vfpebm/c03d15U5NWq11aWjIyMsZgfCEI2kNNEARJpVJvb5+AgABATW+//UcKhTI/Pz8wMIjHByIQCOD0CKipuLhka2trR5cgCJLJZB4eHiYmpjExMRiMr42NLYiQubGx0dXVdfPmLQTCOTw83M7OnkQiyWQyBwcHMzNzAiHW29vH1tYOUNb6+npjY+O1a9ddXd1wOPzt27c/+uhjQE1qtTosLPzWrdspKSmBgUHW1jZ6L83jD/bj5ISpCaamS6CBk1GTXC6Pi4sLD49YWNh1Pt7a2gLrKlVVJBcXZGNj07oupaWlRUdHg9G+sbEBYuutra35+flHRUUrFAqpVOru7m5vbw9s6oRCYVhYeF5ePvBIzs3NjYmJ4XK5VOoEDodvaGgAjzidnZ0JCQl0Op3NZnt4eFpb2xAIsTgczsLC0sUFOTAwuLOzU1paGhcXB3yjNRpNTk5uVVWVRCJNSUkJDg6enZ2DIOju3bsREZEPpaaampro6GgWiwVB0Pr6ekFBQXFxsVAoDAgIiIiIUKvVYPLSarXz8/OhoWEVFZWP+igGqOmyB1CC2w9r4HJpAKam4zzKnF8eQE2Xq888amv/iy59T5e+//3v/1dd+htd+sEPfvC3uvRDXfrRj370Y136b7r07IP0k5/85O9+8pO/A+mnP/3p3+vSz3TpH/7hH/67Lv2jLv385z//v3TpF7r0T7r03HPP/Q9d+mdd+uUvf/l/69L/1KV/0aV//dd//bcH6Vf/9m+/+tWvfv3rXz//618///zzLzz//AsvvPDiCy+8+OKLv/nNb37z/PPPP/fcc7/5zW9++9vf/j+69Dtd+vd///f/V5f+P1166aWXfq9L/1uX/n9d+sNuevkPf3j55ZdfefnlV1555dVXX33t1Vdfe+2111977fXXX3/jjTfefOONN998860333zrrbfefuutt99++49//OM7f/zjO++88+4777z77rt/evfdP/3pT3/6sy69p0vvv//+B7r0oS599NFHH+vSlQfpkytXPvnkk08//fSzTz/97LPPPv/ss88///yLL764+sUXV69e/fLq1S+//PKrzz//4qWXfv/ss8/a2NhA55N2dnZkMhl4LbufmuRyOR6Pvx/lAVDTSy/93sbGxs3N3cbG9q233iIQYhcXd815VlZWvvnm2z//+T1raxtraxsEwhm8mBYIBOCpSaFQBAUF+fv7a7VaHo9nZGScnp4BFp0UCsX29vbW1haPxwP2MgqFwsfH5354iZ2dHQ6Hc+vW7aKiYpCZyWReufJJX18f2KvAysoatFyj0aSlpYWEhJyHkmBqugTM8DS9LDnZvZyMmmZnZx0dnfLy8vdslbgnGkRmZmZgYNDc3DwEQWDxt6KiIiQk9JNPPvX3D1heXpZKpV5eXsnJyRsbGxAESSSS+PiE5OQUkUh07969jIyMlJRUkWiFTCY7Ozv7+vpGRUVHRUX7+mIxGAyFQmGz2Z6eKG9vn+rqajc3N29vb8A2Go0mMDDQ1NQU5I+KinZ2dsnKyqLT6W5u7ikpqYDxdnZ24uMTgoKCjlhr2tjYiImJMTU1i4iIBNKcnV0SEhK5XO590z4EwjkgADcwMADs+k5JTc8995yDg0NeXj78gTUAa+BcNWBnZw+vNZ3Hc88jyQTU9OMf/xg8lL/wwovgMR08sv/qV7/+t3/bfYgHz/P/qkv/8i//8j91CTz6/1KX/vmf/1nHBf/jOV36p3/6J4ANACF+/vOf/6Mu6fjiv/+DLv3sZz/7e136qS793d/tkslPfvJ3zz77E93n2f+mSwBjfqRLP/zhDwHk/ECX/uZv/ua/6tL3del73/vef9GlR8UqOP+To4FzpSbIIO2nJqlU5uPjo6emd955l8ncfVG7vb29uroaFhaGQDjr/ZqIxEKNLt29exe4Hmi1WpVK1drampmZhUajAwICtra2KBTKa6+9DvY2MKgc0mq1crm8paUlIyPDy8srNDR0a2urv3/g1Vdf01vf6f2a1tbWYmNjTUxMinSJSCRGRUWjUF6GAs/qGKYmmJougQZORk1MJtPJCVFQUPAwasoKCgqam5uTyWQpKSn+/gHt7e3z8/PpuylDKATU5K2nJgiCZmZmfH19jYyMLSwsMRgMWDsmk8k4HK68vLz/L2loaEgkEhn6NVEoFDQao9tlT61Wq0NDw/D4wL6+vxTo72ez2Uwm083NPSMj4/jUtL6+Hh+fEBAQ0NPTo5fFYrFAmL6VlZWysjIEAhEQgJucnDwlNb3wwos5OU+V2cPJSB4uBWvgvDUA+zWd1YPOaeQAavrTn/4kkUjP+xd/nPJBuH+lUg0M9oDxnkymAOZ8wLRvdVW6uioViyXA8E9nASgWiVaAWSAwERQIlvk6o0FgQMjl8rlc/tISD5gXAlPDhYVFYHwIDBHn5thzc+zZ2XlgpghMFpnMGWDEOKUzaJycnAYmjsDckU5n0OkMGo0OjCGBYeT4+AQwlQRmkyMjYyMjY8PDo0NDI0NDIxTKMIUyPDg4NDBAGRig9PcP9vcP9vUN9Pb29/b29/T09fT0dXf36j49XV3dXV3dnZ1dnZ1dHR2d7e0d7e0dbW3tbW3tra1tLS2tLS2tzc0tzc0tTU3NTU3NjY1NDQ2NDQ2N9fW7n7q6BjK5nkyur62tq62tq6kh19SQq6trSaQaEqmmqqq6qqq6spJUWVlVWVlVUVFZUVFZXl5RVlZeVlZeWlpWWlpWUlJaUlJaXFxSVFRcVFRcWFhUWFhEJBYWFBALCoj5+QX5+QVpaekmJqYXSE0ikQi8M93j1wRB0MbGRmdnJwLhPDU1faBfk0ajKS0tdXBwqK2tHRwczMnJweHwm5ub3d3db7/9x9XVVcNBura2VlBQ4OLi0tDQMDhISU9PDw0N29jYvP+LvP32H/dTk1q9FhUVbW1tU22Q6uvrDWWe1TFMTZeAGR7nTPpk1nUyapJIJGg0OiQkZHn5wY4iYNjsW2t6QE2dnZ2+vr4guIJarc7MzEpLSz+QmsrLy4uLi5eWlsRiMQj5ADa29/DwrKys2rN/riE1qdXq7OzswMCgyckprVZbVFQcFRXNZi8YjmeZTObv74/D4UGzt7a2CITYwMBdvyaNRhMcHBIREaFUKiEIGh4eDgoKBn5NlZWVYWFh09OHxuVbWODExsbV1NTMzc3FxMSQSKTjx4EAzZuenr5+/TpMTU/mGDnXVnE4S/n5xOLiEoVCda4VwcINNQBTk+HEeFHHTys1GfY0+PhSaOC8/Zr2DLE9a0337t2rq6uzsrLeH0NP5xew0d7eYWtrOzc3t5+atFotm81+5513wa5NGo0mPz8fh8Pv7OzMzMz84Q8vDwwM6GsHSPb662+AMF1ra2uZmZmhoWHb29tUKvX3v//fNBoNZBaLxZ999jmIvFVeXm5pabnnYU8v8wwPYGqCqekSaOBk1LSzs9PY2Ojs7BwVFdXY2FhYWFRaWra0tHQYNVEoFE9Pz4SEhO7unszMrG+/vRYcHLKfmrRabUFBQUhIKNgCksfjqVQqrVar0Wiys7NdXFzy8vJ6enrKy8spFMrGxoYhNUEQNDU1hcX65ebmqlQqBoOBwWD8/Pw7OjoHBgZycnIGBylarbahocHc3CIkJLSlpTU1Ne0//uMbPB4vFAq3t7eLiooQCER2dnZRUVF09K5XJaCmmZkZHA6PwWBaWlr6+/szMjK6urqYTGZKSkpeXv7o6GhZWRkajW5tbV1fX8/Pzw8NDWtpaWGz2cdnJ5iaLsVf1vNoJIez5Obm/uyzz3755VdtbR3nUQUsc78GYGo6w2edE4uCqWl/z4SvXIgGzpuatFotl8u1srIOCQkF0SBcXJDR0TFLS0t9fX1JScm3bt0uKysDPkUsFuvtt/84PDwsl8unpqbIZLKlpSWBEKu30DOMPK7VajkczjvvvEsmk0dGRqura8zNLXA4PARBCoUCjw+0sLBsbW0bHBwkk+vq6upmZ2fvO5I1NjaOjIxUVlYaGZmEhobpmiRxcHA0MzMfHBzs7+/H4fDArwm01tbWNigoiEqlzs3Ntba27tll+8QzwJ6CMDVdAma4kPH5RFV6MmoC2whMTEzg8YFmZmYBAQHj49Stra3CwiIfH5+xsTEwGLKzs8PDIzgczvr6eltbGxqNRqFQ1dXVBEJsUlKSUCiUSqUEAqG8vEIfFnxwcNDNzd3IyNja2sbU1MzIyDg3N0+qSw0NDb6+WCcnp6io6PsR/MD29mFh4ZWVVcBQcHt7u7i4xNnZpaenB8S+y88vcHV19fDwKCsrW1lZAfNIS0sLGo1BIJzvb/Tk5+cH/JogCFpeXs7LywPyh4eHc3PzGhubwI0sLy8XFRW7ubm7ubkVFRULhcsazd3R0TECIRaJdA0IwLW3t6vVagiCZmdnY2PjkEhXEokEruyZFw48hanpiRoUj7MxgJqAZf9zz/0PFxcklTrxOBvw3azrMGrSarX62DZgljvidP9Y1mq127p04FeGovZnOM4VrVa7ubm5vr6unzCPU+oM81CpVE9PFHghTaVSUSiUYZjjR60Ipqbv5uh7Au/6MVCTUCj09vZJSkoGLtzOzi6ff/6FtbW1o6NjaGjY4OAgCCKl1WoXFhY+/viKqamZtbWNo6OTn59ffX0DcAoA2+MWF+/GbNCnu3fvVldXI5Guzs7OOTm5AwMDaDQafLu2tpadnWNkZHTt2rWIiIilpaW7d++Wl5c7O7u4uLiACOMAsba3t2dmZvB4/M2bt9zdPRoaGj09UUNDQ3qn9ODgYBsbGycnRHR0DNhLSt+AszqAqQmmpkuggRNT01mNE0M58/PzGRkZvb0PtqPe3t6uqKgIDw+fmpoyzHZWx4bRIM5K5snkwNT0BP4dfTxNMqQmwE4vvvgbAiGWy+U/ngZ8N2s5jJqYTCYWi01OTgEDeXZ21svLG4/HgwcaPp8fFxcXHR194DDf3t4eHBy0t3fIycmBIGhzc1OhUIDAVrqV8Gkk0jU8PPzAsse5uLKykpOTc+3a9d///vcffPBhYmKSWCw+TsH9eTY3N+Vyub5t+zMcdmVoaMja2mZ4eASYMdvY2ILnqsPyH30dpqbv5uh7Au/6vKnp6IEAfws0AFPTJWCGJ3D0PuYmPVHUxGKxIiIi8vLyxGLxxsYGg8EICQnNzy+QyxXnMa3A1PSYOxtc3X4N7KemZ5555nvf+95rr712f/ez/fnhK2eigcOoSSgUJicnR0REgDe7/f0DH398xcLCEmyfMDMzExMTU1d3qCc0l8utqqoCu2zz+fycnFy9LY1YLG5oaATL4CeYzfh8fkxMjKOjU2tr6+Li4sDAQGxsbEtLywlEQRCkm2kj+/v/6vBwTDkwNZ1J94OFPGkagKnpmDPAuWaDqQmmpkuggSeKmrRaLYPBIBBiEYjd9ePg4JCGhsY9EWDOcNDu7OxkZmbFxcUB470zlPyoop7ktabJyWkHB0cQ0hf+98w18Itf/OLZZ589MPbuT3/69zdu3Ozu7n3SnjCegvYcRk3r6+tEItHKylqpVAG7Ymdn55SUVGB1PDIy4u8fMD4+rh/gWl3SnxoecDiLyckpFRUVhv6NYM3KMNuBErRaLdgFbmdnBxgNNje3WFhY3m+AYVnDY1Bkv3yQx7AWrVY7NTUVGhrW19e3P7/hlf0yj6YmrRbStVe7p2H6NhhehyAIXmt6CobS03ELMDXtGZsXcgpT0yVghqdjwJ/mLp4oarqQgfokVPokUxOdzrhz586Bj/XwxfPWwEsvvZSTkysSiU8zxuGy+zVwGDVtbW11dHT4+mKnpqYkEklpaSkej8/JySGRSFqtdnBwEI8PnJ9nq1Sq5uZmFMrL1NTs5s1bRGIhQKOxsTF3d4/q6pqxsTEjI+MPPvjw44+vmJiYRkZGzc+zQ0JCU1NTIQii0+nBwcGlpWUREZGffPLpjRs3m5oeuFBKJJKysjIkEnn79p333//g22+vhYdHjI2NxccnhISEHOgqqVKpGhoara2tP/vscxcXZH19PSCf6enp0NDQkpISAoHw2Weff/vtNTK5DoKg8fHxr7/++s0337p+/Yabm3t1dQ2VSvX29ikrK/P29ra1tZ2amlpdXSUSiebmFl999TUOh9Ob4R1GTZubm3Q63c/Pz8bGxtXVraysTKPRbG9vDw0N+fn5NzU1WVhY+vru7uBpON/C1LS/Z8JXLkQDMDUZDsyLOoapCaamS6ABmJouaoIwrPdJpia5XMnl8sG+H/C/Z66BgQGKtbXtfvr61a9+FRQUPDfHvpBniKe+0sOoCbjroFCopqbmmZmZhISE8vKKggJifHyCXC4vKyuLj4/f2dnhcDhEIrG1tZXJZJJI1c7OzmADEx1+eJNI1Ts7O3Q6HY8PLCkpuXv37ubm5sLCQmhoaEJCIgRBk5OT1tY2N2/eKi+vGBkZycjIQO8RMZwAACAASURBVKPRCwsLarX6/r4Fvr5YNpstEolyc/P8/QP4fP7c3BwW6xcdHWM4aYDj7e3tvr4+Ozv7wsKiyckpEolkZWVNJBYCMzx7e4dr166XlpaOjo5mZ2ejUF5zc3Obm5udnZ329g5dXV2bm5tarZZOpxsbm5iampaWljKZLB6PV1ZW5uKC7OrqHhsby8vLc3V1Gx4ehiDoMGqamZnBYHzT09OZTGZ7ewceH0gmk7e3t9va2t95510cDjcwMLi4uLin/TA1PfUD7bLcIExNe8bmhZzC1HQJmOGyDOnzaydMTRcyO+yp9EmmpvPre0+BZJVqTX8Xhsf6iw892O/X9I//+I+WlpYUyvBDy8IZTqyBI6hpfn4+Ojo6Nzevv78/Li6ex+P19fUHBgaOj1MLC4vy8vL2DN6FhYWoqKiMjEwIgvTUBEEQk8kMCQmprq4G+fdQk68vtqSkFCwKUSgUJBJJoVBEIlFKSkp4eASIW9XS0ubkhBAIBLOzs35+/omJu8S1J3E4nMDAwIiICBBVT6lU5ubmWllZLS4uslgsPz+//Px8sMIzOjrq4oLs7e3VarUUCsXR0Um/kQudTre3d0hPTwfCaTSaq6tbTU0tOOVyuSEhIYGBgRqN5kBqUqvVNTW1QUHBGxsbIE5pRUVFRETk9vZ2c3Pz1atXDW0aDdsPU9OJOzBc8Gw1AFOT4cC8qGOYmmBqugQagKnpoiYIw3qfNGqSyeQSiexkGHC2f8z2SOPzhcXFpZWVFx8mQSZT5OTkBgTgBIJl/TGPJ9jT4MNOZ2bmiotLW1vbDKnpb//2b9977/36+obDSsHXz0oDR1CTVCq9j0b+/gG1tbUEAkEmk9FoNAKBUFtbm5ycTCaTQURyLpebnZ193+oMi8V6eXllZ2efgJrAJDA0NIREInt6ejY2drezRKMx4+Pji4tLyckpkZFRSqWSw1kMDg6OiIgwdDoCZXVB//zA4hII3NfW1o5AOFOpVBaLhcX65ecXgJxjY+MuLsj29vYDqcnd3QNgklarHRoacnR0AotLEATJ5fKMjAxzcwuZTHYgNYlEK2Fh4a+++pqFhaW1tY2VlbWpqVlYWPjm5mZra+udO3cO290Fpqaz6s+wnFNqAKYmwweSizqGqekSMMMpR9pTUBympouaIAzrfXKoiUIZ9vcP+PDDj9BoDJ8vfDw9fHVVurjIPY73TlNTS1xcAp0+eYYNW1mRCAQipVL9SDKlUnliYjIS6bq0xDM45h5TiFgsKS4uub+54czMrJub+zPPPPO73/17ZmaWWCw5pgQ422k0cAQ1qdXqiopKDw/PvLy8rKwsCIIWFhZSUlIDAwNDQ0OHh4e1Wu34ONXPz7+urk6lUgkEgoyMjDOhJmBWFxIS4u/v7+7unpOTw+PxIAiSyWRJScn3928RCASG8wZY0fLx8UlLe7BMpFavVVfXoFBeU1NTJ6MmCIIoFIq1tQ2FQgF1icXilJQUDMZXqVQeSE0SiSQlJQWBcNZoNPogFjs7O9vb2zA1naaXwmUfmwZgatozsVzIKUxNMDVdAg3A1HQhs8OeSp8cahoZGc3JyTU3t/Dy8ubzj7tycsq/bePjtISEpPr6xqPlSKWK4uLStLSMs0WL6uqamBjC4uJxgQc00oCUTkJNarVmeHg0JSWdRKohEOLQaN/padbRtw9/e4YaOIKaADYgEIj4+Piuri6wJWVeXv7Nm7dCQ8MkEunW1lZ1dbWdnb1IJNrZ2ZmfnycQYvdTE5vNjomJKSoqAoP9QAs98JV+rWl9fb29vQPsg2k4Rezs7IyMjFhZWYeEhEokEgiC1tbWBgYGmpubV1dXMzMzsVg/sHcTl8uNioomEAg7OztHUNPk5CQOh29tbQO10Ol0/VoTBEFsNjswMCgmhiCVSnVeTwwkEpmTkwv8mmxsbEAov+HhYbBf071795qbm5FI5B5LPJiazrDHwqLOVQMwNRlOOBd1fCmpaX6eTdMlkWjlnPoom70AqlheFp1HFXr5QuG5yF9Y4ID2C4XL59F+DueBfIHgXN70cziLoP1A/lNJTdu6tN+a5aLmgofWe7bUxOXywE/M5fJO0EVlMnlYWLghNSmV6pWV+5uSS4E0Ho8/MTExPj7O4SwCKz6Vak3/USrV+otKpVqhUO2x9FOp1uRypf66SrVGoQxFRUWTyfXgIo/Hp9FoExMTCwscwyWg8XFaSkpac3Or4U0plWq5XGmYTa3WKBQquVy5v161WqNSrS0tcScmJmg02uLiklyuLC+vjIiInJmZA7WDG1GrNUqlWi9WpVpTKFT6NqvVmqOpic8XUKnU8fHxhQWOvrV7VLS4yM3LK8jJydMrVp/zoQcCgRD8xBzOX+U/tNTxMwiFy0C+YfuPX/yhOYVCEZDPZi88NPMJMiwvP0T+0dQ0Pj5+7dp1ExNTNnsBuBjV1dW9/PIrXl7eW1tbWq12dHTMyQnh44OOiIj08/MLDg7ZT00ymYxILLS2tgkJCS0tLTsONe3s7PT391taWgUGBiUlJaWlpZFIpIWF3TZsbGz09vZaWFgaGRnb2tqZmZk7Ojq2trZCEDQzM+Pl5W1jY4vHBzo7u/j5+YNmH0ZNEATxeLzw8AgrK6ukpKS2trY91LSxsTEwMOjo6OTq6hYYGGhtbRMVFQ02sBofHzcyMkpMTNzc3KRSqcbGJnFxcRsbG2KxOCMjw8LCIigoKCoqys/Pr7Gx8VypSSxeBV1odnb2BD3koUVWVyVA/szMOcmX/kX+zEMbc7IMEsmDKlisc6lCItk1XqXRaCzWubzxkUrlQD6TyTyZBo4upZc/Pc2EqemhTymPIcOZU5NCoQJdiMFgHN0ZjvntM/vzwdS0Xyd7rsDUdCaDZ3BwMCaGoA9oOzc3l52dMzAwAFBHIBBkZWV1dXXx+fyysjJgFXPMenW7MGUmJSWDl7LHLHWx2Z5wampqarG0tE5PzwRE1NPTi0QiP/zwwytXPgkNDZ+aYlKptKSk5MTEZBwOb21tSybXLy5ys7JybGxsLSwsAwLwg4NDKtUany8sKSl1cXG9dev2rVt3CguLpFJZVVX1f/zHt++88+6nn352+/adzMysxcUlIpFob29vZGRsZ+eQl1cgEOy+oejo6EpJSZuYoIMhubjIzcnJvXbt+htvvGViYtba2qZWa5jMmbi4hGvXrn/99df+/rj+/kGQmUSqCQkJLSgotLCwevvtP5qZmVVUVExPs4jEovfee//119+4fftOVFQ0izVTU1MbFhaemZl17dr1oKBgkUg8PDyKwfh++ulnX331NYEQCxaFjqAmHk+QnZ1z586d69eve3p6dnV1K5XqxcWl3Ny8yMjo2Nj427eNgDJrasixsQlC4SO/ooKpac+0vOf0lNS0urra3NzS1dW1sbEJZoalpaXS0lK90ZpWq+Xz+WQyubu7WyRaYTAY/f39gEZqa2unpqZAKZlM1tnZWV1dw2BMrq6utre3j46OQhAkEAjq6urodDrIxuVya2trFxYW1tfXe3p6AgICioqKCgsLMzMzfXzQWKyf3i9IKpV2dnZWVlZ1dHSIRCv6WUsmk3V3d1dWVlEoQyAkAwRBIpGovr6eSqWCbHw+v7q6en5+HpxKJJKmpqba2loWi8Xn86uqqqanp/UCtVrt6upqU1NTZWUVlTqhjxiuVquHhoZaW1vF4lWDYzEEQevr6yzWDIlUXVtbOz09DfZ6WlpaamxslMvlesmGB6fxa4KpaU+f338KU9N+nRheganJcDA+CccwNR1sn6ZfC4LXmgwHsP74O7LWxGAw8Hh8eXk5eIXZ0NBw5conCQkJ4E/+xMQEFutXX18/OjqKxWKrqqrW19ePOap3dnYIBEJwcIhIJDpmkQvP9oRT0/j4REJCUkNDk1qtoVCGXVxcXVyQJSUljY1NPT298/MLVCoNgXD+4ourWVk5DMakDnsK0WjfpqYWHVCl+Pvj6PRJGo1RVFTa2NhCozFycvKcnZE1NWSlUt3c3IrF+tXUkKVSuUKhampqtrW1CwoK7u7uIZPrcbig8vJKtVpTWlqOxwcxmbvvNcViSXb2LpUVF5fQaIy6uvqWlralJV5SUoq3N7q1tX1wcDg+PsHDw7O3tx+U/fDDj11d3draOiorqxAIBBqNptMZKyuriYlJbm7uDMYUWFkiEos+/vgKFuvX0dE1P78wOjru44PB4QKHhkZaWtr9/XF4fCCLNXMYNSkUqqqqamdnl4yMTDKZHBUV5euLHRujLi4u4fGB77//fmJiEpVKW1raNQgkkWqwWP+pqWn98D/mAUxNRyvqlNR0URPC3NxcYmJSR0cHaAAIEe7jg56cnLyoJp1rvTA10Wi0mZlzWQhSqzUwNR09S8DUdK6j+wTCLyU1Hd3J4G+fPg1clIWeUqn08/OLi4tXq9UbG5sFBcRbt25HRERwOBwIgtra2ggEwsTExNbWlkaj0b89Pc44hKnplL10v4WeXqBKtZaXV+Dl5TM6Oq6/qFZrqFSam5t7aGg48Djq7x8MCMCVl1cAGzkqlUYgxFVX1+qLqFRro6PjAQG43Nx8tVrT3t6Bw+GamprVas3qqjQ9PTMyMhoEh+DxBOnpGVlZWQqFqra2LiEhic1eVKs13d29bm5uWVnZhmZ49238kEg3MrkeVDQ+PoFG+0ZGxiwvr5SVVXh6eoFw3nK5MiMjE4VCzc7OCQTLBEIcBuOr92vKyyswN7fs6uoBRnqFhcXe3j76+BNNTc1IpGtlJekwahofnwgJCc3PLwANm5ycJhDiiMQiQE0IhIu+IrVaU1tbFxCAYzDOMriFXsnwwREaONpC7zjzzHnk0UUeT3VyQtTW1vb09GZnZ7u4IInEQv1Sz3lUeoEyT0NNR/y48FewBh5VA7CF3gXOA/qqz5yaHrUbPDT/ARZ6Dy0DZ3jKNHBR1LS1tZWUlBQbGycSrWg0mtzc3NDQ0JSUVOBnTCQWxsQQOByOSCSqq6ufmJgAPspNTU0sFotGoxUWFtbX1y8vL+vHm1QqbWtry8/Pv+/A7e8foF9r0mq1HA6nqoqUm5s3Ojp67949CIJmZ2dLS0uB2K2trd7eXjKZDNamVlZW6usb9rg162s5p4OzXWs6ZRc9gprEYkl0NAGD8d3j7kKl0tBoTGpqOqi6ra3dysr622+vWVhYWlhYmpiYWlhYlZdXKpXq0dHxmJhYFMoLjcbongiL9lDTwsKit7fP66+/oStlaW5uceeOcXJyqlgsqa0lp6Skcrl8tVrT3Nzi7e2jByRQb3l5JQrlrbfK43L5ISFh3t4+S0vcsrIKNzePgQEKYKHMzGw3N3cmc2Y/NRGJhUikG7ADFInEBEKsh4cnh7MEqqBSJ3x80LGx8YdRU1/fgK2t3dWrX4J7NzU1MzU1y83NX1xcCgkJ9fcPUChU+h+ITK4LCMDrkUx/HT44bw08mdQEwjwMDw9nZ+ekp2e0tLRKJJKnFZkgCIKp6bz7OSz/mBqAqemcnm0eSSxMTQdb6B2zE8PZHo8GLoqaIAiqrKwMDg6m0+kMxmRsbFxhYWFQUDCJRFIoFGlpaWVl5RrN3aUlrpeXd25u3s7ODp1Oj4+Pd3JyQiJdPTw8jIyM09MzpFIpCL+Lw+EsLS19fNBIpOtHH30cFBQkEom0Wu19E3wHBwcXFxcs1s/a2jomhsDlchcWFsLDI4qLS+7du6dQKPB4/M2bt3p6eiAIGhgYCAkJAbGzHmnAnybzZaEmqVQeFRWDQnkvLOwu+Og/e6ipvb0ThfICa036EAgq1VpTU4u/f0BNTe3y8gqLNRsXF19YuJeaeDwBDoe/790uFIoMy6rVmrKyiqCgYCZz16ClqanFxQVZWlqmbwMww0Mi3Xp6+sBFJnMmNDQ8MjKaxxOcjJokEllcXIKrqztANWCg6OfnTyQWHkZNAwMUb290Tk6uYeNVqrUDqQlY6E1OPrKFnuFdw8cn0MATS02nmUYuXVmYmk7QdeEi56EBmJqehNkDpqa/PlSdRy+HZZ6JBi6Qmrq6unx9sZ2dnU1NTZmZmePj42lp6bm5udPT0zgcrqioWKvV7qEmBAKRmJioVCohCCKRSAEBAWNjYwqFMjExCY/Hz8zMgJ3p8fhAnR+/aH5+PigoOCsrW6FQQBBEpzN8fbHl5eUbGxsxMYSwsDCJRDI2Nl5YWBgSEtLQ0LCzs1NSUhoeHjE3N/c4J5EnkJq8vX30+zUtLCy2tXVMTNBUqt3dYBwcHIuLSyUSmVQq53CW+HzhHmpisWbDwiIiI6MNrdGUSnVaWoa3N3p2dh5Y6AUFhRCJu9TU3z8YGBhMItWo1f+nvTeLais7931rj7F3XvKSlxqj9tseuSPZZ9xzkzvG2ZU7zk3tnJObVE5VJdlJdpKqSqXsct/TuME22IAxjTtsMD0G07em7xvTY7Cx6UwnAeol1KEWLWSbxqwbmNQ6CghZ2FpCC/01eFhamuub3/xprU/+eS5NWU2muYKCQn//0+3tHeQmN4tldeE7irK2tLQlJaUSxxgZGQsLC795M5rMAs3MqKRS+dOn/aGhVxITk8mvzTY3t5w5c458J2ora9Jqdfn5BVevRjCLTNjONVGUta6uwdfXv7S0zGg0zc7qc3Lyzp4N6Ol5/K01nZXLZ4xGc1LS+m83iUSSu3fjo6KubxBLu9ZUX994+3aMSMTKOnguqQ+7NQisyZ31bau+YE279fri3LhgTVtdpO7cD2uCNXGAwA5ak0AgvH37TlFRUXZ2dklJidFoLCwsSkxMfPjwYUJCQldXF03TG6wpMDCooqKSXMYPH7aEhIR0d3fL5fKzZ8/eu3dveXmZpmnb7zW1tbUFBJxvamoihxgMhsTEpDt3YqRSWV1dXVRU1NDQUGNjY3l5eVpael5evkajzc7OLiwsevHihTuLhYdY0/S0sLCw6Nat6M8//+L3v//D9es3iooeCIXihoamPXv2JiYmmc2WtS8a3d+z55sjR44dP37Sx8evtrZ+gzVRlPXRo94zZ84eO7a6GvK5c+djYu4KBKKmpod/+ynM8+cvhoaGBQeHBgYGEWsSicQxMbFHjx4PDg6tqqoRiSQJCYkHDx66fDk4LOzqhQsXq6trKcr69Gl/SkpqV9cjsoB4a2v7yZOn9uzZe+jQ4f37D96/n6lUqmtq6o4fP+nvf+bixSCy7h/5qtVW1kSW5vP19fP19U9Luz88PLLBmpRKdVZWzoEDh86dC/D19T9w4GBJSSlZ3DwjI+vPf/68trZubo7KzFxdza+mpo78ENPf1m0/fPhweHj4xYtBN26sLjO42ZpkMkV2dk5Ozuo3u/DnZgKwJnfWt636gjW5+bRHd1sRgDVtdZG6cz+sCf8U4ACBHbSmubm5kJCQGzduJiQkNjQ0rKysPH78ODU1NS4uLiYmZnBwyLE1tbS0hoaGdnd3T09PnzlzJjMzk3wBwNaaWltbL18O7ujoIFe+1WpNTU2NiromFIpGR0ejoq6Vlpbm5OTU1tZ2dnampaXV1zfcuRNTU1PjzkpB07SHWJNUKm9qasnPL2T+Wlpa5fIZiUTa2dnN3EhmscyPjU1UVFTV1NSSFe3WJqPahodHbD+TxGJpc3NLaWnZw4ctZDrFYpmfmOBXVdV0dnZLJLInT56S5RkoyioSSRobm6uqasbHV3+aw2SaGx0dJ11MTPDJXJNIJElJSc3LK2B6EYslTU3N5eUV3d2PyPwSRVmnp4W1tXUVFVUjI2PkQIqyjoyM1dc3CoXrvw70/PloS0srOWRujuLxJqura5ubW4RC8cjIWFPTQ9tZMotlnsebrKysqq2ts/0tWolE2tz8sK/vqdlsWdtuefLkqck0R1FWmUzR2tpeWlre2Ng8PS2kKKtKpenu7iErsJP8R0fH09LuNzaurkyIPzcTgDW5ucTZ7Q7W5ObTHt1tRQDWZPcKdfNOWBP+KcABAjtoTfPz8/fv37927VpsbGxPTw9N00KhMCEh8fjxE3FxcWQxPQdzTYw1aTSa8+fPR0REkh9oev36dUxMbFRUlEaj6e/vv3jxYnFxMVm4fHZ29vLl4MjIqNnZ2fn5+YiIyNDQK7m5uY8ePZLJVn9O58aNm3FxcWRFCnfWCw+xpq0+UTxkv8UyX11dm5ycKpO9za/3esgoSBoGg6mqqub27RjyNS2Pys0bkoE1ubO+bdUXrMkbrjVOjBHWtNVF6s79sCYOOAMnrmdWk9xBayILQhw4cODatWvT09M0TS8uLqampn7yyafZ2dnkHjlnrOnVq1fZ2dnffLMvPT19YGCwoKDwiy++JN9rWlxczM8vOHfuXGlp6cDAQFxc3OnTp4mhLS8vFxYWnj177v79+9PT0xaLJSsr6/DhI1lZ2Vrt6o82uvMBa3LyJJ+cnE5NTSsrq3Cyvcc2k0ik2dk5hYXFHpvh7k4M1uTO+rZVX7Cm3X2VcWh0sKatLlJ37oc1wZo4QGBnramv7+mJE6diYmLJ79y/fv26pKRk//4DVVVVi4uLa3foyaKiosrLy1dWVoaHh8PCwhoaGshl3NDQePly8KNHj2ia1uv1paWlPj4+hw8fTk9Pj46+ff9+hk6nIy/97Yso586dO3ny5PXrN0ZHR5kq0N3dfezYsdjYu1qtlqbpsrLyL7/8S0ZGhsViYdq4ZwPW5Pznq15vJF9Vcv4QD2xpsczrdIZdMBAPZOtMSrAm91Q2x73Ampw5V9HGDQRgTY4vVfe8CmvigDO44Wr08C521prccyl6fi+wJg+/TJDeLiMAa/KEqghr2mWXFXeHA2vyhIIAa4I1cYAArMkTigWsibsft8iciwRgTZ5Q92BNXLx2dmXOsCZPKAiwJg44w668/rc1KFiTJxQLWNO2Tlo0BoF3JABr8oS6B2t6x9MYh7uKAKzJEwoCrAnWxAECsCZPKBawJld9+CEOCDhDANbkCXUP1uTMuYo2biAAa/KEggBr4oAzuOFq9PAuYE2eUCxgTR5+mSC9XUYA1uQJdQ/WtMsuK+4OB9bkCQUB1gRr4gABWJMnFAtYE3c/bpE5FwnAmjyh7sGauHjt7MqcYU2eUBBgTRxwhl15/W9rULAmTygWsKZtnbRoDALvSADW5Al1D9b0jqcxDncVAViTJxQEWBOsiQMEYE2eUCxgTa768EMcEHCGAKzJE+oerMmZcxVt3EAA1uQJBQHWxAFncMPV6OFdwJo8oVjAmjz8MkF6u4wArMkT6h6saZddVtwdDqzJEwoCrAnWxAECsCZPKBawJu5+3CJzLhKANXlC3YM1cfHa2ZU5w5o8oSDAmjjgDLvy+t/WoGBNnlAsYE3bOmnRGATekQCsyRPqHqzpHU9jHO4qArAmTygIsCZYEwcIwJo8oVjAmlz14Yc4IOAMAViTJ9Q9WJMz5yrauIEArMkTCgKsiQPO4Iar0cO7gDV5QrGANXn4ZYL0dhkBWJMn1D1Y0y67rLg7HFiTJxQEWBOsiQMEYE2eUCxgTdz9uEXmXCQAa/KEugdr4uK1sytzhjV5QkGANXHAGXbl9b+tQcGaPKFYwJq2ddKiMQi8IwFYkyfUPVjTO57GONxVBGBNnlAQYE2wJg4QgDV5QrGANbnqww9xQMAZArAmT6h7sCZnzlW0cQMBWJMnFARYEwecwQ1Xo4d3wVhTdHR0DQcflZWVZWuPyspKDqa/nnJVVdUXX3zxgx/8MCsrx8NPGKQHAruAAKzJE/6RBGvaBZfS7hgCrMkTCgKsCdbEAQLEmt7DwwMIwJp2xwcwRuH5BGBNnvCPJFiT518pXpIhrMkTCgKsiQPO4CUVwcEwu7t7fHx8P+Hs40c/+tF3v/vdf/7nf/7oo484O4j1xD/99DPMNTk4V/ESCLiKAKzJE/6RBGty1fmMOO9IANbkCQUB1gRrAgHWCWRkZP7wh//6+edf9PcPvmPdxOEgAAJeQoBY0wcffPArPHaOwIcffvid73zn5z//uV5v8JITD8P0TAKMNe3du7cXjx0i0NPTU1pa+k//9E+/+93vPfM8eW9zWkKhaGTtodFoN7/qkj0ikZh0oVZrXBJwQxAmvkrFSnyxWELyV6nUG7p2yVOJZD2+UqlyScANQSQSKcmfpfhSqYzEn5lRbujaJU+Z+ArFDEVZ2bAmmUxOhkC6cEnatkGY+HK5wna/q7blcgXJn6X4CsUMiS+TyV2Vs20cJr5UKrPd76rtmRklyZ+l+BRlVSpVpAuJROqqtG3j2MSX2O531bZKpSb5i8UsxdeQ+CKR2FU528ZRq98Qn1iTB9yWixTeeztrmp3VkVNoenra9q131bZOpyfxp6ZYim/4Nv6Uq3LeEEevX+9icpKVLvR6IxnC5OTkhq5d8tRgMJH4fD7fJQE3BGHi83h8Yk24Gj2BgAutyWy2kFNobGxsw7v/dk9hTW8zEwJrcny2MVYDa9oKFKxpKzJkP6zJMZ+/tzKWrGaXW9P0tLCiouqt/woLi5LXHpmZWW8dxPGBhYXF33aR6bjl271aVLQePyODpfgPSP4ZGRmOM2xv73yLuSZY0xurBKzJMaIN1pSaeu/DD3/iwr9/+7cPf7T2+PGPf+zCsEworsf/8MOf2B3CT37y/7hqrgnW5JTkYK7JcaXAXJNjPhRlZawGc012WTFWg7kmu3z+3mow12SnbqtUb5gL2gqsk/vfONfkZJytmqnVWvJfmEKhaKs277hfo5n9tgvhO4aye7hWux5fIGAp/vpckEAgsJvAO+6ENb0RIKzJMSJba3Lc8u1eNRrN5BLm8XhvF8HxUSbTevyJiQnHLd/uVZNpjuTPUnyKsjJWMz4+/nZJOj6Kic/iXJPjDPAqCHgaATbu0PO0MSIfEAABEAABEAABEACBHSRg5w69HcwGXYPAWxCANb0FNBwCAiAAAiAAAiAAAiDgPAFYk51bR5zHh5aeQADW5AnvAnIAARAAARAAARAAgV1MANYEa+I8lxpqTAAAIABJREFUAVjTLq5QGBoIgAAIgAAIgAAIeAIBWBPnncETTqOdzQHWtLP80TsIgAAIgAAIgAAI7HoCsCZYE+cJwJp2fZ3CAEEABEAABEAABEBgZwnAmjjvDDt7Arm599jYu//+7z/LyMiam6OYrmFNDApsgAAIgAAIgAAIgAAIsEEA1gRr4hKB06fP/MM//EN4eASsiY1ygJggAAIgAAIgAAIgAAJ2CcCauOQMdt9Cr9oJa/KqtxuDBQEQAAEQAAEQAAEPIQBrgjVxiQCsyUMKB9IAARAAARAAARAAAa8iAGvikjN41alpd7CwJrtYsBMEQAAEQAAEQAAEQIBVArAmWBOXCMCaWC0HCA4CIAACIAACIAACIGCXAKyJS85g9y30qp2wJq96uzFYEAABEAABEAABEPAQArAmWBOXCMCaPKRwIA0QAAEQAAEQAAEQ8CoCsCYuOYNXnZp2BwtrsosFO0EABEAABEAABEAABFglAGuCNXGJAKyJ1XKA4CAAAiAAAiAAAiAAAnYJwJq45Ax230Kv2glr8qq3G4MFARAAARAAARAAAQ8hAGuCNXGJAKzJQwoH0gABEAABEAABEAABryIAa9q2M1gs82azxWy2WCzzHniu9PY+KSkp4/Mndzy3/v6BiIiouroGirIODAxFRl6rra13PqvGxqbKyiqFQml7CKzJlga2QQAEQAAEQAAEQAAE3EMA1rQ9axoZGb1589aRI0cPHTocGhr27NnA3BzlhrfKYDAaDKY3etrsrD45OTU3N1+pVLswK4PBaDSatxvw6dP+s2fPFRU9oCjrs2cDZ88GFBUVOx9keHgkNjauubnF9hBYky0NbIMACIAACIAACIAACLiHAKxpG9Y0N0elpqYlJ6f29Dx++vTZlSthoaFhz5+PuuGtuncvPTX1nkQiddzX4OBwUlJKT89jx8229apSqb57N666umZbR1GU9R2tyWg037+fWVT0QK83Ml3DmhgU2AABEAABEAABEAABEHAbAVjTNqyJoqxqtZb5R3xR0YPTp892dHRRlNVoNJtMcyy9bRbLfFra/eTkVJFI4riLgoKi1NS0qSmB42bbelUoFN++HVNVVbPdWbV3tCaKsjY0NMXFJfT3DzIJw5oYFNgAARAAARAAARAAARBwGwFY0/asiXljzGZLUlLKpUvB/f2DCoUyMvKan5//kyd9FGXV643V1XUHDx7+5JNPfX39urq6Taa5pKTkmJi7GRlZBw4cunMnRiyWDA09j46+c/z4SR8f38LCYrl8hqKsY2MTKSmpfn7+f/rTny9duvz8+ajRaEpJSf35z/+/X/zil19/vScmJpbHm1QolLm5eb6+fkePHouNvTs+ziPmlpJyr7KymvG3kZGxO3div/zyL59//mVSUopQKLZY5nt6ngQGXvr97/9w8ODh0tJyci+fSqWNjY3Lzc3Lzc3/6qu/fv31npKSMrVa++hRz4ULF//n//z5J5989te/fl1VVS0UiuPiEtLS7sfG3t2zZ29FReXsrL6ysvrgwUO//e1/nDlzrru7x2y2OJ5rGhubiItLOHny1KlTvtnZuRKJjKKs5eUVMTGxubn5AQEXLl8OGRoaHh/nxcUlNDY2M9hhTQwKbIAACIAACIAACIAACLiNAKxp29Yklcrb2tqjoq4fP36yqqpapzOoVJr09IzY2HhiL/n5BceOHc/IyHr0qDcvr7C5uUWt1ty7l/7551+eP3+hpKR0bGxicHAoNPRKQkJiV9ejurqGixcDy8rKDQbTgwel6ekZbW0dnZ3dISGhSUnJEolMoVBeuHAxODjk+fMRg8FkNlvu388ICQmtrKzq7X0SFXUtLi5eIBBJpfKwsKt/mwEj0jIwMHThQmBo6NWGhqaWlrba2vrJyen29k5//zMxMbEdHV15efk+Pr6ZmVkqlVql0p49G/CrX30SH5/Y3t55+/YdPz//9vbOuTmqr+9ZUNClzMwsqVRuNJpFIsmZM+f+8z//MzU1rbOzWyKRPXhQ6ufnn5m5Ot64uPgjR45WVlaZTHNkrqm4uGTD95qmpwXXrl2/fftOR0dnU9PDkJDQ3Nx8nc5QU1O7b9++Q4cO5+TkDgwMqlQamUwRGXktJyePmeaCNbmtNKAjEAABEAABEAABEAABhgCsadvW1Nv7ODT0yt6935w/f7Gjo4u5YY8wnZoShIRcuX8/c2ZGxVCmKGtqatrRo0fb2zvIzjXLusvnT1GU1WymsrNzsrKybb+2RO7Ku3Ll6uDgsFarCw4OuXHjJmnw+HFfaGgYMwPT1/csPDyyublFKpWnpNxrbm4hjpGennH5csizZwNMGkajOTY27vbtmOlpIdmZmpp29uy53t4nKpX29OmzN2/eUqu1FGXt7x/09/cvLCyyWOafPu0PCblSU1NHDhGJJCdPngoJCSUTRHz+ZFhYeFrafTJnpdcbL10KDgy8NDUl2Mqa8vIKrl+/OTw8QlFWi2W+tLTs3r30qSlBTU3tkSNHCwuLmLkyqVROYMKamDcRGyAAAiAAAiAAAiAAAu4nAGvatjWRN8lgMGVkZPr7nyETMsw7193dc/TosbKycmYP2UhNTbt8ObS/f4iirHNzVFTUtd/85rd79uw9ePDQgQMHv/rqr9ev35yY4BuNpo6Ozhs3bp0/f2HPnm/OnQt4+rR/gzXV1TV8/fXeP/7xTwcPHjp48NDevXv37dvf1PRQLJYmJ6e2traTu/UiI69dv35DKBQzmUgkMl9f/9jYuxrNLNnZ0tLm73+6qqqaWNOdO7Gzs3pyo6C//5mcnDy71uTvfzolJZW4TXf3Ix8fXzKhRCwoLy8/JOTKkyfP7FqTxTIfH5/4u9/9/uuv95Cx//WvX1+5cnV4eKSmpvbixUDbRfMkEhmxJjJ79jfDxFwT825iAwRAAARAAARAAARAwG0EYE1vaU0UZZ2aEhw5cjQzM5uZG6Eo6+PHfQcPHiouXl1u2/bP1poslvmbN6MjI6PGx3kGg4n8mUxzcvlMTMzdW7duj46Om82WioqqGzdubramhoams2fP1dbWM8eS2/akUvm1a9fLyirIz0mFh0dEREQJBP/bmhQKpZ/fqjURNaIoa31948WLgQ8ftry1NT1+3HfypE9+fiEZLFn4LiwsfGBgyK41UZQ1MTE5NDRsaOg5k7/RaJ6bozZbE+aabE8hbIMACIAACIAACIAACOwUAVjT37mN47dBKpW3t3cwK9S1trb7+fnX1NTNzVEjI2P9/YNqtVYoFIeGht2+HSMQiMiaezqdgdyhx8w1UZS1rKz8/PkLdXUNtjf4jYyMr60MsXpfnEYzm52dGxER+fRpv05nTEpKvX07hsdb/e3asbHx4ODQjIwslUpjm7BcPhMbe7e6ejUfirLm5eX7+voRubJY5lUqjVqtTUpKvngxqK/vmcUyr9XqYmLuhodHjo6OO7CmoaHnoaFhhYXFJFWRSGI71yQSSaKibsTHJ5Ab9ni8yZCQ0Hv30tRq7VbWVFfXcOHChbKyckbeyCg2W5NYLE1JSa2rq8cderZvNLZBAARAAARAAARAAATcTADWtA1rmp4WRkVFHT58+OrViLCw8IMHD8XHJ4pEEplMHhp65ejRYz09vRRlbW1t9/X1P3jwcFDQZT8//7i4+MnJadu5JoqyKhTKuLj4AwcOhoaGRUffOXHiVF1dvUymuHbtxqlTPtHRt4OCLp065RMWFv70af+aZVUcOXI0KOhyXl4Bnz9VV9dw7NgJsq7DxYtBKSn3yJ146ekZBQVF5AY8iUQWHX1n7959589fCAg4f/LkyYcPW6ampiMjo44cOXrlStjx4yf27z/48GErRVkdWJPBYEpKSj558lR4eGRX16PpaaGtNVGUtaur+8yZs6dO+YaGhh05ciw4OGRwcPVGxJGRMV9fv8DAoIkJ3tjYhJ+f/8WLgePjPLVae+9e+oEDhy5dCr59O8bPz7+srNzuXNPjx31xcfFdXd3MVYE79BgU2AABEAABEAABEAABEHAbATvWJBSKRtYeGs3qwgBs/IlEYtKFWv13syWu6ouJv2E25t3jm0xzT570JSUl3boVXVFRKZXKyfeUHj3qbW5+KJOtPqUoq0gkqaysTku7X1NTK5WuLqtdX99QWFhMJqBIG7PZ8vTps6ysrIyMzP7+QYPBtGYvmoaGpvj4hKqqqurqmuLiB2R+aW6O6u19kpmZXV5eSX61icfjl5SUpqamVVZWkSXFKcra1NSSkpJKFlog327q6em9fz8jLy9/ZGSMfDtIrzfW1tbduHEjISHh+fPVJRkoyqrTGerq6ru7HxmNZoqyCgSi8vKKgYH1H0oSiSTV1TVZWTmDg8+lUnllZXVf31OLZZ7hKRJJqqpq0tMzWlvbVSqNVCobGRkZGBioq6svLS3n8SaNRtOjRz1r23xCbHBwOCcnNz09o7f3CZmO6+19nJubzyRPUdaCgqJ799Jsf6WKWNPp06eHh4dHRkYUitXl2jMyMn/4w3/9/PMvbH/Zicnt7TZkMjk5RUkXbxfEwVFMfLlc4aDZW78klytI/izFVyhmSHzmnH/rVO0eyMQnl4/dNu+yc2ZGSfJnKT5FWZVKFenCdpWXd8l5w7E28d/wM24bDnTyqUqlJvmLxSzF15D4ItH/vovYydycaaZWsx1fS/IXCldvK2DjT6OZ/baL9fV7XNuLVrseXyBgKb6O5C8QuPInBBkIs7Pr8aenp5mdLtzQ6fQk/6kpluIbvo2/ui4UG396/XoXk5OsdKHXG8kQJidXb4Rx+Z/BYCLx+fzVfzm4/I+Jz+OxEt9oNJP8ebzVn4dx+Z/JtB5/YmLC5cEpymoyzZH8WYq/thyahXQxPj7OxhDM5vX4Y2NjLokPa3qb81gslpC3WaVSu+Rt2BBEIlmPr1T+3UJ8G5ptfioUiuPjEx4+bNn8ku0eiURK8t9ufNsgDraJNY2MjMzMKB00c/ySXD4TFxdfVFRsMKyKHPmDNTEoHG/AmhzzgTU55rP2PziwJkefDmo1rMkRH4qyarWwJkeIdDpYkyM+FGVlrAbWZLdiw5rsYrHdCWt6wzVGYLE310Tie6w1UZS1tLQ8KyvHdlLL9gQi25ywpoaGxvT0++QnsJghwJoYFI43YE2O+cCaHPOBNb2RD6zpjYhgTY4RwZoc84E1vZEPrOmNiNxhTW9MAg08mYBSqZbLZ8iNdp6c5xtzUyrVMpliw0DwvaY3ckMDEAABEAABEAABEAABlxOwc4eey/tAQBBwFQFYk6tIIg4IgAAIgAAIgAAIgIDzBGBNTt3y5zxQtGSVAKyJVbwIDgIgAAIgAAIgAAIgYJcArAnWxCUCsCa7lzF2ggAIgAAIgAAIgAAIsEoA1sQlZ2D1VPDA4HNzVGJi0mef/Zr5+/73v//ee+/967/+F2bPZ5/9+j/+43c/+MEPXLvyuAfSQEogAAIgAAIgAAIgAAI7RQDWBGvyaAK9vY8//fTT97Z+/OlPfz53LsDlv9e0Uxck+gUBEAABEAABEAABEPBAArAmj3YGDzxj3J9SYmLSv/zLv9j1pu9////Iycll41du3T9M9AgCIAACIAACIAACIOCxBGBNsCZPJ8DnT3355Zd2renw4SOTk9OwJo+tL0gMBEAABEAABEAABHYHAViTpzvD7jjP3nEUhYVFP/7x/71BnD788CdVVdUUZYU1vSNeHA4CIAACIAACIAACIOCYAKwJ1sQBAlqtztfX7zvf+Q4jTv/4j/8YFHRJrdbCmhxf4XgVBEAABEAABEAABEDg3QnAmjjgDO/+Nu+CCE1NzT/72f9grOmTTz7p6Ogk48Jc0y54fzEEEAABEAABEAABEPBkArAmWBNnCFy/fuP9999/77333n///ZSUVOa6gjUxKLABAiAAAiAAAiAAAiDABgFYE2ecgY23n1sxnz3r/+1v/+O99977y1++GhoaZpKHNTEosAECIAACIAACIAACIMAGAVgTrIlLBO7dS//Nb35bUFBkezHAmmxpYBsEQAAEQAAEQAAEQMDlBGBNXHIGl7/9nAsoEIh6eh4LhWLbzGFNtjSwDQIgAAIgAAIgAAIg4HICsCZYE+cJwJpcXhcQEARAAARAAARAAARAwJYArInzzmD7dnrnNqzJO993jBoEQAAEQAAEQAAE3EYA1gRr4jwBWJPb6gU6AgEQAAEQAAEQAAHvJABr4rwzeOeJaztqWJMtDWyDAAiAAAiAAAiAAAi4nACsCdbEeQKwJpfXBQQEARAAARAAARAAARCwJQBr4rwz2L6d3rkNa/LO9x2jBgEQAAEQAAEQAAG3EYA1wZo4TwDW5LZ6gY5AAARAAARAAARAwDsJwJo47wzeeeLajhrWZEsD2yAAAiAAAiAAAiAAAi4nAGuCNXGeAKzJ5XUBAUEABEAABEAABEAABGwJwJo47wy2b6d3bsOavPN9x6hBAARAAARAAARAwG0EYE3ebk0CgSgkJPRXXH786Ec/+u53v/vBBx/89Kc/5fI4VnPPyMh028WPjkAABEAABEAABEAABJwkAGuCNYk+//yL9/DwAALf+973bt2KdvLSRTMQAAEQAAEQAAEQAAG3EYA1wZpWremDDz64dOlSPR47R+Crr76CNbmt8KEjEAABEAABEAABENgWAVgTrGndmgoKCmg8doiAwWDw8fGBNW2reKExCIAACIAACIAACLiNAKwJ1gRr2iFVsukW1uS2koeOQAAEQAAEQAAEQOAtCNixJqFQNLL20Gi0bxHRmUNEIjHpQq3WONN+u22Y+CoVK/HFYgnJX6VSbzc3Z9pLJOvxlUqVM+2320YikZL8lUqVQABrstGXHdp0uTXJ5QryFsvliu2eHs60VyhmSHyZTO5M++22YeJLpbLtHutM+5kZJcmfpfgUZVUqVaQLiUTqTErbbWMTX7LdY51pr1KpSf5iMUvxNSS+SCR2Jp/ttlGr2Y6vJfkLhaLt5uZke41m9tsuhE4esq1mWu16fIGApfg6kr9AINhWYk42np1djz89Pe3kIdtqptPpSf5TUyzFN3wbf2pbiTnfWK9f72JykpUu9HojGcLk5KTzWTnf0mAwkfh8Pt/5o5xvycTn8ViJbzSaSf48Hs/5rJxvaTKtx5+YmHD+KOdbmkxzJH+W4lOU1Wy2kC7Gx8edT8z5lkz8sbEx549y0BLW9DZzTbCmHZKLXdstrGlDkYI1bQCy+SmsaTMT2z2wJlsadrdhTXaxMDthTQyKrTZgTVuRIfthTY75wJqcNRBmLghzTXZPKcw17Vo92mJgsKYNFwKsaQOQzU9hTZuZ2O6BNdnSsLsNa7KLhdkJa2JQbLUBa9qKDNkPa3LMZ5dY0xsHiQa7iQDu0NtCZNy62+XWtJtOUYwFBEAABEAABEAABHacgJ079HY8JyTgTgKwJrfq0RadwZrcec6jLxAAARAAARAAARDYLgFYk7N3FW6XLFfaw5q2EBm37oY1ceV6QZ4gAAIgAAIgAALeSQDWBGvCGnpuFSS7ncGavLP+YtQgAAIgAAIgAAJcIQBrgjXBmuyKjFt3wpq4UjGRJwiAAAiAAAiAgHcSgDXBmmBNbhUku53Bmryz/mLUIAACIAACIAACXCEAa4I1wZrsioxbd8KauFIxkScIgAAIgAAIgIB3EoA1wZpgTW4VJLudwZq8s/5i1CAAAiAAAiAAAlwhAGuCNcGa7IqMW3fCmrhSMZEnCIAACIAACICAdxKANcGaYE1uFSS7ncGavLP+YtQgAAIgAAIgAAJcIQBrgjXBmuyKjFt3wpq4UjGRJwiAAAiAAAiAgHcSgDXBmjhjTVartaWlpa+vr729fXBw0HmtkUgkfX19YrG4v79/amrK+QPd1hLW5J31F6MGARAAARAAARDgCgFYE6yJM9Y0NTVdUlLy8OHD7Ozsrq4umqYVCgWfz7dYLIzeqFSqyckps9lM07Rarebz+UajkaKo/Pz8Bw8e5OXllZSUzM3NMe09ZAPWxJWKiTxBAARAAARAAAS8kwCsCdbEDWtaWFjIy8srKCioWntotdrXr1/fuRMTHh6uVCoZ+cnNzQsPj5icnKRpOj8/PzQ0dGxsjKbplpbWiorKzs6u8vJyD5xugjV5Z/3FqEEABEAABEAABLhCANYEa+KGNU1PCwoKCjs7u0pKSrq7u2ma3pY16fX64uLihoaGrKzs6uqa5eVlRrQ8YQPWxJWKiTxBAARAAARAAAS8kwCsCdbkEdbE4/GeP39OUZRdh1lZWamurq6qqmpubq6srCSTS9uyJpqm29raysvLm5uby8rKBAKB3Y52aiesyTvrL0YNAiAAAiAAAiDAFQKwJljTzluTRCLx9z994sTJ0dFRu94ikUgePChpb+/Iy8tva2tbWVnZ7lwTTdMqlerBgwfNzc3Z2Tn19Q2vX7+229eO7IQ1caViIk8QAAEQAAEQAAHvJABrgjXtvDUtLi4ODQ319fWRVRw2e0tjY2N5eXltbV1paZlMJiMNtjvXRNN0c/PDiorK1tbWiooKkUi8uaOd2gNr8s76i1GDAAiAAAiAAAhwhQCsCda089b0Rldpa2urrKzs6OioqKiYnp52YE05OTlhYVc3rwZBDqmtrS0rK6urqysrK5uZmXljv25rAGviSsVEniAAAiAAAiAAAt5JANYEa+KANanV6sLCwsbGxpycnObmh+QOvZWVlfj4hLCwq8zsE03TWVlZERGR5GtLtmvo0TQtk8nKysrb29tzcnKamppIELd5keOOYE3eWX8xahAAARAAARAAAa4QgDXBmjhgTTRNNzQ0VlVVd3R0rt1cJ6JpemVlpaamJiws7NmzZ8RJTCZTcnJKQkICWS7C1ppWVlbq6xtKSkqrq2sqKipsFyt37DPueRXWxJWKiTxBAARAAARAAAS8kwCsCda089ZktVqrqqoePHigVqu3spTZ2dnCwsK2tvaystV18BYXF2manpiYCAkJuXPnjkgkoiiqurraz8+/oaGBzCPZWpNSqSwtLV1beTzr4cOHW/WyU/thTd5ZfzFqEAABEAABEAABrhCANcGadt6aFArFuXPnTp3yGR8fd+AtZWVl5eUV7e3tlZWVcrmcpumlpaXu7m4fH5+PPvr3//pf/69f/vLjzMxMvV5PgjDWtLS0VFFRUVVV1d7eUVGxfqyDjtz/EqyJKxUTeYIACIAACIAACHgnAVgTrGnnrYmmaYvFotfrX7165cBYlEplcXFxV1dXUVFxS0sr09JqtWo0GpVKtRZhgdk/Pz9vMBhevXqlVCpzcnI6OjoqKytrampevnzJtPGQDViTd9ZfjBoEQAAEQAAEQIArBGBNsCaPsCZn7GV5eXliYkIsFvP5fLF4G+uGa7Xaqamp2dlZsVjsad9oIgOHNXGlYiJPEAABEAABEAAB7yQAa4I1ccaanDErjraBNXln/cWoQQAEQAAEQAAEuEIA1gRrgjXtvGrBmrhSMZEnCIAACIAACICAdxKANcGaYE2wJm+/Cryz+mPUIAACIAACIAACzhOANXn7vxcFAlgTrMnbrwLnKyZaggAIgAAIgAAIeCcBO9YkFIpG1h4ajZYlKCKRmHShVmvY6IKJr1KxEl8slpD8VSo1G/lLJOvxlUoVO/GlJH+lUgVr2nlnommX36EnlyvIWyyXK9g4hRSKGRJfJpOzGl8qlbERf2ZGSfJnKT5FWZVKFelCIpGyMQSb+BI24qtUapK/WMxSfA2JLxKJ2chfrWY7vpbkLxSK2Mifoqwazey3XQjZ6EKrXY8vELAUX0fyFwgEbOQ/O7sef3p6mo34Op2e5D81xVJ8w7fxp9jIn6Ksev16F5OTrHSh1xvJECYnJ9kYgsFgIvH5fD6r8Xk8VuIbjWaSP4/HYyN/k2k9/sTEBDvx50j+LMWnKKvZbCFdjI+PszEEJv7Y2JhL4sOa3uZ/2WFNnmAauykHWNOGcsZYGUtWA2vaAHzzU1jTZia2e9RqWNMbPj21WliTI0Q6HazJER+KssKabGvO5m1Y02YmG/bAmt5wjRFemGvacN5seCqRYK7Js5wL1rThFIU1bQCy+SnmmjYzsd2DuSZbGna3MddkFwuzE3NNDIqtNjDXtBUZsh9zTY757JK5pjcOEg12EwHcoecJ/uRya9pNpyjGAgIgAAIgAAIgAAI7TsDOHXo7nhMScCcB9qxJrVbX1dWNjY25VktMJpNEIhEKhSKRSCqVWiwW18bfkWiwJnee8+gLBEAABEAABEAABLZLANbk1C1/28XKofbsWZNcLj9//nxeXt7r169dpSIrKyvx8Qm/+c1vjx07fubMmQMHDh48eLCmpubFixeu6mK7cTQajVAofEd5gzVx6JJBqiAAAiAAAiAAAl5IANYEa2Jr5XH2rCksLEwqlS4tLRmNxqys7NOnz3R3d2/XdlzVvq6uLiUlRSKRvEtAWJMXFl8MGQRAAARAAARAgEMEYE2wJpdZ04sXL4xGo9lsXlxcpGmasaYN+xm7ePnypdFopChqeXmZpumVlRWLxTI/P7+yskLT9MLCAkVRCwsLpP3Lly/J0/j4hKtXr8pkMrKfx+NdvBhYVFREZrQWFhZMJpPRaHz16hXTEU3TpC+z2Ty/9iBhX716RVEUyZa0sT3KbqiFhQWz2WwwGF68eLGysvLixYuioqLY2LsjIyPMwG37dXIb1sShoolUQQAEQAAEQAAEvJAArAnW5BprampqOnXKZ9++fd98sy8+Pl6+9ggMDAwPj4iMjPzoo48+/vhX2dnZBoOBpmmz2VxQUPDHP/7xv/23f/tf/+uTlJRUlUr98uXL9PT0zMxMo9FI03RJSemhQ4ebmpppmp6dnU1MTMrMzNLp9Busqb+//2/xW1paV1ZWpqamoqKi9u3bt3///tDQ0OfPnxMBe/z4cUBAwMcff/zrX/8mNPTKtWvX2ts7aJqurKy6fv06+ebV8vJtCqnjAAAVrUlEQVRyaWlpfn6ByWSiaVosFt+8eWvv3m/27dsfGBjU19e3vLys1+vv3bu3b9++vXu/OXXqVHNzc25u7n//7//vT3/60d69e69fvz4+Pu6kJm1oBmvywuKLIYMACIAACIAACHCIAKwJ1uQCa1IqlTdu3CwoKNDpdCKRWCAQzs/Py+XyU6dOff31152dnQaDoaCgIDQ0dGBgkKbpmprac+cCampqdDrds2fPgoOD09PTdTrdgwclV66EDQ8/n5+fz83NPXr0WG5urk6nk0gkkZFRlZVV5HtNly5dHh0dFQgEra2tly9fDgu7OjU1pdevClVq6j2ZTGY0GrOzsxMSEhUKxfT0dGRkVHx8vFAo1Gg0OTk5fn5+7e3tDqxpbm4uJSUlPj5eJBIZjcbc3Lw7d2LEYnFlZWVERMSTJ0/MZvPExIRYLH716lVSUnJoaKhQKNwgQtt6CmviUNFEqiAAAiAAAiAAAl5IANYEa3KBNWm12vDwiKtXw6enBeR2O+YOvczMTHI7XF9fX1BQUGNj498mc65cuZKQkMCsoFBcXBwaGjo8PDw0NHT9+o22tjaFQnH/fkZkZFROTs709HRXV1ds7N3BwUFiTZ9++tnevd/s3bv388+/uHXrllgspmm6oaEhIiKyp6d3fn7earX29vYmJ6cMDAzm5uYFBgY9f/6caEx7e0dwcIhja+rs7IyIiGhrayOhBgcHk5KSenp6Ghoazp+/UFVVNTc3R2axFhcXU1JSrl69iu81eWH1xJBBAARAAARAAAS8hwCsCdbkAmuiaVomkyUmJh0+fCQo6NKjR49evnzJfK+JfONocHAwKCiorq5OKpWePn06NTWV+RJRd3f3pUuXWlpadDpdTExsWVlZe3t7dnZ2fX1Dauq9np6ewsKi+PgEmUxOrCks7KpUKuXz+VeuhBUWFr18+ZKm6erqmv37D+zdu/fIkaNHjhw9dOhwQMD53t7HmZmZkZGRIpHIeWtqbm4+fPjInj17mFA+Pr7t7e1ms7mlpSUwMPDAgYOpqfcUihlYk/fUSowUBEAABEAABEDAmwnAmmBNrrEm4iQmkyknJ+fcuYBHj3q2siadThcQEJCYmMhYU11dXXh4eH9/P03TBQUFSWuPysoqg8GYk5NTUFCYlpZeW1u7vLxMrImsBrGyslJaWnrxYmBfX9+aNVUHBQX19PRuuDUuLS0tODhkampqszVVVFRERkaOjIzQNL20tPTgQUl+fr7JZFpTo6DW1rYNocjTxcXFiYmJ8PCIuLg4mUx2715aeHgE5pq8uYxi7CAAAiAAAiAAArueAKwJ1uQCa9JoNBMTE3q9nqbpkZGR27dvd3V1bWVNKysrRUVFgYFBvb2PFxcXJRLJtWvXk5KS1WoNTdOdnZ2JiYnBwcENDQ3Ly8vV1TUpKamxsbFtbasOY2tNNE3PzMzcunUrMzPLbDaLxeLr168nJSWp1eqVlZWFhQWyON6jR48CA4MKCgpNJhNZ8s7Xd/17TdXVNWfPnmtqal5YWOjr6wsIOJ+RkWEymZRKZXT07bt37yqVSiJUS0tLNE1PTU1NTEwsLCysrKwUFz8gX3aqrq6OjIwaHl6/A9CuaL1xJ77XtOtLLQYIAiAAAiAAAiDAaQKwJliTC6yJx+Ndu3bd19cvKOjSiRMnyTIMW1kTWRPv3r17R48e8/X1O3z4cFTUtampaaIWIpHo8uXgEydOPnv2jKbp3t7H+/cf8Pc/TZan22BNawtL1Jw+faatbXV1h/7+gaCgS0ePHrtw4aKPj29RUTFZWDw7O+eTTz79y1/+4ufnFxBwPjAwiHyvSalUhodH/OIXv/jzn/8cGRkVGnolJyeHrKE3MjISEhJy5MiRCxcunDrlk5mZJZPJampqAgICzq8+Lpw9e66trW1lZWVkZOTy5eCjR4/eunWL+fbUGzVpQwNYE6fLKJIHARAAARAAARDY9QRgTbAmF1gTTdPLy8sKhWJkZEQqlb548YIsLy4QCHQ6HTEEo9EoFArJquJk1kitVo+OjopEovl5K2MRKysrSqVyampqbm6OpmmTycTj8cViMYlJ07RarRYKhcxKEiaTaXJyUqPRkOUZjEYjj8cfGRmVyeTk+05ksmhmRjk6OjYzo3z48CGzGgRN00ajkc+f5PMnTSbz7NqDfAuLdD05OflthvMkQ71ePz4+PjY2RibWmJ0TExOTk5Nms5kZyLY2YE27vtRigCAAAiAAAiAAApwmAGuCNbnGmrYlCTvY2HYNvR1MY0PXsCZOl1EkDwIgAAIgAAIgsOsJwJpgTbCmDQqzA09hTbu+1GKAIAACIAACIAACnCYAa4I1eZc1zczM9Pf3q9XqHXCjrbuENXG6jCJ5EAABEAABEACBXU8A1gRr8i5r2tpcdvIVWNOuL7UYIAiAAAiAAAiAAKcJwJpgTbCmnfQl0jesidNlFMmDAAiAAAiAAAjsegKwJlgTrAnW5O1Xwa4v9BggCIAACIAACIDAOxKANXn7vxcFAlgTrMnbr4J3LKM4HARAAARAAARAYNcTgDV5+78XYU0770w0jTv0dn2pxQBBAARAAARAAAQ4TQDWBGvCXNPOexOsidNlFMmDAAiAAAiAAAjsegKwJljTzljT0tKS1WpdWFhglOXVq1cvX758/fo1TdPLy8vMqy9fvnz16tXKygrT8o0bY2NjHR2dWq32jS09pAGsadeXWgwQBEAABEAABECA0wRgTbCmnbEmmUx28WJgXl4+0aTJyckTJ07evRtHURRN00aj8fLl4PT09ImJiSNHjly+HKxSqZw3nJycnLCwMD6f7/whO9sS1sTpMorkQQAEQAAEQAAEdj0BWBOsaWesyWAwxMcnJCenaDQamqY7O7t+//s/+Pn5CQQCmqanp6djYmKam5utVmtnZ9fg4ODy8rLzYpOTkwtr2vXFCwMEARAAARAAARAAAbcRgDXBmnbGmmiaTk5ODg+PkEgkNE1XVlZGR0ffuHGzs7OTpumOjo7w8Iienh5yt97y8upteysrK69fv15ZeywuLi4tLW24be/169dkf1ZW9gZrWl5eXlxcJPNaJNTS0hLz9PXag4lGnjovae/eEnNNbit56AgEQAAEQAAEQAAE3oIArAnWtGPW1NzcfOtW9NDQsMlkSktLz8rKSkhIqK2tXVpaKi0ti46OnpycnJ+fj4iISEhImJ+fV6vV6enpWVnZCQmJn3326z/84T9LS0vn5uZoml5aWmpvbz958uQvf/nxwYOHTp3yCQ8PJ3fomc3m4uLiP/3pTz/72f/Yv/9AY2Pjy5cvlUplXFxcRUUlmcLKyMg8fPhId3c3TdPkpaKiohcvXry7DjkZAdb0FsULh4AACIAACIAACICA2wjAmmBNO2ZNAwMDQUGX6uvrxWJxZmZmfX19cnJKcXGxyWTKycnJy8s3m83z8/OhoVfu3LlDUZRarT5z5uyvf/2bkpISkUiUmZkZFHTp6dOnNE339j4+d+5camoqj8cfGhoKDQ0NCrpErKmqqiog4Hx1dbVEInnw4MHx4yeKiopfvHhRWFgYFxenUCjUanVubt6pUz7FxQ/m560DAwNRUddaWlqcFB6XNIM1ua3koSMQAAEQAAEQAAEQeAsCsCZY045Zk0gkunnzVl1dfXd39/379ycmeOXl5TExMcPDwxkZGSUlpS9evNhgTYGBgYmJiWQWaE26gmpqapaWlhITE69fv65QKIjDMN9rkkgk4eEROTk55JCFhYWYmJjg4BCJRNLS0hodHT04OMjj8QoLiyIjox48eGA0GhsaGlJSUoRCoUt0yMkgsKa3KF44BARAAARAAARAAATcRsCONQmFopG1h0ajZSkPkUhMulCrNWx0wcRXqViJLxZLSP4qlZqN/CWS9fhKpYqd+FKSv1Kp2sFfuV1cXIqPT0hJSclcfWSpVKrBwcGEhIT8/IJbt241NjbSNL3ZmtLT05eWlmiaHh0dDQoKqqioMJlMISGht2/fIXfr0TTNWNPg4GBAQEBpaRljL9XV1eHh4WuyxI+MjKypqWlubs7NzSsqKkpMTBwaGioqKs7IyNTr9cwhbthwuTXJ5QryFsvlCjZOIYVihsSXyeSsxpdKZWzEn5lRkvxZik9RVqVSRbqQSKRsDMEmvoSN+CqVmuQvFrMUX0Pii0RiNvJXq9mOryX5C4UiNvKnKKtGM/ttF0I2utBq1+MLBCzF15H8BQIBG/nPzq7Hn56eZiO+Tqcn+U9NsRTf8G38KTbypyirXr/exeQkK13o9UYyhMnJSTaGYDCYSHw+n89qfB6PlfhGo5nkz+Px2MjfZFqPPzExwU78OZI/S/Epymo2W0gX4+PjbAyBiT82NuaS+LCmt5lrgjW5RCRWVlbWFCUjPj6hqan59evXarU6IyPz9u078fEJfX2rt945Y00WiyU4ODg6OpqsWm5rTePj46dPn87LyycJLy0tFRcXR0VdGx+fePnyJbkPMDs7u76+XqlUpqSkpKWlJyenEGFzyRidDAJr2lDOGCtjyWpgTRuAb34Ka9rMxHaPWg1resOnp1YLa3KESKeDNTniQ1FWWJNtzdm8DWvazGTDHljTG64xwgtzTRvOmw1PJRKPmGuiabqxsTE29u6NGzfJSgxzc3NpaeknT55KTU0ViUROWtPy8nJBQUFgYOCTJ0+WlpZMJtOdOzGXLl3m8/kmkyk5OTk2NlYul68taC5Yu2Evl6KolZWVqqqqrLVHR0eH1Wpd+5Wnqykpqc+ePXPSdlzVDNa04RSFNW0Asvkp5po2M7Hdg7kmWxp2tzHXZBcLsxNzTQyKrTYw17QVGbIfc02O+eySuaY3DhINdhOBHbxDj6bpgYGBr7/++tChQyMjI8RASkpKP/74Vzdu3CT3yDkz10TTtEQiCQg4/9lnv/bz8w8IOH/8+ImbN2+S1SD4fH54ePiJEyeCgoKOHz8eHR1NfIym6Z6eXh8fn6CgoLGxMZqmy8vLv/rqq1u3omUymat0yMk4Lrem3XSKYiwgAAIgAAIgAAIgsOME7Nyht+M5IQF3EthZa5qbm3v27Nnw8DBzc51cLu/o6BCJROTXkxYWFkZHR3k83sLCgtlsHhgYEIvF5CWNRvP06VMyiUTT9OzsbF9fX1tbu2zt8fz5c+a7SWazeXh4uLW1lc/nv3r1ijGZuTlLf//A0NB670qlsquri8/nk+9NMc3csAFrcuc5j75AAARAAARAAARAYLsEYE1O3fK3Xawcar+z1uQGIeFEF7AmDl0ySBUEQAAEQAAEQMALCcCaYE07tvI4J3zGPUnCmryw+GLIIAACIAACIAACHCIAa4I1wZrcY0aOeoE1cahoIlUQAAEQAAEQAAEvJABrgjXBmhz5jHtegzV5YfHFkEEABEAABEAABDhEANYEa4I1uceMHPUCa+JQ0USqIAACIAACIAACXkgA1gRrgjU58hn3vAZr8sLiiyGDAAiAAAiAAAhwiACsCdYEa3KPGTnqBdbEoaKJVEEABEAABEAABLyQAKwJ1gRrcuQz7nkN1uSFxRdDBgEQAAEQAAEQ4BABWBOsCdbkHjNy1AusiUNFE6mCAAiAAAiAAAh4IQFYE6wJ1uTIZ9zzGqzJC4svhgwCIAACIAACIMAhArAmWBOsyT1m5KgXWBOHiiZSBQEQAAEQAAEQ8EICsCZYE6zJkc+45zVYkxcWXwwZBEAABEAABECAQwRgTbAmWJN7zMhRL7AmDhVNpAoCIAACIAACIOCFBGBNsCZYkyOfcc9rsCYvLL4YMgiAAAiAAAiAAIcIwJpgTbAm95iRo15gTRwqmkgVBEAABEAABEDACwnAmmBNsCZHPuOe12BNXlh8MWQQAAEQAAEQAAEOEYA1wZpgTe4xI0e9wJo4VDSRKgiAAAiAAAiAgBcSgDXBmmBNjnzGPa/Bmryw+GLIIAACIAACIAACHCIAa4I1wZrcY0aOeoE1cahoIlUQAAEQAAEQAAEvJABrgjWtW9P/iceOEnj//fe/973v3boV7YVlCEMGARAAARAAARAAAQ8nAGuCNa1a03t4eAABWJOHl0ukBwIgAAIgAAIg4LUEYE2wJtHTp/348xACYrHUa4sRBg4CIAACIAACIAACHksA1uTt1uSxpyYSAwEQAAEQAAEQAAEQAAEPIQBrgjWBAAiAAAiAAAiAAAiAAAiAgCMCsCZHdDxEbZEGCIAACIAACIAACIAACIDADhKANcGaQAAEQAAEQAAEQAAEQAAEQMARAViTIzo7qLPoGgRAAARAAARAAARAAARAwEMI2LEmoVA0svbQaLQsZSkSiUkXarWGjS6Y+CoVK/HFYgnJX6VSs5G/RLIeX6lUsRNfSvJnKb5UKiPxZ2aUbOTPxFcoZtiIT1FWmUxOhsBSF0x8uVzBxhDkcgXJn6X4CsUMiS+TydnIn4kvlcrYiD8zoyT5sxSfoqxKpYp0IZGwsi6iTXwJG4hUKjXJXyxmKb6GxBeJxGzkr1azHV9L8hcKRWzkT1FWjWb22y6EbHSh1a7HFwhYiq8j+QsEAjbyn51djz89Pc1GfJ1OT/KfmmIpvuHb+FNs5E9RVr1+vYvJSVa60OuNZAiTk5NsDMFgMJH4fD6f1fg8HivxjUYzyZ/H47GRv8m0Hn9iYoKd+HMkf5biU5TVbLaQLsbHx9kYAhN/bGzMJfFhTW8z1wRrcnzyMVYDa9oKFKxpKzJkP6zJMZ+/tzKWrAbW5OjTQa2GNTniQ1FWrRbW5AiRTgdrcsSHoqywJscfBLAmx3xsrQzW5Ohiw1yT4zNJIsFck6PzB3NNjs8firIyVoO5pq1Y2cwFYa7JzuWmUrE9F8R2fFiTnbfV9nKANdnS2LwNa9rMZMMeWNMGIBuewpo2ANn81B1zTZt7xR4QAAEQAAEQAAEQAAEQAAEQ8FoCdu7Q81oWGDgIgAAIgAAIgAAIgAAIgAAIbCYAa3rDPQabkWEPCIAACIAACIAACIAACICAVxGANcGaQAAEQAAEQAAEQAAEQAAEQMARAViTIzpeJdAYLAiAAAiAAAiAAAiAAAiAgF0CsCZYEwiAAAiAAAiAAAiAAAiAAAg4IgBrckTHrmhiJwiAAAiAAAiAAAiAAAiAgFcRgDXBmkAABEAABEAABEAABEAABEDAEQFYkyM6XiXQGCwIgAAIgAAIgAAIgAAIgIBdArAmWBMIgAAIgAAIgAAIgAAIgAAIOCIAa3JEx65oYicIgAAIgAAIgAAIgAAIgIBXEYA1wZpAAARAAARAAARAAARAAARAwBEBWJMjOl4l0BgsCIAACIAACIAACIAACICAXQKwJlgTCIAACIAACIAACIAACIAACDgiAGtyRMeuaGInCIAACIAACIAACIAACICAVxGANcGaQAAEQAAEQAAEQAAEQAAEQMARgf8fZS1sd51arf4AAAAASUVORK5CYII=;rounded=0;fillColor=#A8DADC;strokeColor=#457B9D;fontColor=#1D3557;" vertex="1" parent="1">
          <mxGeometry x="20" y="570" width="1127" height="545" as="geometry" />
        </mxCell>
        <mxCell id="UPl1scvbvViI10Mi023q-47" value="Actor" style="shape=umlActor;verticalLabelPosition=bottom;verticalAlign=top;html=1;rounded=0;labelBackgroundColor=none;fillColor=#A8DADC;strokeColor=#457B9D;fontColor=#1D3557;" vertex="1" parent="1">
          <mxGeometry x="190" y="125" width="30" height="60" as="geometry" />
        </mxCell>
        <mxCell id="UPl1scvbvViI10Mi023q-70" style="edgeStyle=orthogonalEdgeStyle;rounded=0;orthogonalLoop=1;jettySize=auto;html=1;exitX=0.5;exitY=1;exitDx=0;exitDy=0;entryX=0.5;entryY=0;entryDx=0;entryDy=0;endArrow=none;startFill=0;labelBackgroundColor=none;strokeColor=#457B9D;fontColor=default;" edge="1" parent="1" source="UPl1scvbvViI10Mi023q-49" target="UPl1scvbvViI10Mi023q-67">
          <mxGeometry relative="1" as="geometry" />
        </mxCell>
        <mxCell id="UPl1scvbvViI10Mi023q-49" value=":&amp;lt;&amp;lt;UI&amp;gt;&amp;gt;&lt;div&gt;chargeRequest&lt;div&gt;Window&lt;/div&gt;&lt;/div&gt;" style="rounded=0;whiteSpace=wrap;html=1;labelBackgroundColor=none;fillColor=#A8DADC;strokeColor=#457B9D;fontColor=#1D3557;" vertex="1" parent="1">
          <mxGeometry x="284.37" y="290" width="120" height="60" as="geometry" />
        </mxCell>
        <mxCell id="UPl1scvbvViI10Mi023q-50" value="" style="rounded=0;whiteSpace=wrap;html=1;labelBackgroundColor=none;fillColor=#A8DADC;strokeColor=#457B9D;fontColor=#1D3557;" vertex="1" parent="1">
          <mxGeometry x="270" y="80" width="148.75" height="150" as="geometry" />
        </mxCell>
        <mxCell id="UPl1scvbvViI10Mi023q-51" value="" style="endArrow=block;dashed=1;html=1;rounded=0;entryX=0;entryY=0.5;entryDx=0;entryDy=0;startArrow=none;startFill=0;endFill=1;labelBackgroundColor=none;strokeColor=#457B9D;fontColor=default;" edge="1" parent="1" source="UPl1scvbvViI10Mi023q-47" target="UPl1scvbvViI10Mi023q-50">
          <mxGeometry width="50" height="50" relative="1" as="geometry">
            <mxPoint x="160" y="190" as="sourcePoint" />
            <mxPoint x="230.71067811865476" y="140" as="targetPoint" />
          </mxGeometry>
        </mxCell>
        <mxCell id="UPl1scvbvViI10Mi023q-52" value="" style="rounded=0;whiteSpace=wrap;html=1;labelBackgroundColor=none;fillColor=#A8DADC;strokeColor=#457B9D;fontColor=#1D3557;" vertex="1" parent="1">
          <mxGeometry x="340" y="110" width="60" height="20" as="geometry" />
        </mxCell>
        <mxCell id="UPl1scvbvViI10Mi023q-53" value="" style="rounded=0;whiteSpace=wrap;html=1;labelBackgroundColor=none;fillColor=#A8DADC;strokeColor=#457B9D;fontColor=#1D3557;" vertex="1" parent="1">
          <mxGeometry x="340" y="140" width="60" height="20" as="geometry" />
        </mxCell>
        <mxCell id="UPl1scvbvViI10Mi023q-54" value="" style="rounded=0;whiteSpace=wrap;html=1;labelBackgroundColor=none;fillColor=#A8DADC;strokeColor=#457B9D;fontColor=#1D3557;" vertex="1" parent="1">
          <mxGeometry x="340" y="169" width="60" height="20" as="geometry" />
        </mxCell>
        <mxCell id="UPl1scvbvViI10Mi023q-55" value="提交充电申请" style="text;html=1;align=center;verticalAlign=middle;resizable=0;points=[];autosize=1;strokeColor=none;fillColor=none;rounded=0;labelBackgroundColor=none;fontColor=#1D3557;" vertex="1" parent="1">
          <mxGeometry x="300" y="80" width="100" height="30" as="geometry" />
        </mxCell>
        <mxCell id="UPl1scvbvViI10Mi023q-56" value="车辆id:" style="text;html=1;align=center;verticalAlign=middle;resizable=0;points=[];autosize=1;strokeColor=none;fillColor=none;rounded=0;labelBackgroundColor=none;fontColor=#1D3557;" vertex="1" parent="1">
          <mxGeometry x="275" y="104" width="60" height="30" as="geometry" />
        </mxCell>
        <mxCell id="UPl1scvbvViI10Mi023q-57" value="充电量:" style="text;html=1;align=center;verticalAlign=middle;resizable=0;points=[];autosize=1;strokeColor=none;fillColor=none;rounded=0;labelBackgroundColor=none;fontColor=#1D3557;" vertex="1" parent="1">
          <mxGeometry x="275" y="135" width="60" height="30" as="geometry" />
        </mxCell>
        <mxCell id="UPl1scvbvViI10Mi023q-58" value="充电模式:" style="text;html=1;align=center;verticalAlign=middle;resizable=0;points=[];autosize=1;strokeColor=none;fillColor=none;rounded=0;labelBackgroundColor=none;fontColor=#1D3557;" vertex="1" parent="1">
          <mxGeometry x="270" y="164" width="70" height="30" as="geometry" />
        </mxCell>
        <mxCell id="UPl1scvbvViI10Mi023q-59" value="确定" style="rounded=0;whiteSpace=wrap;html=1;labelBackgroundColor=none;fillColor=#A8DADC;strokeColor=#457B9D;fontColor=#1D3557;" vertex="1" parent="1">
          <mxGeometry x="328.13" y="200" width="32.5" height="20" as="geometry" />
        </mxCell>
        <mxCell id="UPl1scvbvViI10Mi023q-63" value="" style="endArrow=none;html=1;rounded=0;entryX=0.5;entryY=1;entryDx=0;entryDy=0;exitX=0.5;exitY=0;exitDx=0;exitDy=0;labelBackgroundColor=none;strokeColor=#457B9D;fontColor=default;" edge="1" parent="1" source="UPl1scvbvViI10Mi023q-49" target="UPl1scvbvViI10Mi023q-50">
          <mxGeometry width="50" height="50" relative="1" as="geometry">
            <mxPoint x="150" y="570" as="sourcePoint" />
            <mxPoint x="200" y="520" as="targetPoint" />
          </mxGeometry>
        </mxCell>
        <mxCell id="UPl1scvbvViI10Mi023q-64" value="" style="endArrow=block;html=1;rounded=0;endFill=1;labelBackgroundColor=none;strokeColor=#457B9D;fontColor=default;" edge="1" parent="1">
          <mxGeometry width="50" height="50" relative="1" as="geometry">
            <mxPoint x="330" y="240" as="sourcePoint" />
            <mxPoint x="330" y="280" as="targetPoint" />
          </mxGeometry>
        </mxCell>
        <mxCell id="UPl1scvbvViI10Mi023q-65" value="actionPerformed&lt;div&gt;(actionEvent)&lt;/div&gt;" style="text;html=1;align=center;verticalAlign=middle;resizable=0;points=[];autosize=1;strokeColor=none;fillColor=none;rounded=0;labelBackgroundColor=none;fontColor=#1D3557;" vertex="1" parent="1">
          <mxGeometry x="225" y="240" width="110" height="40" as="geometry" />
        </mxCell>
        <mxCell id="UPl1scvbvViI10Mi023q-67" value=":&amp;lt;&amp;lt;UI&amp;gt;&amp;gt;&lt;div&gt;showRequest&lt;div&gt;Window&lt;/div&gt;&lt;/div&gt;" style="rounded=0;whiteSpace=wrap;html=1;labelBackgroundColor=none;fillColor=#A8DADC;strokeColor=#457B9D;fontColor=#1D3557;" vertex="1" parent="1">
          <mxGeometry x="284.37" y="410" width="120" height="60" as="geometry" />
        </mxCell>
        <mxCell id="UPl1scvbvViI10Mi023q-68" value="" style="endArrow=block;html=1;rounded=0;endFill=1;labelBackgroundColor=none;strokeColor=#457B9D;fontColor=default;" edge="1" parent="1">
          <mxGeometry width="50" height="50" relative="1" as="geometry">
            <mxPoint x="330" y="360" as="sourcePoint" />
            <mxPoint x="330" y="400" as="targetPoint" />
          </mxGeometry>
        </mxCell>
        <mxCell id="UPl1scvbvViI10Mi023q-69" value="3:create(controller)" style="text;html=1;align=center;verticalAlign=middle;resizable=0;points=[];autosize=1;strokeColor=none;fillColor=none;rounded=0;labelBackgroundColor=none;fontColor=#1D3557;" vertex="1" parent="1">
          <mxGeometry x="215" y="358" width="120" height="30" as="geometry" />
        </mxCell>
        <mxCell id="UPl1scvbvViI10Mi023q-74" style="edgeStyle=orthogonalEdgeStyle;rounded=0;orthogonalLoop=1;jettySize=auto;html=1;exitX=1;exitY=0.5;exitDx=0;exitDy=0;entryX=0;entryY=0.5;entryDx=0;entryDy=0;endArrow=none;startFill=0;labelBackgroundColor=none;strokeColor=#457B9D;fontColor=default;" edge="1" parent="1" source="UPl1scvbvViI10Mi023q-71" target="UPl1scvbvViI10Mi023q-72">
          <mxGeometry relative="1" as="geometry" />
        </mxCell>
        <mxCell id="UPl1scvbvViI10Mi023q-71" value="controller:&lt;br&gt;WaitingController" style="rounded=0;whiteSpace=wrap;html=1;labelBackgroundColor=none;fillColor=#A8DADC;strokeColor=#457B9D;fontColor=#1D3557;" vertex="1" parent="1">
          <mxGeometry x="650" y="290" width="120" height="60" as="geometry" />
        </mxCell>
        <mxCell id="UPl1scvbvViI10Mi023q-72" value=":DBFacade" style="rounded=0;whiteSpace=wrap;html=1;labelBackgroundColor=none;fillColor=#A8DADC;strokeColor=#457B9D;fontColor=#1D3557;" vertex="1" parent="1">
          <mxGeometry x="942" y="290" width="120" height="60" as="geometry" />
        </mxCell>
        <mxCell id="UPl1scvbvViI10Mi023q-73" value="" style="endArrow=none;html=1;rounded=0;entryX=1;entryY=0.5;entryDx=0;entryDy=0;exitX=0;exitY=0.5;exitDx=0;exitDy=0;labelBackgroundColor=none;strokeColor=#457B9D;fontColor=default;" edge="1" parent="1" source="UPl1scvbvViI10Mi023q-71" target="UPl1scvbvViI10Mi023q-49">
          <mxGeometry width="50" height="50" relative="1" as="geometry">
            <mxPoint x="660" y="600" as="sourcePoint" />
            <mxPoint x="710" y="550" as="targetPoint" />
          </mxGeometry>
        </mxCell>
        <mxCell id="UPl1scvbvViI10Mi023q-75" value="" style="endArrow=block;html=1;rounded=0;endFill=1;labelBackgroundColor=none;strokeColor=#457B9D;fontColor=default;" edge="1" parent="1">
          <mxGeometry width="50" height="50" relative="1" as="geometry">
            <mxPoint x="414" y="310" as="sourcePoint" />
            <mxPoint x="644" y="310" as="targetPoint" />
          </mxGeometry>
        </mxCell>
        <mxCell id="UPl1scvbvViI10Mi023q-76" value="" style="endArrow=block;html=1;rounded=0;endFill=1;labelBackgroundColor=none;strokeColor=#457B9D;fontColor=default;exitX=0.019;exitY=0.056;exitDx=0;exitDy=0;exitPerimeter=0;" edge="1" parent="1" source="UPl1scvbvViI10Mi023q-78">
          <mxGeometry width="50" height="50" relative="1" as="geometry">
            <mxPoint x="434" y="330" as="sourcePoint" />
            <mxPoint x="584" y="330" as="targetPoint" />
          </mxGeometry>
        </mxCell>
        <mxCell id="UPl1scvbvViI10Mi023q-77" value="" style="endArrow=block;html=1;rounded=0;endFill=1;labelBackgroundColor=none;strokeColor=#457B9D;fontColor=default;" edge="1" parent="1">
          <mxGeometry width="50" height="50" relative="1" as="geometry">
            <mxPoint x="783" y="310" as="sourcePoint" />
            <mxPoint x="937" y="310" as="targetPoint" />
          </mxGeometry>
        </mxCell>
        <mxCell id="UPl1scvbvViI10Mi023q-78" value="1:create(controller)" style="text;html=1;align=center;verticalAlign=middle;resizable=0;points=[];autosize=1;strokeColor=none;fillColor=none;rounded=0;labelBackgroundColor=none;fontColor=#1D3557;" vertex="1" parent="1">
          <mxGeometry x="454" y="328" width="120" height="30" as="geometry" />
        </mxCell>
        <mxCell id="UPl1scvbvViI10Mi023q-79" value="2.1:the Request=gets&lt;div&gt;(car_id,car_position,car_state,&lt;/div&gt;&lt;div&gt;queueNum,requesttime)&lt;/div&gt;" style="text;html=1;align=center;verticalAlign=middle;resizable=0;points=[];autosize=1;strokeColor=none;fillColor=none;rounded=0;labelBackgroundColor=none;fontColor=#1D3557;" vertex="1" parent="1">
          <mxGeometry x="762" y="250" width="180" height="60" as="geometry" />
        </mxCell>
        <mxCell id="UPl1scvbvViI10Mi023q-80" value="2:request=E_chargingRequest&lt;div&gt;(car_Id,Request_Amount, Request_Mode)&lt;/div&gt;" style="text;html=1;align=center;verticalAlign=middle;resizable=0;points=[];autosize=1;strokeColor=none;fillColor=none;fontColor=#1D3557;" vertex="1" parent="1">
          <mxGeometry x="400" y="270" width="250" height="40" as="geometry" />
        </mxCell>
      </root>
    </mxGraphModel>
  </diagram>
</mxfile>
